<?xml version="1.0" encoding="UTF-8" standalone="no"?>
<!DOCTYPE svg PUBLIC "-//W3C//DTD SVG 1.1//EN"
 "http://www.w3.org/Graphics/SVG/1.1/DTD/svg11.dtd">
<!-- Generated by graphviz version 14.1.5 (20260411.2331)
 -->
<!-- Title: find_task_chain Pages: 1 -->
<svg width="979pt" height="187pt"
 viewBox="0.00 0.00 979.00 187.00" xmlns="http://www.w3.org/2000/svg" xmlns:xlink="http://www.w3.org/1999/xlink">
<g id="graph0" class="graph" transform="scale(1 1) rotate(0) translate(21.6 165.6)">
<title>find_task_chain</title>
<!-- f1 -->
<g id="node1" class="node">
<title>f1</title>
<path fill="#aaccff" stroke="black" d="M146.4,-63C146.4,-63 12,-63 12,-63 6,-63 0,-57 0,-51 0,-51 0,-39 0,-39 0,-33 6,-27 12,-27 12,-27 146.4,-27 146.4,-27 152.4,-27 158.4,-33 158.4,-39 158.4,-39 158.4,-51 158.4,-51 158.4,-57 152.4,-63 146.4,-63"/>
<text xml:space="preserve" text-anchor="middle" x="79.2" y="-41.88" font-family="monospace" font-size="10.00">find_task_by_vpid()</text>
</g>
<!-- f2 -->
<g id="node2" class="node">
<title>f2</title>
<path fill="#ddeeff" stroke="black" d="M340.8,-90C340.8,-90 206.4,-90 206.4,-90 200.4,-90 194.4,-84 194.4,-78 194.4,-78 194.4,-66 194.4,-66 194.4,-60 200.4,-54 206.4,-54 206.4,-54 340.8,-54 340.8,-54 346.8,-54 352.8,-60 352.8,-66 352.8,-66 352.8,-78 352.8,-78 352.8,-84 346.8,-90 340.8,-90"/>
<text xml:space="preserve" text-anchor="middle" x="273.6" y="-68.88" font-family="monospace" font-size="10.00">find_task_by_pid_ns()</text>
</g>
<!-- f1&#45;&gt;f2 -->
<g id="edge1" class="edge">
<title>f1&#45;&gt;f2</title>
<path fill="none" stroke="#336699" stroke-width="1.5" d="M158.73,-56.02C166.73,-57.14 174.9,-58.29 183.01,-59.43"/>
<polygon fill="#336699" stroke="#336699" stroke-width="1.5" points="182.41,-62.52 191.76,-60.66 183.28,-56.28 182.41,-62.52"/>
</g>
<!-- note1 -->
<g id="node6" class="node">
<title>note1</title>
<polygon fill="#fffacd" stroke="black" points="346.8,-36 194.4,-36 194.4,0 352.8,0 352.8,-30 346.8,-36"/>
<polyline fill="none" stroke="black" points="346.8,-36 346.8,-30"/>
<polyline fill="none" stroke="black" points="352.8,-30 346.8,-30"/>
<text xml:space="preserve" text-anchor="middle" x="273.6" y="-19.2" font-family="sans-serif" font-size="9.00">prosesin pid</text>
<text xml:space="preserve" text-anchor="middle" x="273.6" y="-9.45" font-family="sans-serif" font-size="9.00">isim alanında arama</text>
</g>
<!-- f1&#45;&gt;note1 -->
<g id="edge5" class="edge">
<title>f1&#45;&gt;note1</title>
<path fill="none" stroke="#999999" stroke-width="1.5" stroke-dasharray="5,2" d="M158.73,-33.98C170.37,-32.35 182.37,-30.66 194.01,-29.03"/>
</g>
<!-- f3 -->
<g id="node3" class="node">
<title>f3</title>
<path fill="#ddeeff" stroke="black" d="M535.2,-90C535.2,-90 400.8,-90 400.8,-90 394.8,-90 388.8,-84 388.8,-78 388.8,-78 388.8,-66 388.8,-66 388.8,-60 394.8,-54 400.8,-54 400.8,-54 535.2,-54 535.2,-54 541.2,-54 547.2,-60 547.2,-66 547.2,-66 547.2,-78 547.2,-78 547.2,-84 541.2,-90 535.2,-90"/>
<text xml:space="preserve" text-anchor="middle" x="468" y="-68.88" font-family="monospace" font-size="10.00">find_pid_ns()</text>
</g>
<!-- f2&#45;&gt;f3 -->
<g id="edge2" class="edge">
<title>f2&#45;&gt;f3</title>
<path fill="none" stroke="#336699" stroke-width="1.5" d="M353.13,-72C361.13,-72 369.3,-72 377.41,-72"/>
<polygon fill="#336699" stroke="#336699" stroke-width="1.5" points="377.14,-75.15 386.14,-72 377.13,-68.85 377.14,-75.15"/>
</g>
<!-- f4 -->
<g id="node4" class="node">
<title>f4</title>
<path fill="#ddeeff" stroke="black" d="M729.6,-117C729.6,-117 595.2,-117 595.2,-117 589.2,-117 583.2,-111 583.2,-105 583.2,-105 583.2,-93 583.2,-93 583.2,-87 589.2,-81 595.2,-81 595.2,-81 729.6,-81 729.6,-81 735.6,-81 741.6,-87 741.6,-93 741.6,-93 741.6,-105 741.6,-105 741.6,-111 735.6,-117 729.6,-117"/>
<text xml:space="preserve" text-anchor="middle" x="662.4" y="-95.88" font-family="monospace" font-size="10.00">pid_task()</text>
</g>
<!-- f3&#45;&gt;f4 -->
<g id="edge3" class="edge">
<title>f3&#45;&gt;f4</title>
<path fill="none" stroke="#336699" stroke-width="1.5" d="M547.53,-83.02C555.53,-84.14 563.7,-85.29 571.81,-86.43"/>
<polygon fill="#336699" stroke="#336699" stroke-width="1.5" points="571.21,-89.52 580.56,-87.66 572.08,-83.28 571.21,-89.52"/>
</g>
<!-- note2 -->
<g id="node7" class="node">
<title>note2</title>
<polygon fill="#fffacd" stroke="black" points="735.6,-63 583.2,-63 583.2,-27 741.6,-27 741.6,-57 735.6,-63"/>
<polyline fill="none" stroke="black" points="735.6,-63 735.6,-57"/>
<polyline fill="none" stroke="black" points="741.6,-57 735.6,-57"/>
<text xml:space="preserve" text-anchor="middle" x="662.4" y="-46.2" font-family="sans-serif" font-size="9.00">hash tablosundan</text>
<text xml:space="preserve" text-anchor="middle" x="662.4" y="-36.45" font-family="sans-serif" font-size="9.00">pid nesnesi</text>
</g>
<!-- f3&#45;&gt;note2 -->
<g id="edge6" class="edge">
<title>f3&#45;&gt;note2</title>
<path fill="none" stroke="#999999" stroke-width="1.5" stroke-dasharray="5,2" d="M547.53,-60.98C559.17,-59.35 571.17,-57.66 582.81,-56.03"/>
</g>
<!-- f5 -->
<g id="node5" class="node">
<title>f5</title>
<path fill="#d4e8d4" stroke="black" d="M924,-144C924,-144 789.6,-144 789.6,-144 783.6,-144 777.6,-138 777.6,-132 777.6,-132 777.6,-120 777.6,-120 777.6,-114 783.6,-108 789.6,-108 789.6,-108 924,-108 924,-108 930,-108 936,-114 936,-120 936,-120 936,-132 936,-132 936,-138 930,-144 924,-144"/>
<text xml:space="preserve" text-anchor="middle" x="856.8" y="-122.88" font-family="monospace" font-size="10.00">task_struct *</text>
</g>
<!-- f4&#45;&gt;f5 -->
<g id="edge4" class="edge">
<title>f4&#45;&gt;f5</title>
<path fill="none" stroke="#336699" stroke-width="1.5" d="M741.93,-110.02C749.93,-111.14 758.1,-112.29 766.21,-113.43"/>
<polygon fill="#336699" stroke="#336699" stroke-width="1.5" points="765.61,-116.52 774.96,-114.66 766.48,-110.28 765.61,-116.52"/>
</g>
<!-- note3 -->
<g id="node8" class="node">
<title>note3</title>
<polygon fill="#fffacd" stroke="black" points="930,-90 777.6,-90 777.6,-54 936,-54 936,-84 930,-90"/>
<polyline fill="none" stroke="black" points="930,-90 930,-84"/>
<polyline fill="none" stroke="black" points="936,-84 930,-84"/>
<text xml:space="preserve" text-anchor="middle" x="856.8" y="-73.2" font-family="sans-serif" font-size="9.00">pid nesnesindeki</text>
<text xml:space="preserve" text-anchor="middle" x="856.8" y="-63.45" font-family="sans-serif" font-size="9.00">bağlı listeden</text>
</g>
<!-- f4&#45;&gt;note3 -->
<g id="edge7" class="edge">
<title>f4&#45;&gt;note3</title>
<path fill="none" stroke="#999999" stroke-width="1.5" stroke-dasharray="5,2" d="M741.93,-87.98C753.57,-86.35 765.57,-84.66 777.21,-83.03"/>
</g>
</g>
</svg>
