<?xml version="1.0" encoding="UTF-8" standalone="no"?>
<!DOCTYPE svg PUBLIC "-//W3C//DTD SVG 1.1//EN"
 "http://www.w3.org/Graphics/SVG/1.1/DTD/svg11.dtd">
<!-- Generated by graphviz version 14.1.5 (20260411.2331)
 -->
<!-- Title: fd_table Pages: 1 -->
<svg width="299pt" height="261pt"
 viewBox="0.00 0.00 299.00 261.00" xmlns="http://www.w3.org/2000/svg" xmlns:xlink="http://www.w3.org/1999/xlink">
<g id="graph0" class="graph" transform="scale(1 1) rotate(0) translate(4 257)">
<title>fd_table</title>
<polygon fill="white" stroke="none" points="-4,4 -4,-257 294.75,-257 294.75,4 -4,4"/>
<!-- table -->
<g id="node1" class="node">
<title>table</title>
<polygon fill="#d6e8fa" stroke="none" points="9,-208 9,-237 65.75,-237 65.75,-208 9,-208"/>
<polygon fill="none" stroke="black" points="9,-208 9,-237 65.75,-237 65.75,-208 9,-208"/>
<text xml:space="preserve" text-anchor="start" x="16" y="-217.7" font-family="DejaVu Sans" font-weight="bold" font-size="14.00">İndeks</text>
<polygon fill="#d6e8fa" stroke="none" points="65.75,-208 65.75,-237 139,-237 139,-208 65.75,-208"/>
<polygon fill="none" stroke="black" points="65.75,-208 65.75,-237 139,-237 139,-208 65.75,-208"/>
<text xml:space="preserve" text-anchor="start" x="72.75" y="-217.7" font-family="DejaVu Sans" font-weight="bold" font-size="14.00">Gösterici</text>
<polygon fill="none" stroke="black" points="9,-179 9,-208 65.75,-208 65.75,-179 9,-179"/>
<text xml:space="preserve" text-anchor="start" x="33.62" y="-189.75" font-family="DejaVu Sans" font-size="14.00">0</text>
<polygon fill="none" stroke="black" points="65.75,-179 65.75,-208 139,-208 139,-179 65.75,-179"/>
<text xml:space="preserve" text-anchor="start" x="98.25" y="-189.75" font-family="DejaVu Sans" font-size="14.00">●</text>
<polygon fill="none" stroke="black" points="9,-150 9,-179 65.75,-179 65.75,-150 9,-150"/>
<text xml:space="preserve" text-anchor="start" x="33.62" y="-160.75" font-family="DejaVu Sans" font-size="14.00">1</text>
<polygon fill="none" stroke="black" points="65.75,-150 65.75,-179 139,-179 139,-150 65.75,-150"/>
<text xml:space="preserve" text-anchor="start" x="98.25" y="-160.75" font-family="DejaVu Sans" font-size="14.00">●</text>
<polygon fill="none" stroke="black" points="9,-121 9,-150 65.75,-150 65.75,-121 9,-121"/>
<text xml:space="preserve" text-anchor="start" x="33.62" y="-131.75" font-family="DejaVu Sans" font-size="14.00">2</text>
<polygon fill="none" stroke="black" points="65.75,-121 65.75,-150 139,-150 139,-121 65.75,-121"/>
<text xml:space="preserve" text-anchor="start" x="98.25" y="-131.75" font-family="DejaVu Sans" font-size="14.00">●</text>
<polygon fill="none" stroke="black" points="9,-92 9,-121 65.75,-121 65.75,-92 9,-92"/>
<text xml:space="preserve" text-anchor="start" x="33.62" y="-102.75" font-family="DejaVu Sans" font-size="14.00">3</text>
<polygon fill="none" stroke="black" points="65.75,-92 65.75,-121 139,-121 139,-92 65.75,-92"/>
<text xml:space="preserve" text-anchor="start" x="98.25" y="-102.75" font-family="DejaVu Sans" font-size="14.00">●</text>
<polygon fill="none" stroke="black" points="9,-63 9,-92 65.75,-92 65.75,-63 9,-63"/>
<text xml:space="preserve" text-anchor="start" x="31.75" y="-73.75" font-family="DejaVu Sans" font-size="14.00">...</text>
<polygon fill="none" stroke="black" points="65.75,-63 65.75,-92 139,-92 139,-63 65.75,-63"/>
<text xml:space="preserve" text-anchor="start" x="96.75" y="-73.75" font-family="DejaVu Sans" font-size="14.00">...</text>
<polygon fill="none" stroke="black" points="9,-34 9,-63 65.75,-63 65.75,-34 9,-34"/>
<text xml:space="preserve" text-anchor="start" x="29.88" y="-44.75" font-family="DejaVu Sans" font-size="14.00">18</text>
<polygon fill="none" stroke="black" points="65.75,-34 65.75,-63 139,-63 139,-34 65.75,-34"/>
<text xml:space="preserve" text-anchor="start" x="87" y="-44.75" font-family="DejaVu Sans" font-size="14.00">(boş)</text>
<polygon fill="none" stroke="black" points="9,-5 9,-34 65.75,-34 65.75,-5 9,-5"/>
<text xml:space="preserve" text-anchor="start" x="29.88" y="-15.75" font-family="DejaVu Sans" font-size="14.00">19</text>
<polygon fill="none" stroke="black" points="65.75,-5 65.75,-34 139,-34 139,-5 65.75,-5"/>
<text xml:space="preserve" text-anchor="start" x="87" y="-15.75" font-family="DejaVu Sans" font-size="14.00">(boş)</text>
<polygon fill="none" stroke="black" points="8,-4 8,-238 140,-238 140,-4 8,-4"/>
</g>
<!-- fo0 -->
<g id="node2" class="node">
<title>fo0</title>
<path fill="#d5f5d5" stroke="black" d="M278.75,-253C278.75,-253 196,-253 196,-253 190,-253 184,-247 184,-241 184,-241 184,-227 184,-227 184,-221 190,-215 196,-215 196,-215 278.75,-215 278.75,-215 284.75,-215 290.75,-221 290.75,-227 290.75,-227 290.75,-241 290.75,-241 290.75,-247 284.75,-253 278.75,-253"/>
<text xml:space="preserve" text-anchor="middle" x="237.38" y="-235.7" font-family="DejaVu Sans" font-size="14.00">Dosya Nesnesi</text>
<text xml:space="preserve" text-anchor="middle" x="237.38" y="-220.7" font-family="DejaVu Sans" font-size="14.00">(fd=0)</text>
</g>
<!-- table&#45;&gt;fo0 -->
<g id="edge1" class="edge">
<title>table:f0&#45;&gt;fo0</title>
<path fill="none" stroke="black" d="M140,-193.5C150.11,-193.5 169.66,-201.17 188.53,-209.83"/>
<polygon fill="black" stroke="black" points="186.97,-212.96 197.51,-214.05 189.95,-206.63 186.97,-212.96"/>
</g>
<!-- fo1 -->
<g id="node3" class="node">
<title>fo1</title>
<path fill="#d5f5d5" stroke="black" d="M278.75,-197C278.75,-197 196,-197 196,-197 190,-197 184,-191 184,-185 184,-185 184,-171 184,-171 184,-165 190,-159 196,-159 196,-159 278.75,-159 278.75,-159 284.75,-159 290.75,-165 290.75,-171 290.75,-171 290.75,-185 290.75,-185 290.75,-191 284.75,-197 278.75,-197"/>
<text xml:space="preserve" text-anchor="middle" x="237.38" y="-179.7" font-family="DejaVu Sans" font-size="14.00">Dosya Nesnesi</text>
<text xml:space="preserve" text-anchor="middle" x="237.38" y="-164.7" font-family="DejaVu Sans" font-size="14.00">(fd=1)</text>
</g>
<!-- table&#45;&gt;fo1 -->
<g id="edge2" class="edge">
<title>table:f1&#45;&gt;fo1</title>
<path fill="none" stroke="black" d="M140,-164.5C150.53,-164.5 161.65,-165.3 172.45,-166.51"/>
<polygon fill="black" stroke="black" points="171.68,-169.94 182.04,-167.72 172.55,-163 171.68,-169.94"/>
</g>
<!-- fo2 -->
<g id="node4" class="node">
<title>fo2</title>
<path fill="#d5f5d5" stroke="black" d="M278.75,-141C278.75,-141 196,-141 196,-141 190,-141 184,-135 184,-129 184,-129 184,-115 184,-115 184,-109 190,-103 196,-103 196,-103 278.75,-103 278.75,-103 284.75,-103 290.75,-109 290.75,-115 290.75,-115 290.75,-129 290.75,-129 290.75,-135 284.75,-141 278.75,-141"/>
<text xml:space="preserve" text-anchor="middle" x="237.38" y="-123.7" font-family="DejaVu Sans" font-size="14.00">Dosya Nesnesi</text>
<text xml:space="preserve" text-anchor="middle" x="237.38" y="-108.7" font-family="DejaVu Sans" font-size="14.00">(fd=2)</text>
</g>
<!-- table&#45;&gt;fo2 -->
<g id="edge3" class="edge">
<title>table:f2&#45;&gt;fo2</title>
<path fill="none" stroke="black" d="M140,-135.5C150.53,-135.5 161.65,-134.7 172.45,-133.49"/>
<polygon fill="black" stroke="black" points="172.55,-137 182.04,-132.28 171.68,-130.06 172.55,-137"/>
</g>
<!-- fo3 -->
<g id="node5" class="node">
<title>fo3</title>
<path fill="#d5f5d5" stroke="black" d="M278.75,-85C278.75,-85 196,-85 196,-85 190,-85 184,-79 184,-73 184,-73 184,-59 184,-59 184,-53 190,-47 196,-47 196,-47 278.75,-47 278.75,-47 284.75,-47 290.75,-53 290.75,-59 290.75,-59 290.75,-73 290.75,-73 290.75,-79 284.75,-85 278.75,-85"/>
<text xml:space="preserve" text-anchor="middle" x="237.38" y="-67.7" font-family="DejaVu Sans" font-size="14.00">Dosya Nesnesi</text>
<text xml:space="preserve" text-anchor="middle" x="237.38" y="-52.7" font-family="DejaVu Sans" font-size="14.00">(fd=3)</text>
</g>
<!-- table&#45;&gt;fo3 -->
<g id="edge4" class="edge">
<title>table:f3&#45;&gt;fo3</title>
<path fill="none" stroke="black" d="M140,-106.5C150.11,-106.5 169.66,-98.83 188.53,-90.17"/>
<polygon fill="black" stroke="black" points="189.95,-93.37 197.51,-85.95 186.97,-87.04 189.95,-93.37"/>
</g>
</g>
</svg>
