<?xml version="1.0" encoding="UTF-8" standalone="no"?>
<!DOCTYPE svg PUBLIC "-//W3C//DTD SVG 1.1//EN"
 "http://www.w3.org/Graphics/SVG/1.1/DTD/svg11.dtd">
<!-- Generated by graphviz version 14.1.5 (20260411.2331)
 -->
<!-- Title: xarray_64way Pages: 1 -->
<svg width="477pt" height="273pt"
 viewBox="0.00 0.00 477.00 273.00" xmlns="http://www.w3.org/2000/svg" xmlns:xlink="http://www.w3.org/1999/xlink">
<g id="graph0" class="graph" transform="scale(1 1) rotate(0) translate(21.6 251.85)">
<title>xarray_64way</title>
<!-- root -->
<g id="node1" class="node">
<title>root</title>
<path fill="#aaccff" stroke="black" d="M238.25,-230.25C238.25,-230.25 162.25,-230.25 162.25,-230.25 156.25,-230.25 150.25,-224.25 150.25,-218.25 150.25,-218.25 150.25,-206.25 150.25,-206.25 150.25,-200.25 156.25,-194.25 162.25,-194.25 162.25,-194.25 238.25,-194.25 238.25,-194.25 244.25,-194.25 250.25,-200.25 250.25,-206.25 250.25,-206.25 250.25,-218.25 250.25,-218.25 250.25,-224.25 244.25,-230.25 238.25,-230.25"/>
<text xml:space="preserve" text-anchor="middle" x="200.25" y="-215.5" font-family="monospace" font-size="10.00">Kök</text>
<text xml:space="preserve" text-anchor="middle" x="200.25" y="-202.75" font-family="monospace" font-size="10.00">(64 gösterici)</text>
</g>
<!-- g0 -->
<g id="node2" class="node">
<title>g0</title>
<path fill="#ddeeff" stroke="black" d="M56.5,-133.12C56.5,-133.12 12,-133.12 12,-133.12 6,-133.12 0,-127.12 0,-121.12 0,-121.12 0,-109.12 0,-109.12 0,-103.12 6,-97.12 12,-97.12 12,-97.12 56.5,-97.12 56.5,-97.12 62.5,-97.12 68.5,-103.12 68.5,-109.12 68.5,-109.12 68.5,-121.12 68.5,-121.12 68.5,-127.12 62.5,-133.12 56.5,-133.12"/>
<text xml:space="preserve" text-anchor="middle" x="34.25" y="-116.88" font-family="sans-serif" font-size="10.00">0x00…0x3F</text>
<text xml:space="preserve" text-anchor="middle" x="34.25" y="-105.62" font-family="sans-serif" font-size="10.00">64 gösterici</text>
</g>
<!-- root&#45;&gt;g0 -->
<g id="edge1" class="edge">
<title>root&#45;&gt;g0</title>
<path fill="none" stroke="#336699" stroke-width="1.2" d="M149.8,-203.91C124.8,-198.36 95.24,-188.76 72.75,-172.25 62,-164.36 53.25,-152.52 46.82,-141.75"/>
<polygon fill="#336699" stroke="#336699" stroke-width="1.2" points="49.41,-140.63 43.06,-135.02 44.52,-143.37 49.41,-140.63"/>
<text xml:space="preserve" text-anchor="middle" x="100.5" y="-158.95" font-family="Times,serif" font-size="14.00">bit[5:0]=0</text>
</g>
<!-- g1 -->
<g id="node3" class="node">
<title>g1</title>
<path fill="#ddeeff" stroke="black" d="M143.5,-133.12C143.5,-133.12 99,-133.12 99,-133.12 93,-133.12 87,-127.12 87,-121.12 87,-121.12 87,-109.12 87,-109.12 87,-103.12 93,-97.12 99,-97.12 99,-97.12 143.5,-97.12 143.5,-97.12 149.5,-97.12 155.5,-103.12 155.5,-109.12 155.5,-109.12 155.5,-121.12 155.5,-121.12 155.5,-127.12 149.5,-133.12 143.5,-133.12"/>
<text xml:space="preserve" text-anchor="middle" x="121.25" y="-116.88" font-family="sans-serif" font-size="10.00">0x40…0x7F</text>
<text xml:space="preserve" text-anchor="middle" x="121.25" y="-105.62" font-family="sans-serif" font-size="10.00">64 gösterici</text>
</g>
<!-- root&#45;&gt;g1 -->
<g id="edge2" class="edge">
<title>root&#45;&gt;g1</title>
<path fill="none" stroke="#336699" stroke-width="1.2" d="M165.34,-193.78C156.35,-187.94 147.36,-180.72 140.75,-172.25 134.14,-163.77 129.67,-152.89 126.71,-142.97"/>
<polygon fill="#336699" stroke="#336699" stroke-width="1.2" points="129.42,-142.28 124.68,-135.25 124.01,-143.7 129.42,-142.28"/>
<text xml:space="preserve" text-anchor="middle" x="168.5" y="-158.95" font-family="Times,serif" font-size="14.00">bit[5:0]=1</text>
</g>
<!-- g2 -->
<g id="node4" class="node">
<title>g2</title>
<text xml:space="preserve" text-anchor="middle" x="200.25" y="-111.25" font-family="sans-serif" font-size="10.00">...</text>
</g>
<!-- root&#45;&gt;g2 -->
<!-- g63 -->
<g id="node5" class="node">
<title>g63</title>
<path fill="#ddeeff" stroke="black" d="M305,-133.12C305,-133.12 257.5,-133.12 257.5,-133.12 251.5,-133.12 245.5,-127.12 245.5,-121.12 245.5,-121.12 245.5,-109.12 245.5,-109.12 245.5,-103.12 251.5,-97.12 257.5,-97.12 257.5,-97.12 305,-97.12 305,-97.12 311,-97.12 317,-103.12 317,-109.12 317,-109.12 317,-121.12 317,-121.12 317,-127.12 311,-133.12 305,-133.12"/>
<text xml:space="preserve" text-anchor="middle" x="281.25" y="-116.88" font-family="sans-serif" font-size="10.00">0xC0…0xFF</text>
<text xml:space="preserve" text-anchor="middle" x="281.25" y="-105.62" font-family="sans-serif" font-size="10.00">64 gösterici</text>
</g>
<!-- root&#45;&gt;g63 -->
<g id="edge4" class="edge">
<title>root&#45;&gt;g63</title>
<path fill="none" stroke="#336699" stroke-width="1.2" d="M215.11,-193.8C227.78,-178.92 246.15,-157.35 260.31,-140.72"/>
<polygon fill="#336699" stroke="#336699" stroke-width="1.2" points="262.26,-142.75 265.31,-134.84 257.99,-139.12 262.26,-142.75"/>
<text xml:space="preserve" text-anchor="middle" x="276.72" y="-158.95" font-family="Times,serif" font-size="14.00">bit[5:0]=63</text>
</g>
<!-- note -->
<g id="node8" class="node">
<title>note</title>
<polygon fill="#fffacd" stroke="black" points="427.5,-133.75 335,-133.75 335,-96.5 433.5,-96.5 433.5,-127.75 427.5,-133.75"/>
<polyline fill="none" stroke="black" points="427.5,-133.75 427.5,-127.75"/>
<polyline fill="none" stroke="black" points="433.5,-127.75 427.5,-127.75"/>
<text xml:space="preserve" text-anchor="middle" x="384.25" y="-121.2" font-family="sans-serif" font-size="9.00">En fazla 6 kademe</text>
<text xml:space="preserve" text-anchor="middle" x="384.25" y="-111.45" font-family="sans-serif" font-size="9.00">(32&#45;bit PID için)</text>
<text xml:space="preserve" text-anchor="middle" x="384.25" y="-101.7" font-family="sans-serif" font-size="9.00">ortalama 2–3 seviye</text>
</g>
<!-- root&#45;&gt;note -->
<g id="edge7" class="edge">
<title>root&#45;&gt;note</title>
<path fill="none" stroke="#999999" stroke-width="1.2" stroke-dasharray="5,2" d="M250.52,-197.61C270.37,-191.25 292.99,-182.74 312.25,-172.25 331.46,-161.79 350.88,-146.3 364.7,-134.24"/>
</g>
<!-- leaf1 -->
<g id="node6" class="node">
<title>leaf1</title>
<path fill="#d4e8d4" stroke="black" d="M53.88,-36C53.88,-36 14.63,-36 14.63,-36 8.62,-36 2.62,-30 2.62,-24 2.62,-24 2.62,-12 2.62,-12 2.62,-6 8.62,0 14.62,0 14.62,0 53.88,0 53.88,0 59.88,0 65.88,-6 65.88,-12 65.88,-12 65.88,-24 65.88,-24 65.88,-30 59.88,-36 53.88,-36"/>
<text xml:space="preserve" text-anchor="middle" x="34.25" y="-14.12" font-family="sans-serif" font-size="10.00">struct pid *</text>
</g>
<!-- g0&#45;&gt;leaf1 -->
<g id="edge5" class="edge">
<title>g0&#45;&gt;leaf1</title>
<path fill="none" stroke="#336699" stroke-width="1.2" d="M34.25,-96.68C34.25,-82.46 34.25,-62.15 34.25,-45.87"/>
<polygon fill="#336699" stroke="#336699" stroke-width="1.2" points="37.05,-46.15 34.25,-38.15 31.45,-46.15 37.05,-46.15"/>
<text xml:space="preserve" text-anchor="middle" x="65.38" y="-61.2" font-family="Times,serif" font-size="14.00">bit[11:6]=x</text>
</g>
<!-- leaf2 -->
<g id="node7" class="node">
<title>leaf2</title>
<path fill="#d4e8d4" stroke="black" d="M140.88,-36C140.88,-36 101.62,-36 101.62,-36 95.62,-36 89.62,-30 89.62,-24 89.62,-24 89.62,-12 89.62,-12 89.62,-6 95.62,0 101.62,0 101.62,0 140.88,0 140.88,0 146.88,0 152.88,-6 152.88,-12 152.88,-12 152.88,-24 152.88,-24 152.88,-30 146.88,-36 140.88,-36"/>
<text xml:space="preserve" text-anchor="middle" x="121.25" y="-14.12" font-family="sans-serif" font-size="10.00">struct pid *</text>
</g>
<!-- g1&#45;&gt;leaf2 -->
<g id="edge6" class="edge">
<title>g1&#45;&gt;leaf2</title>
<path fill="none" stroke="#336699" stroke-width="1.2" d="M121.25,-96.68C121.25,-82.46 121.25,-62.15 121.25,-45.87"/>
<polygon fill="#336699" stroke="#336699" stroke-width="1.2" points="124.05,-46.15 121.25,-38.15 118.45,-46.15 124.05,-46.15"/>
<text xml:space="preserve" text-anchor="middle" x="152.38" y="-61.2" font-family="Times,serif" font-size="14.00">bit[11:6]=y</text>
</g>
</g>
</svg>
