<?xml version="1.0" encoding="UTF-8" standalone="no"?>
<!DOCTYPE svg PUBLIC "-//W3C//DTD SVG 1.1//EN"
 "http://www.w3.org/Graphics/SVG/1.1/DTD/svg11.dtd">
<!-- Generated by graphviz version 14.1.5 (20260411.2331)
 -->
<!-- Title: getpid_chain Pages: 1 -->
<svg width="576pt" height="65pt"
 viewBox="0.00 0.00 576.00 65.00" xmlns="http://www.w3.org/2000/svg" xmlns:xlink="http://www.w3.org/1999/xlink">
<g id="graph0" class="graph" transform="scale(1 1) rotate(0) translate(14.4 50.4)">
<title>getpid_chain</title>
<!-- g1 -->
<g id="node1" class="node">
<title>g1</title>
<path fill="#aaccff" stroke="black" d="M146.4,-36C146.4,-36 12,-36 12,-36 6,-36 0,-30 0,-24 0,-24 0,-12 0,-12 0,-6 6,0 12,0 12,0 146.4,0 146.4,0 152.4,0 158.4,-6 158.4,-12 158.4,-12 158.4,-24 158.4,-24 158.4,-30 152.4,-36 146.4,-36"/>
<text xml:space="preserve" text-anchor="middle" x="79.2" y="-21.05" font-family="monospace" font-size="11.00">getpid()</text>
<text xml:space="preserve" text-anchor="middle" x="79.2" y="-7.55" font-family="monospace" font-size="11.00">(kullanıcı modu)</text>
</g>
<!-- g2 -->
<g id="node2" class="node">
<title>g2</title>
<path fill="#ddeeff" stroke="black" d="M340.8,-36C340.8,-36 206.4,-36 206.4,-36 200.4,-36 194.4,-30 194.4,-24 194.4,-24 194.4,-12 194.4,-12 194.4,-6 200.4,0 206.4,0 206.4,0 340.8,0 340.8,0 346.8,0 352.8,-6 352.8,-12 352.8,-12 352.8,-24 352.8,-24 352.8,-30 346.8,-36 340.8,-36"/>
<text xml:space="preserve" text-anchor="middle" x="273.6" y="-21.05" font-family="monospace" font-size="11.00">sys_getpid()</text>
<text xml:space="preserve" text-anchor="middle" x="273.6" y="-7.55" font-family="monospace" font-size="11.00">(çekirdek modu)</text>
</g>
<!-- g1&#45;&gt;g2 -->
<g id="edge1" class="edge">
<title>g1&#45;&gt;g2</title>
<path fill="none" stroke="#336699" stroke-width="1.5" d="M158.73,-18C166.73,-18 174.9,-18 183.01,-18"/>
<polygon fill="#336699" stroke="#336699" stroke-width="1.5" points="182.74,-21.15 191.74,-18 182.73,-14.85 182.74,-21.15"/>
</g>
<!-- g3 -->
<g id="node3" class="node">
<title>g3</title>
<path fill="#d4e8d4" stroke="black" d="M535.2,-36C535.2,-36 400.8,-36 400.8,-36 394.8,-36 388.8,-30 388.8,-24 388.8,-24 388.8,-12 388.8,-12 388.8,-6 394.8,0 400.8,0 400.8,0 535.2,0 535.2,0 541.2,0 547.2,-6 547.2,-12 547.2,-12 547.2,-24 547.2,-24 547.2,-30 541.2,-36 535.2,-36"/>
<text xml:space="preserve" text-anchor="middle" x="468" y="-21.05" font-family="monospace" font-size="11.00">current&#45;&gt;tgid</text>
<text xml:space="preserve" text-anchor="middle" x="468" y="-7.55" font-family="monospace" font-size="11.00">(task_struct)</text>
</g>
<!-- g2&#45;&gt;g3 -->
<g id="edge2" class="edge">
<title>g2&#45;&gt;g3</title>
<path fill="none" stroke="#336699" stroke-width="1.5" d="M353.13,-18C361.13,-18 369.3,-18 377.41,-18"/>
<polygon fill="#336699" stroke="#336699" stroke-width="1.5" points="377.14,-21.15 386.14,-18 377.13,-14.85 377.14,-21.15"/>
</g>
</g>
</svg>
