<?xml version="1.0" encoding="UTF-8" standalone="no"?>
<!DOCTYPE svg PUBLIC "-//W3C//DTD SVG 1.1//EN"
 "http://www.w3.org/Graphics/SVG/1.1/DTD/svg11.dtd">
<!-- Generated by graphviz version 14.1.5 (20260411.2331)
 -->
<!-- Title: radix_tree Pages: 1 -->
<svg width="619pt" height="423pt"
 viewBox="0.00 0.00 619.00 423.00" xmlns="http://www.w3.org/2000/svg" xmlns:xlink="http://www.w3.org/1999/xlink">
<g id="graph0" class="graph" transform="scale(1 1) rotate(0) translate(21.6 401.4)">
<title>radix_tree</title>
<!-- root -->
<g id="node1" class="node">
<title>root</title>
<path fill="#aaccff" stroke="black" d="M296.2,-379.8C296.2,-379.8 248.2,-379.8 248.2,-379.8 242.2,-379.8 236.2,-373.8 236.2,-367.8 236.2,-367.8 236.2,-355.8 236.2,-355.8 236.2,-349.8 242.2,-343.8 248.2,-343.8 248.2,-343.8 296.2,-343.8 296.2,-343.8 302.2,-343.8 308.2,-349.8 308.2,-355.8 308.2,-355.8 308.2,-367.8 308.2,-367.8 308.2,-373.8 302.2,-379.8 296.2,-379.8"/>
<text xml:space="preserve" text-anchor="middle" x="272.2" y="-357.93" font-family="sans-serif" font-size="10.00">Kök</text>
</g>
<!-- L0 -->
<g id="node2" class="node">
<title>L0</title>
<ellipse fill="#ddeeff" stroke="black" cx="203.2" cy="-276.75" rx="19.8" ry="19.8"/>
<text xml:space="preserve" text-anchor="middle" x="203.2" y="-273.62" font-family="monospace" font-size="10.00">0</text>
</g>
<!-- root&#45;&gt;L0 -->
<g id="edge1" class="edge">
<title>root&#45;&gt;L0</title>
<path fill="none" stroke="black" stroke-width="1.2" d="M257.9,-343.59C247.18,-330.69 232.45,-312.95 220.97,-299.14"/>
<polygon fill="black" stroke="black" stroke-width="1.2" points="223.15,-297.92 216.79,-294.11 219.38,-301.06 223.15,-297.92"/>
<text xml:space="preserve" text-anchor="middle" x="244.46" y="-317.25" font-family="monospace" font-size="9.00">0</text>
</g>
<!-- L1 -->
<g id="node3" class="node">
<title>L1</title>
<ellipse fill="#ddeeff" stroke="black" cx="367.2" cy="-276.75" rx="19.8" ry="19.8"/>
<text xml:space="preserve" text-anchor="middle" x="367.2" y="-273.62" font-family="monospace" font-size="10.00">1</text>
</g>
<!-- root&#45;&gt;L1 -->
<g id="edge2" class="edge">
<title>root&#45;&gt;L1</title>
<path fill="none" stroke="black" stroke-width="1.2" d="M291.88,-343.59C307.67,-329.79 329.79,-310.45 345.97,-296.31"/>
<polygon fill="black" stroke="black" stroke-width="1.2" points="347.48,-298.24 351.14,-291.79 344.26,-294.55 347.48,-298.24"/>
<text xml:space="preserve" text-anchor="middle" x="325.17" y="-317.25" font-family="monospace" font-size="9.00">1</text>
</g>
<!-- L00 -->
<g id="node4" class="node">
<title>L00</title>
<ellipse fill="#ddeeff" stroke="black" cx="100.2" cy="-189.9" rx="19.8" ry="19.8"/>
<text xml:space="preserve" text-anchor="middle" x="100.2" y="-186.77" font-family="monospace" font-size="10.00">0</text>
</g>
<!-- L0&#45;&gt;L00 -->
<g id="edge3" class="edge">
<title>L0&#45;&gt;L00</title>
<path fill="none" stroke="black" stroke-width="1.2" d="M188.44,-263.59C171.03,-249.25 141.91,-225.26 121.92,-208.79"/>
<polygon fill="black" stroke="black" stroke-width="1.2" points="123.63,-207.02 116.67,-204.47 120.51,-210.81 123.63,-207.02"/>
<text xml:space="preserve" text-anchor="middle" x="160.49" y="-230.4" font-family="monospace" font-size="9.00">0</text>
</g>
<!-- L01 -->
<g id="node5" class="node">
<title>L01</title>
<ellipse fill="#ddeeff" stroke="black" cx="203.2" cy="-189.9" rx="19.8" ry="19.8"/>
<text xml:space="preserve" text-anchor="middle" x="203.2" y="-186.77" font-family="monospace" font-size="10.00">1</text>
</g>
<!-- L0&#45;&gt;L01 -->
<g id="edge4" class="edge">
<title>L0&#45;&gt;L01</title>
<path fill="none" stroke="black" stroke-width="1.2" d="M203.2,-256.5C203.2,-245.32 203.2,-231.05 203.2,-218.68"/>
<polygon fill="black" stroke="black" stroke-width="1.2" points="205.65,-218.89 203.2,-211.89 200.75,-218.89 205.65,-218.89"/>
<text xml:space="preserve" text-anchor="middle" x="205.82" y="-230.4" font-family="monospace" font-size="9.00">1</text>
</g>
<!-- L10 -->
<g id="node6" class="node">
<title>L10</title>
<ellipse fill="#ddeeff" stroke="black" cx="367.2" cy="-189.9" rx="19.8" ry="19.8"/>
<text xml:space="preserve" text-anchor="middle" x="367.2" y="-186.77" font-family="monospace" font-size="10.00">0</text>
</g>
<!-- L1&#45;&gt;L10 -->
<g id="edge5" class="edge">
<title>L1&#45;&gt;L10</title>
<path fill="none" stroke="black" stroke-width="1.2" d="M367.2,-256.5C367.2,-245.32 367.2,-231.05 367.2,-218.68"/>
<polygon fill="black" stroke="black" stroke-width="1.2" points="369.65,-218.89 367.2,-211.89 364.75,-218.89 369.65,-218.89"/>
<text xml:space="preserve" text-anchor="middle" x="369.82" y="-230.4" font-family="monospace" font-size="9.00">0</text>
</g>
<!-- L11 -->
<g id="node7" class="node">
<title>L11</title>
<ellipse fill="#ddeeff" stroke="black" cx="434.2" cy="-189.9" rx="19.8" ry="19.8"/>
<text xml:space="preserve" text-anchor="middle" x="434.2" y="-186.77" font-family="monospace" font-size="10.00">1</text>
</g>
<!-- L1&#45;&gt;L11 -->
<g id="edge6" class="edge">
<title>L1&#45;&gt;L11</title>
<path fill="none" stroke="black" stroke-width="1.2" d="M379.18,-260.58C389.75,-247.19 405.29,-227.51 417.16,-212.48"/>
<polygon fill="black" stroke="black" stroke-width="1.2" points="418.78,-214.38 421.2,-207.36 414.94,-211.34 418.78,-214.38"/>
<text xml:space="preserve" text-anchor="middle" x="407.34" y="-230.4" font-family="monospace" font-size="9.00">1</text>
</g>
<!-- L000 -->
<g id="node8" class="node">
<title>L000</title>
<ellipse fill="#ddeeff" stroke="black" cx="30.2" cy="-103.05" rx="19.8" ry="19.8"/>
<text xml:space="preserve" text-anchor="middle" x="30.2" y="-99.92" font-family="monospace" font-size="10.00">0</text>
</g>
<!-- L00&#45;&gt;L000 -->
<g id="edge7" class="edge">
<title>L00&#45;&gt;L000</title>
<path fill="none" stroke="black" stroke-width="1.2" d="M88.01,-174.12C76.93,-160.7 60.46,-140.73 47.93,-125.55"/>
<polygon fill="black" stroke="black" stroke-width="1.2" points="49.99,-124.19 43.64,-120.35 46.21,-127.3 49.99,-124.19"/>
<text xml:space="preserve" text-anchor="middle" x="72.02" y="-143.55" font-family="monospace" font-size="9.00">0</text>
</g>
<!-- L001 -->
<g id="node9" class="node">
<title>L001</title>
<ellipse fill="#ddeeff" stroke="black" cx="100.2" cy="-103.05" rx="19.8" ry="19.8"/>
<text xml:space="preserve" text-anchor="middle" x="100.2" y="-99.92" font-family="monospace" font-size="10.00">1</text>
</g>
<!-- L00&#45;&gt;L001 -->
<g id="edge8" class="edge">
<title>L00&#45;&gt;L001</title>
<path fill="none" stroke="black" stroke-width="1.2" d="M100.2,-169.65C100.2,-158.47 100.2,-144.2 100.2,-131.83"/>
<polygon fill="black" stroke="black" stroke-width="1.2" points="102.65,-132.04 100.2,-125.04 97.75,-132.04 102.65,-132.04"/>
<text xml:space="preserve" text-anchor="middle" x="102.82" y="-143.55" font-family="monospace" font-size="9.00">1</text>
</g>
<!-- L010 -->
<g id="node10" class="node">
<title>L010</title>
<ellipse fill="#ddeeff" stroke="black" cx="178.2" cy="-103.05" rx="19.8" ry="19.8"/>
<text xml:space="preserve" text-anchor="middle" x="178.2" y="-99.92" font-family="monospace" font-size="10.00">0</text>
</g>
<!-- L01&#45;&gt;L010 -->
<g id="edge9" class="edge">
<title>L01&#45;&gt;L010</title>
<path fill="none" stroke="black" stroke-width="1.2" d="M197.78,-170.49C194.34,-158.81 189.83,-143.52 186.01,-130.55"/>
<polygon fill="black" stroke="black" stroke-width="1.2" points="188.46,-130.19 184.13,-124.17 183.76,-131.57 188.46,-130.19"/>
<text xml:space="preserve" text-anchor="middle" x="194.82" y="-143.55" font-family="monospace" font-size="9.00">0</text>
</g>
<!-- L011 -->
<g id="node11" class="node">
<title>L011</title>
<ellipse fill="#ddeeff" stroke="black" cx="248.2" cy="-103.05" rx="19.8" ry="19.8"/>
<text xml:space="preserve" text-anchor="middle" x="248.2" y="-99.92" font-family="monospace" font-size="10.00">1</text>
</g>
<!-- L01&#45;&gt;L011 -->
<g id="edge10" class="edge">
<title>L01&#45;&gt;L011</title>
<path fill="none" stroke="black" stroke-width="1.2" d="M212.09,-172.14C218.64,-159.78 227.66,-142.78 235.05,-128.85"/>
<polygon fill="black" stroke="black" stroke-width="1.2" points="237.21,-130.01 238.32,-122.67 232.88,-127.71 237.21,-130.01"/>
<text xml:space="preserve" text-anchor="middle" x="231.02" y="-143.55" font-family="monospace" font-size="9.00">1</text>
</g>
<!-- L100 -->
<g id="node12" class="node">
<title>L100</title>
<ellipse fill="#ddeeff" stroke="black" cx="330.2" cy="-103.05" rx="19.8" ry="19.8"/>
<text xml:space="preserve" text-anchor="middle" x="330.2" y="-99.92" font-family="monospace" font-size="10.00">0</text>
</g>
<!-- L10&#45;&gt;L100 -->
<g id="edge11" class="edge">
<title>L10&#45;&gt;L100</title>
<path fill="none" stroke="black" stroke-width="1.2" d="M359.53,-171.32C354.27,-159.26 347.21,-143.06 341.34,-129.59"/>
<polygon fill="black" stroke="black" stroke-width="1.2" points="343.63,-128.71 338.58,-123.27 339.13,-130.67 343.63,-128.71"/>
<text xml:space="preserve" text-anchor="middle" x="353.54" y="-143.55" font-family="monospace" font-size="9.00">0</text>
</g>
<!-- L101 -->
<g id="node13" class="node">
<title>L101</title>
<ellipse fill="#ddeeff" stroke="black" cx="400.2" cy="-103.05" rx="19.8" ry="19.8"/>
<text xml:space="preserve" text-anchor="middle" x="400.2" y="-99.92" font-family="monospace" font-size="10.00">1</text>
</g>
<!-- L10&#45;&gt;L101 -->
<g id="edge12" class="edge">
<title>L10&#45;&gt;L101</title>
<path fill="none" stroke="black" stroke-width="1.2" d="M374.2,-170.91C378.84,-158.98 384.99,-143.15 390.15,-129.89"/>
<polygon fill="black" stroke="black" stroke-width="1.2" points="392.3,-131.12 392.55,-123.71 387.73,-129.35 392.3,-131.12"/>
<text xml:space="preserve" text-anchor="middle" x="388.3" y="-143.55" font-family="monospace" font-size="9.00">1</text>
</g>
<!-- L110 -->
<g id="node14" class="node">
<title>L110</title>
<ellipse fill="#ddeeff" stroke="black" cx="516.2" cy="-103.05" rx="19.8" ry="19.8"/>
<text xml:space="preserve" text-anchor="middle" x="516.2" y="-99.92" font-family="monospace" font-size="10.00">0</text>
</g>
<!-- L11&#45;&gt;L110 -->
<g id="edge13" class="edge">
<title>L11&#45;&gt;L110</title>
<path fill="none" stroke="black" stroke-width="1.2" d="M447.74,-174.89C461.03,-161.13 481.46,-140 496.54,-124.39"/>
<polygon fill="black" stroke="black" stroke-width="1.2" points="498.27,-126.12 501.38,-119.39 494.75,-122.72 498.27,-126.12"/>
<text xml:space="preserve" text-anchor="middle" x="482.73" y="-143.55" font-family="monospace" font-size="9.00">0</text>
</g>
<!-- V0000 -->
<g id="node15" class="node">
<title>V0000</title>
<path fill="#d4e8d4" stroke="black" d="M38.4,-36C38.4,-36 12,-36 12,-36 6,-36 0,-30 0,-24 0,-24 0,-12 0,-12 0,-6 6,0 12,0 12,0 38.4,0 38.4,0 44.4,0 50.4,-6 50.4,-12 50.4,-12 50.4,-24 50.4,-24 50.4,-30 44.4,-36 38.4,-36"/>
<text xml:space="preserve" text-anchor="middle" x="25.2" y="-14.88" font-family="monospace" font-size="10.00">0000</text>
</g>
<!-- L000&#45;&gt;V0000 -->
<g id="edge14" class="edge">
<title>L000&#45;&gt;V0000</title>
<path fill="none" stroke="black" stroke-width="1.2" d="M29.04,-82.79C28.36,-71.53 27.5,-57.17 26.76,-44.93"/>
<polygon fill="black" stroke="black" stroke-width="1.2" points="29.23,-45.11 26.36,-38.27 24.34,-45.41 29.23,-45.11"/>
<text xml:space="preserve" text-anchor="middle" x="30.47" y="-56.7" font-family="monospace" font-size="9.00">0</text>
</g>
<!-- V0010 -->
<g id="node16" class="node">
<title>V0010</title>
<path fill="#d4e8d4" stroke="black" d="M113.4,-36C113.4,-36 87,-36 87,-36 81,-36 75,-30 75,-24 75,-24 75,-12 75,-12 75,-6 81,0 87,0 87,0 113.4,0 113.4,0 119.4,0 125.4,-6 125.4,-12 125.4,-12 125.4,-24 125.4,-24 125.4,-30 119.4,-36 113.4,-36"/>
<text xml:space="preserve" text-anchor="middle" x="100.2" y="-14.88" font-family="monospace" font-size="10.00">0010</text>
</g>
<!-- L001&#45;&gt;V0010 -->
<g id="edge15" class="edge">
<title>L001&#45;&gt;V0010</title>
<path fill="none" stroke="black" stroke-width="1.2" d="M100.2,-82.79C100.2,-71.53 100.2,-57.17 100.2,-44.93"/>
<polygon fill="black" stroke="black" stroke-width="1.2" points="102.65,-45.28 100.2,-38.28 97.75,-45.28 102.65,-45.28"/>
<text xml:space="preserve" text-anchor="middle" x="102.82" y="-56.7" font-family="monospace" font-size="9.00">0</text>
</g>
<!-- V0101 -->
<g id="node17" class="node">
<title>V0101</title>
<path fill="#d4e8d4" stroke="black" d="M188.4,-36C188.4,-36 162,-36 162,-36 156,-36 150,-30 150,-24 150,-24 150,-12 150,-12 150,-6 156,0 162,0 162,0 188.4,0 188.4,0 194.4,0 200.4,-6 200.4,-12 200.4,-12 200.4,-24 200.4,-24 200.4,-30 194.4,-36 188.4,-36"/>
<text xml:space="preserve" text-anchor="middle" x="175.2" y="-14.88" font-family="monospace" font-size="10.00">0101</text>
</g>
<!-- L010&#45;&gt;V0101 -->
<g id="edge16" class="edge">
<title>L010&#45;&gt;V0101</title>
<path fill="none" stroke="black" stroke-width="1.2" d="M177.5,-82.79C177.1,-71.53 176.58,-57.17 176.14,-44.93"/>
<polygon fill="black" stroke="black" stroke-width="1.2" points="178.6,-45.18 175.9,-38.28 173.7,-45.36 178.6,-45.18"/>
<text xml:space="preserve" text-anchor="middle" x="179.41" y="-56.7" font-family="monospace" font-size="9.00">1</text>
</g>
<!-- V0111 -->
<g id="node18" class="node">
<title>V0111</title>
<path fill="#d4e8d4" stroke="black" d="M263.4,-36C263.4,-36 237,-36 237,-36 231,-36 225,-30 225,-24 225,-24 225,-12 225,-12 225,-6 231,0 237,0 237,0 263.4,0 263.4,0 269.4,0 275.4,-6 275.4,-12 275.4,-12 275.4,-24 275.4,-24 275.4,-30 269.4,-36 263.4,-36"/>
<text xml:space="preserve" text-anchor="middle" x="250.2" y="-14.88" font-family="monospace" font-size="10.00">0111</text>
</g>
<!-- L011&#45;&gt;V0111 -->
<g id="edge17" class="edge">
<title>L011&#45;&gt;V0111</title>
<path fill="none" stroke="black" stroke-width="1.2" d="M248.66,-82.79C248.94,-71.53 249.28,-57.17 249.58,-44.93"/>
<polygon fill="black" stroke="black" stroke-width="1.2" points="252.02,-45.33 249.74,-38.28 247.12,-45.22 252.02,-45.33"/>
<text xml:space="preserve" text-anchor="middle" x="251.94" y="-56.7" font-family="monospace" font-size="9.00">1</text>
</g>
<!-- V1000 -->
<g id="node19" class="node">
<title>V1000</title>
<path fill="#d4e8d4" stroke="black" d="M338.4,-36C338.4,-36 312,-36 312,-36 306,-36 300,-30 300,-24 300,-24 300,-12 300,-12 300,-6 306,0 312,0 312,0 338.4,0 338.4,0 344.4,0 350.4,-6 350.4,-12 350.4,-12 350.4,-24 350.4,-24 350.4,-30 344.4,-36 338.4,-36"/>
<text xml:space="preserve" text-anchor="middle" x="325.2" y="-14.88" font-family="monospace" font-size="10.00">1000</text>
</g>
<!-- L100&#45;&gt;V1000 -->
<g id="edge18" class="edge">
<title>L100&#45;&gt;V1000</title>
<path fill="none" stroke="black" stroke-width="1.2" d="M329.04,-82.79C328.36,-71.53 327.5,-57.17 326.76,-44.93"/>
<polygon fill="black" stroke="black" stroke-width="1.2" points="329.23,-45.11 326.36,-38.27 324.34,-45.41 329.23,-45.11"/>
<text xml:space="preserve" text-anchor="middle" x="330.47" y="-56.7" font-family="monospace" font-size="9.00">0</text>
</g>
<!-- V1010 -->
<g id="node20" class="node">
<title>V1010</title>
<path fill="#d4e8d4" stroke="black" d="M413.4,-36C413.4,-36 387,-36 387,-36 381,-36 375,-30 375,-24 375,-24 375,-12 375,-12 375,-6 381,0 387,0 387,0 413.4,0 413.4,0 419.4,0 425.4,-6 425.4,-12 425.4,-12 425.4,-24 425.4,-24 425.4,-30 419.4,-36 413.4,-36"/>
<text xml:space="preserve" text-anchor="middle" x="400.2" y="-14.88" font-family="monospace" font-size="10.00">1010</text>
</g>
<!-- L101&#45;&gt;V1010 -->
<g id="edge19" class="edge">
<title>L101&#45;&gt;V1010</title>
<path fill="none" stroke="black" stroke-width="1.2" d="M400.2,-82.79C400.2,-71.53 400.2,-57.17 400.2,-44.93"/>
<polygon fill="black" stroke="black" stroke-width="1.2" points="402.65,-45.28 400.2,-38.28 397.75,-45.28 402.65,-45.28"/>
<text xml:space="preserve" text-anchor="middle" x="402.82" y="-56.7" font-family="monospace" font-size="9.00">0</text>
</g>
<!-- V1011 -->
<g id="node21" class="node">
<title>V1011</title>
<path fill="#d4e8d4" stroke="black" d="M488.4,-36C488.4,-36 462,-36 462,-36 456,-36 450,-30 450,-24 450,-24 450,-12 450,-12 450,-6 456,0 462,0 462,0 488.4,0 488.4,0 494.4,0 500.4,-6 500.4,-12 500.4,-12 500.4,-24 500.4,-24 500.4,-30 494.4,-36 488.4,-36"/>
<text xml:space="preserve" text-anchor="middle" x="475.2" y="-14.88" font-family="monospace" font-size="10.00">1011</text>
</g>
<!-- L101&#45;&gt;V1011 -->
<g id="edge20" class="edge">
<title>L101&#45;&gt;V1011</title>
<path fill="none" stroke="black" stroke-width="1.2" d="M413.26,-87.58C424.4,-75.25 440.63,-57.28 453.68,-42.83"/>
<polygon fill="black" stroke="black" stroke-width="1.2" points="455.34,-44.65 458.21,-37.81 451.7,-41.37 455.34,-44.65"/>
<text xml:space="preserve" text-anchor="middle" x="444.82" y="-56.7" font-family="monospace" font-size="9.00">1</text>
</g>
<!-- V1100 -->
<g id="node22" class="node">
<title>V1100</title>
<path fill="#d4e8d4" stroke="black" d="M563.4,-36C563.4,-36 537,-36 537,-36 531,-36 525,-30 525,-24 525,-24 525,-12 525,-12 525,-6 531,0 537,0 537,0 563.4,0 563.4,0 569.4,0 575.4,-6 575.4,-12 575.4,-12 575.4,-24 575.4,-24 575.4,-30 569.4,-36 563.4,-36"/>
<text xml:space="preserve" text-anchor="middle" x="550.2" y="-14.88" font-family="monospace" font-size="10.00">1100</text>
</g>
<!-- L110&#45;&gt;V1100 -->
<g id="edge21" class="edge">
<title>L110&#45;&gt;V1100</title>
<path fill="none" stroke="black" stroke-width="1.2" d="M523.41,-84.44C528.18,-72.8 534.5,-57.36 539.8,-44.4"/>
<polygon fill="black" stroke="black" stroke-width="1.2" points="542.04,-45.39 542.43,-37.98 537.51,-43.53 542.04,-45.39"/>
<text xml:space="preserve" text-anchor="middle" x="537.86" y="-56.7" font-family="monospace" font-size="9.00">0</text>
</g>
</g>
</svg>
