<?xml version="1.0" encoding="UTF-8" standalone="no"?>
<!DOCTYPE svg PUBLIC "-//W3C//DTD SVG 1.1//EN"
 "http://www.w3.org/Graphics/SVG/1.1/DTD/svg11.dtd">
<!-- Generated by graphviz version 14.1.5 (20260411.2331)
 -->
<!-- Title: modern_pid_chain Pages: 1 -->
<svg width="1239pt" height="154pt"
 viewBox="0.00 0.00 1239.00 154.00" xmlns="http://www.w3.org/2000/svg" xmlns:xlink="http://www.w3.org/1999/xlink">
<g id="graph0" class="graph" transform="scale(1 1) rotate(0) translate(21.6 131.97)">
<title>modern_pid_chain</title>
<!-- fv -->
<g id="node1" class="node">
<title>fv</title>
<path fill="#aaccff" stroke="black" d="M160.8,-62.38C160.8,-62.38 12,-62.38 12,-62.38 6,-62.38 0,-56.38 0,-50.38 0,-50.38 0,-38.38 0,-38.38 0,-32.38 6,-26.38 12,-26.38 12,-26.38 160.8,-26.38 160.8,-26.38 166.8,-26.38 172.8,-32.38 172.8,-38.38 172.8,-38.38 172.8,-50.38 172.8,-50.38 172.8,-56.38 166.8,-62.38 160.8,-62.38"/>
<text xml:space="preserve" text-anchor="middle" x="86.4" y="-41.25" font-family="monospace" font-size="10.00">find_vpid(nr)</text>
</g>
<!-- fpn -->
<g id="node2" class="node">
<title>fpn</title>
<path fill="#ddeeff" stroke="black" d="M482.1,-110.38C482.1,-110.38 333.3,-110.38 333.3,-110.38 327.3,-110.38 321.3,-104.38 321.3,-98.38 321.3,-98.38 321.3,-86.38 321.3,-86.38 321.3,-80.38 327.3,-74.38 333.3,-74.38 333.3,-74.38 482.1,-74.38 482.1,-74.38 488.1,-74.38 494.1,-80.38 494.1,-86.38 494.1,-86.38 494.1,-98.38 494.1,-98.38 494.1,-104.38 488.1,-110.38 482.1,-110.38"/>
<text xml:space="preserve" text-anchor="middle" x="407.7" y="-89.25" font-family="monospace" font-size="10.00">find_pid_ns(nr, ns)</text>
</g>
<!-- fv&#45;&gt;fpn -->
<g id="edge1" class="edge">
<title>fv&#45;&gt;fpn</title>
<path fill="none" stroke="#336699" stroke-width="1.5" d="M172.97,-57.24C215.2,-63.59 266.32,-71.27 309.97,-77.83"/>
<polygon fill="#336699" stroke="#336699" stroke-width="1.5" points="309.28,-80.92 318.65,-79.14 310.22,-74.69 309.28,-80.92"/>
<text xml:space="preserve" text-anchor="middle" x="247.05" y="-78.68" font-family="Times,serif" font-size="14.00">task_active_pid_ns()</text>
</g>
<!-- sub1 -->
<g id="node6" class="node">
<title>sub1</title>
<polygon fill="#fffacd" stroke="black" points="488.1,-56.75 321.3,-56.75 321.3,0 494.1,0 494.1,-50.75 488.1,-56.75"/>
<polyline fill="none" stroke="black" points="488.1,-56.75 488.1,-50.75"/>
<polyline fill="none" stroke="black" points="494.1,-50.75 488.1,-50.75"/>
<text xml:space="preserve" text-anchor="middle" x="407.7" y="-45.15" font-family="monospace" font-size="8.00">task_active_pid_ns</text>
<text xml:space="preserve" text-anchor="middle" x="407.7" y="-35.4" font-family="monospace" font-size="8.00">──────────────</text>
<text xml:space="preserve" text-anchor="middle" x="407.7" y="-25.65" font-family="monospace" font-size="8.00">ns_of_pid(task_pid(tsk))</text>
<text xml:space="preserve" text-anchor="middle" x="407.7" y="-15.9" font-family="monospace" font-size="8.00">= tsk&#45;&gt;thread_pid&#45;&gt;numbers</text>
<text xml:space="preserve" text-anchor="middle" x="407.7" y="-6.15" font-family="monospace" font-size="8.00"> &#160;&#160;&#160;[pid&#45;&gt;level].ns</text>
</g>
<!-- fv&#45;&gt;sub1 -->
<g id="edge5" class="edge">
<title>fv&#45;&gt;sub1</title>
<path fill="none" stroke="#999999" stroke-width="1.5" stroke-dasharray="5,2" d="M172.97,-40.09C218.78,-37.79 275.05,-34.97 320.9,-32.67"/>
</g>
<!-- idr -->
<g id="node3" class="node">
<title>idr</title>
<path fill="#ddeeff" stroke="black" d="M691.9,-110.38C691.9,-110.38 543.1,-110.38 543.1,-110.38 537.1,-110.38 531.1,-104.38 531.1,-98.38 531.1,-98.38 531.1,-86.38 531.1,-86.38 531.1,-80.38 537.1,-74.38 543.1,-74.38 543.1,-74.38 691.9,-74.38 691.9,-74.38 697.9,-74.38 703.9,-80.38 703.9,-86.38 703.9,-86.38 703.9,-98.38 703.9,-98.38 703.9,-104.38 697.9,-110.38 691.9,-110.38"/>
<text xml:space="preserve" text-anchor="middle" x="617.5" y="-89.25" font-family="monospace" font-size="10.00">idr_find(&amp;ns&#45;&gt;idr, nr)</text>
</g>
<!-- fpn&#45;&gt;idr -->
<g id="edge2" class="edge">
<title>fpn&#45;&gt;idr</title>
<path fill="none" stroke="#336699" stroke-width="1.5" d="M494.42,-92.38C502.74,-92.38 511.22,-92.38 519.63,-92.38"/>
<polygon fill="#336699" stroke="#336699" stroke-width="1.5" points="519.37,-95.53 528.37,-92.38 519.37,-89.23 519.37,-95.53"/>
</g>
<!-- xa -->
<g id="node4" class="node">
<title>xa</title>
<path fill="#ddeeff" stroke="black" d="M974.2,-110.38C974.2,-110.38 825.4,-110.38 825.4,-110.38 819.4,-110.38 813.4,-104.38 813.4,-98.38 813.4,-98.38 813.4,-86.38 813.4,-86.38 813.4,-80.38 819.4,-74.38 825.4,-74.38 825.4,-74.38 974.2,-74.38 974.2,-74.38 980.2,-74.38 986.2,-80.38 986.2,-86.38 986.2,-86.38 986.2,-98.38 986.2,-98.38 986.2,-104.38 980.2,-110.38 974.2,-110.38"/>
<text xml:space="preserve" text-anchor="middle" x="899.8" y="-89.25" font-family="monospace" font-size="10.00">xa_load(...)</text>
</g>
<!-- idr&#45;&gt;xa -->
<g id="edge3" class="edge">
<title>idr&#45;&gt;xa</title>
<path fill="none" stroke="#336699" stroke-width="1.5" d="M704.12,-92.38C735.09,-92.38 770.26,-92.38 802.11,-92.38"/>
<polygon fill="#336699" stroke="#336699" stroke-width="1.5" points="801.95,-95.53 810.95,-92.38 801.95,-89.23 801.95,-95.53"/>
<text xml:space="preserve" text-anchor="middle" x="758.65" y="-95.58" font-family="Times,serif" font-size="14.00">XArray ağacı</text>
</g>
<!-- res -->
<g id="node5" class="node">
<title>res</title>
<path fill="#d4e8d4" stroke="black" d="M1184,-110.38C1184,-110.38 1035.2,-110.38 1035.2,-110.38 1029.2,-110.38 1023.2,-104.38 1023.2,-98.38 1023.2,-98.38 1023.2,-86.38 1023.2,-86.38 1023.2,-80.38 1029.2,-74.38 1035.2,-74.38 1035.2,-74.38 1184,-74.38 1184,-74.38 1190,-74.38 1196,-80.38 1196,-86.38 1196,-86.38 1196,-98.38 1196,-98.38 1196,-104.38 1190,-110.38 1184,-110.38"/>
<text xml:space="preserve" text-anchor="middle" x="1109.6" y="-89.25" font-family="monospace" font-size="10.00">struct pid *</text>
</g>
<!-- xa&#45;&gt;res -->
<g id="edge4" class="edge">
<title>xa&#45;&gt;res</title>
<path fill="none" stroke="#336699" stroke-width="1.5" d="M986.52,-92.38C994.84,-92.38 1003.32,-92.38 1011.73,-92.38"/>
<polygon fill="#336699" stroke="#336699" stroke-width="1.5" points="1011.47,-95.53 1020.47,-92.38 1011.47,-89.23 1011.47,-95.53"/>
</g>
</g>
</svg>
