<?xml version="1.0" encoding="UTF-8" standalone="no"?>
<!DOCTYPE svg PUBLIC "-//W3C//DTD SVG 1.1//EN"
 "http://www.w3.org/Graphics/SVG/1.1/DTD/svg11.dtd">
<!-- Generated by graphviz version 14.1.5 (20260411.2331)
 -->
<!-- Title: pid_lookup_26 Pages: 1 -->
<svg width="948pt" height="79pt"
 viewBox="0.00 0.00 948.00 79.00" xmlns="http://www.w3.org/2000/svg" xmlns:xlink="http://www.w3.org/1999/xlink">
<g id="graph0" class="graph" transform="scale(1 1) rotate(0) translate(21.6 57.6)">
<title>pid_lookup_26</title>
<!-- pid_val -->
<g id="node1" class="node">
<title>pid_val</title>
<path fill="#aaccff" stroke="black" d="M132,-36C132,-36 12,-36 12,-36 6,-36 0,-30 0,-24 0,-24 0,-12 0,-12 0,-6 6,0 12,0 12,0 132,0 132,0 138,0 144,-6 144,-12 144,-12 144,-24 144,-24 144,-30 138,-36 132,-36"/>
<text xml:space="preserve" text-anchor="middle" x="72" y="-14.3" font-family="monospace" font-size="11.00">pid değeri</text>
</g>
<!-- hash_tbl -->
<g id="node2" class="node">
<title>hash_tbl</title>
<path fill="#ddeeff" stroke="black" d="M393.75,-36C393.75,-36 273.75,-36 273.75,-36 267.75,-36 261.75,-30 261.75,-24 261.75,-24 261.75,-12 261.75,-12 261.75,-6 267.75,0 273.75,0 273.75,0 393.75,0 393.75,0 399.75,0 405.75,-6 405.75,-12 405.75,-12 405.75,-24 405.75,-24 405.75,-30 399.75,-36 393.75,-36"/>
<text xml:space="preserve" text-anchor="middle" x="333.75" y="-21.05" font-family="monospace" font-size="11.00">Hash Tablosu</text>
<text xml:space="preserve" text-anchor="middle" x="333.75" y="-7.55" font-family="monospace" font-size="11.00">(pid_hash[])</text>
</g>
<!-- pid_val&#45;&gt;hash_tbl -->
<g id="edge1" class="edge">
<title>pid_val&#45;&gt;hash_tbl</title>
<path fill="none" stroke="#336699" stroke-width="1.5" d="M144.32,-18C177.25,-18 216.54,-18 250.69,-18"/>
<polygon fill="#336699" stroke="#336699" stroke-width="1.5" points="250.32,-21.15 259.32,-18 250.32,-14.85 250.32,-21.15"/>
<text xml:space="preserve" text-anchor="middle" x="202.88" y="-21.2" font-family="Times,serif" font-size="14.00">hash_func(pid)</text>
</g>
<!-- pid_obj -->
<g id="node3" class="node">
<title>pid_obj</title>
<path fill="#ffddaa" stroke="black" d="M642,-36C642,-36 522,-36 522,-36 516,-36 510,-30 510,-24 510,-24 510,-12 510,-12 510,-6 516,0 522,0 522,0 642,0 642,0 648,0 654,-6 654,-12 654,-12 654,-24 654,-24 654,-30 648,-36 642,-36"/>
<text xml:space="preserve" text-anchor="middle" x="582" y="-21.05" font-family="monospace" font-size="11.00">struct pid</text>
<text xml:space="preserve" text-anchor="middle" x="582" y="-7.55" font-family="monospace" font-size="11.00">nesnesi</text>
</g>
<!-- hash_tbl&#45;&gt;pid_obj -->
<g id="edge2" class="edge">
<title>hash_tbl&#45;&gt;pid_obj</title>
<path fill="none" stroke="#336699" stroke-width="1.5" d="M405.98,-18C434.95,-18 468.61,-18 498.63,-18"/>
<polygon fill="#336699" stroke="#336699" stroke-width="1.5" points="498.24,-21.15 507.24,-18 498.24,-14.85 498.24,-21.15"/>
<text xml:space="preserve" text-anchor="middle" x="457.88" y="-21.2" font-family="Times,serif" font-size="14.00">zincir arama</text>
</g>
<!-- task_str -->
<g id="node4" class="node">
<title>task_str</title>
<path fill="#d4e8d4" stroke="black" d="M893.25,-36C893.25,-36 773.25,-36 773.25,-36 767.25,-36 761.25,-30 761.25,-24 761.25,-24 761.25,-12 761.25,-12 761.25,-6 767.25,0 773.25,0 773.25,0 893.25,0 893.25,0 899.25,0 905.25,-6 905.25,-12 905.25,-12 905.25,-24 905.25,-24 905.25,-30 899.25,-36 893.25,-36"/>
<text xml:space="preserve" text-anchor="middle" x="833.25" y="-21.05" font-family="monospace" font-size="11.00">task_struct</text>
<text xml:space="preserve" text-anchor="middle" x="833.25" y="-7.55" font-family="monospace" font-size="11.00">nesnesi</text>
</g>
<!-- pid_obj&#45;&gt;task_str -->
<g id="edge3" class="edge">
<title>pid_obj&#45;&gt;task_str</title>
<path fill="none" stroke="#336699" stroke-width="1.5" d="M654.43,-18C684.15,-18 718.84,-18 749.65,-18"/>
<polygon fill="#336699" stroke="#336699" stroke-width="1.5" points="749.54,-21.15 758.54,-18 749.54,-14.85 749.54,-21.15"/>
<text xml:space="preserve" text-anchor="middle" x="707.62" y="-21.2" font-family="Times,serif" font-size="14.00">tasks[] listesi</text>
</g>
</g>
</svg>
