<?xml version="1.0" encoding="UTF-8" standalone="no"?>
<!DOCTYPE svg PUBLIC "-//W3C//DTD SVG 1.1//EN"
 "http://www.w3.org/Graphics/SVG/1.1/DTD/svg11.dtd">
<!-- Generated by graphviz version 14.1.5 (20260411.2331)
 -->
<!-- Title: tasks_list Pages: 1 -->
<svg width="910pt" height="217pt"
 viewBox="0.00 0.00 910.00 217.00" xmlns="http://www.w3.org/2000/svg" xmlns:xlink="http://www.w3.org/1999/xlink">
<g id="graph0" class="graph" transform="scale(1 1) rotate(0) translate(21.6 195.21)">
<title>tasks_list</title>
<!-- init -->
<g id="node1" class="node">
<title>init</title>
<path fill="#6699cc" stroke="black" d="M12,-85.01C12,-85.01 198,-85.01 198,-85.01 204,-85.01 210,-91.01 210,-97.01 210,-97.01 210,-119.81 210,-119.81 210,-125.81 204,-131.81 198,-131.81 198,-131.81 12,-131.81 12,-131.81 6,-131.81 0,-125.81 0,-119.81 0,-119.81 0,-97.01 0,-97.01 0,-91.01 6,-85.01 12,-85.01"/>
<text xml:space="preserve" text-anchor="middle" x="38.38" y="-111.86" font-family="monospace" font-size="11.00" fill="white">init_task</text>
<text xml:space="preserve" text-anchor="middle" x="38.38" y="-98.36" font-family="monospace" font-size="11.00" fill="white">(PID=0)</text>
<polyline fill="none" stroke="black" points="76.75,-85.81 76.75,-131.81"/>
<text xml:space="preserve" text-anchor="middle" x="121.88" y="-105.11" font-family="monospace" font-size="11.00" fill="white">tasks (kök)</text>
<polyline fill="none" stroke="black" points="167,-85.81 167,-131.81"/>
<text xml:space="preserve" text-anchor="middle" x="188.5" y="-116.86" font-family="monospace" font-size="11.00" fill="white">prev</text>
<polyline fill="none" stroke="black" points="167,-109.31 210,-109.31"/>
<text xml:space="preserve" text-anchor="middle" x="188.5" y="-93.86" font-family="monospace" font-size="11.00" fill="white">next</text>
</g>
<!-- p1 -->
<g id="node2" class="node">
<title>p1</title>
<path fill="#aaccff" stroke="black" d="M258,-85.01C258,-85.01 417,-85.01 417,-85.01 423,-85.01 429,-91.01 429,-97.01 429,-97.01 429,-119.81 429,-119.81 429,-125.81 423,-131.81 417,-131.81 417,-131.81 258,-131.81 258,-131.81 252,-131.81 246,-125.81 246,-119.81 246,-119.81 246,-97.01 246,-97.01 246,-91.01 252,-85.01 258,-85.01"/>
<text xml:space="preserve" text-anchor="middle" x="291.12" y="-111.86" font-family="monospace" font-size="11.00">proses 1</text>
<text xml:space="preserve" text-anchor="middle" x="291.12" y="-98.36" font-family="monospace" font-size="11.00">task_struct</text>
<polyline fill="none" stroke="black" points="336.25,-85.81 336.25,-131.81"/>
<text xml:space="preserve" text-anchor="middle" x="361.12" y="-105.11" font-family="monospace" font-size="11.00">tasks</text>
<polyline fill="none" stroke="black" points="386,-85.81 386,-131.81"/>
<text xml:space="preserve" text-anchor="middle" x="407.5" y="-116.86" font-family="monospace" font-size="11.00">prev</text>
<polyline fill="none" stroke="black" points="386,-109.31 429,-109.31"/>
<text xml:space="preserve" text-anchor="middle" x="407.5" y="-93.86" font-family="monospace" font-size="11.00">next</text>
</g>
<!-- init&#45;&gt;p1 -->
<g id="edge1" class="edge">
<title>init:n&#45;&gt;p1:n</title>
<path fill="none" stroke="#336699" stroke-width="1.5" d="M210,-97.56C226.83,-97.56 229.39,-88.51 246,-85.81 261.08,-83.37 367.59,-71.35 398.88,-78.92"/>
<polygon fill="#336699" stroke="#336699" stroke-width="1.5" points="396.93,-81.19 405.63,-83.53 400.29,-76.28 396.93,-81.19"/>
</g>
<!-- p3 -->
<g id="node4" class="node">
<title>p3</title>
<path fill="#ddeeff" stroke="black" d="M696,-85.01C696,-85.01 855,-85.01 855,-85.01 861,-85.01 867,-91.01 867,-97.01 867,-97.01 867,-119.81 867,-119.81 867,-125.81 861,-131.81 855,-131.81 855,-131.81 696,-131.81 696,-131.81 690,-131.81 684,-125.81 684,-119.81 684,-119.81 684,-97.01 684,-97.01 684,-91.01 690,-85.01 696,-85.01"/>
<text xml:space="preserve" text-anchor="middle" x="729.12" y="-111.86" font-family="monospace" font-size="11.00">proses N</text>
<text xml:space="preserve" text-anchor="middle" x="729.12" y="-98.36" font-family="monospace" font-size="11.00">task_struct</text>
<polyline fill="none" stroke="black" points="774.25,-85.81 774.25,-131.81"/>
<text xml:space="preserve" text-anchor="middle" x="799.12" y="-105.11" font-family="monospace" font-size="11.00">tasks</text>
<polyline fill="none" stroke="black" points="824,-85.81 824,-131.81"/>
<text xml:space="preserve" text-anchor="middle" x="845.5" y="-116.86" font-family="monospace" font-size="11.00">prev</text>
<polyline fill="none" stroke="black" points="824,-109.31 867,-109.31"/>
<text xml:space="preserve" text-anchor="middle" x="845.5" y="-93.86" font-family="monospace" font-size="11.00">next</text>
</g>
<!-- init&#45;&gt;p3 -->
<g id="edge8" class="edge">
<title>init:p&#45;&gt;p3:p</title>
<path fill="none" stroke="#aa4444" stroke-width="1.5" stroke-dasharray="5,2" d="M210,-120.56C235.66,-120.56 222.88,-86.55 246,-75.41 326.48,-36.65 569.66,-32.48 648,-75.41 674.08,-89.7 657.97,-117.44 684,-131.81 743.52,-164.68 835.19,-200.58 844.7,-143.27"/>
<polygon fill="#aa4444" stroke="#aa4444" stroke-width="1.5" points="847.64,-143.78 845.33,-135.08 841.71,-143.32 847.64,-143.78"/>
</g>
<!-- p1&#45;&gt;init -->
<g id="edge5" class="edge">
<title>p1:p&#45;&gt;init:p</title>
<path fill="none" stroke="#aa4444" stroke-width="1.5" d="M407.5,-132.81C407.5,-204.59 316.92,-142.86 246,-131.81 233.71,-129.9 229.06,-124.63 220.64,-122.04"/>
<polygon fill="#aa4444" stroke="#aa4444" stroke-width="1.5" points="221.08,-119.1 212.25,-120.87 220.26,-124.99 221.08,-119.1"/>
</g>
<!-- p2 -->
<g id="node3" class="node">
<title>p2</title>
<path fill="#ddeeff" stroke="black" d="M477,-85.01C477,-85.01 636,-85.01 636,-85.01 642,-85.01 648,-91.01 648,-97.01 648,-97.01 648,-119.81 648,-119.81 648,-125.81 642,-131.81 636,-131.81 636,-131.81 477,-131.81 477,-131.81 471,-131.81 465,-125.81 465,-119.81 465,-119.81 465,-97.01 465,-97.01 465,-91.01 471,-85.01 477,-85.01"/>
<text xml:space="preserve" text-anchor="middle" x="510.12" y="-111.86" font-family="monospace" font-size="11.00">proses 2</text>
<text xml:space="preserve" text-anchor="middle" x="510.12" y="-98.36" font-family="monospace" font-size="11.00">task_struct</text>
<polyline fill="none" stroke="black" points="555.25,-85.81 555.25,-131.81"/>
<text xml:space="preserve" text-anchor="middle" x="580.12" y="-105.11" font-family="monospace" font-size="11.00">tasks</text>
<polyline fill="none" stroke="black" points="605,-85.81 605,-131.81"/>
<text xml:space="preserve" text-anchor="middle" x="626.5" y="-116.86" font-family="monospace" font-size="11.00">prev</text>
<polyline fill="none" stroke="black" points="605,-109.31 648,-109.31"/>
<text xml:space="preserve" text-anchor="middle" x="626.5" y="-93.86" font-family="monospace" font-size="11.00">next</text>
</g>
<!-- p1&#45;&gt;p2 -->
<g id="edge2" class="edge">
<title>p1:n&#45;&gt;p2:n</title>
<path fill="none" stroke="#336699" stroke-width="1.5" d="M429,-97.56C445.83,-97.56 448.39,-88.51 465,-85.81 480.08,-83.37 586.59,-71.35 617.88,-78.92"/>
<polygon fill="#336699" stroke="#336699" stroke-width="1.5" points="615.93,-81.19 624.63,-83.53 619.29,-76.28 615.93,-81.19"/>
</g>
<!-- p2&#45;&gt;p1 -->
<g id="edge6" class="edge">
<title>p2:p&#45;&gt;p1:p</title>
<path fill="none" stroke="#aa4444" stroke-width="1.5" d="M626.5,-132.81C626.5,-204.59 535.92,-142.86 465,-131.81 452.71,-129.9 448.06,-124.63 439.64,-122.04"/>
<polygon fill="#aa4444" stroke="#aa4444" stroke-width="1.5" points="440.08,-119.1 431.25,-120.87 439.26,-124.99 440.08,-119.1"/>
</g>
<!-- p2&#45;&gt;p3 -->
<g id="edge3" class="edge">
<title>p2:n&#45;&gt;p3:n</title>
<path fill="none" stroke="#336699" stroke-width="1.5" d="M648,-97.56C664.83,-97.56 667.39,-88.51 684,-85.81 750.98,-74.95 835.64,-19.59 844.7,-74.2"/>
<polygon fill="#336699" stroke="#336699" stroke-width="1.5" points="841.73,-74.29 845.33,-82.55 847.66,-73.85 841.73,-74.29"/>
</g>
<!-- p3&#45;&gt;init -->
<g id="edge4" class="edge">
<title>p3:n&#45;&gt;init:n</title>
<path fill="none" stroke="#336699" stroke-width="1.5" stroke-dasharray="5,2" d="M845.5,-84.81C845.5,4.97 737.28,-51.89 648,-42.41 470.33,-23.56 403.12,42.65 246,-42.41 224.08,-54.28 234.61,-85.93 220.15,-95.06"/>
<polygon fill="#336699" stroke="#336699" stroke-width="1.5" points="219.75,-92.1 212.2,-97.02 221.17,-97.87 219.75,-92.1"/>
</g>
<!-- p3&#45;&gt;p2 -->
<g id="edge7" class="edge">
<title>p3:p&#45;&gt;p2:p</title>
<path fill="none" stroke="#aa4444" stroke-width="1.5" d="M845.5,-132.81C845.5,-204.59 754.92,-142.86 684,-131.81 671.71,-129.9 667.06,-124.63 658.64,-122.04"/>
<polygon fill="#aa4444" stroke="#aa4444" stroke-width="1.5" points="659.08,-119.1 650.25,-120.87 658.26,-124.99 659.08,-119.1"/>
</g>
</g>
</svg>
