<?xml version="1.0" encoding="UTF-8" standalone="no"?>
<!DOCTYPE svg PUBLIC "-//W3C//DTD SVG 1.1//EN"
 "http://www.w3.org/Graphics/SVG/1.1/DTD/svg11.dtd">
<!-- Generated by graphviz version 14.1.5 (20260411.2331)
 -->
<!-- Title: genel_boot Pages: 1 -->
<svg width="274pt" height="400pt"
 viewBox="0.00 0.00 274.00 400.00" xmlns="http://www.w3.org/2000/svg" xmlns:xlink="http://www.w3.org/1999/xlink">
<g id="graph0" class="graph" transform="scale(1 1) rotate(0) translate(21.6 378.72)">
<title>genel_boot</title>
<!-- A -->
<g id="node1" class="node">
<title>A</title>
<path fill="#ddeeff" stroke="black" d="M218.4,-357.12C218.4,-357.12 12,-357.12 12,-357.12 6,-357.12 0,-351.12 0,-345.12 0,-345.12 0,-333.12 0,-333.12 0,-327.12 6,-321.12 12,-321.12 12,-321.12 218.4,-321.12 218.4,-321.12 224.4,-321.12 230.4,-327.12 230.4,-333.12 230.4,-333.12 230.4,-345.12 230.4,-345.12 230.4,-351.12 224.4,-357.12 218.4,-357.12"/>
<text xml:space="preserve" text-anchor="middle" x="115.2" y="-334.67" font-family="DejaVu Sans" font-size="11.00">Mikroişlemci reset edilir</text>
</g>
<!-- B -->
<g id="node2" class="node">
<title>B</title>
<path fill="#ddeeff" stroke="black" d="M218.4,-285.12C218.4,-285.12 12,-285.12 12,-285.12 6,-285.12 0,-279.12 0,-273.12 0,-273.12 0,-255.84 0,-255.84 0,-249.84 6,-243.84 12,-243.84 12,-243.84 218.4,-243.84 218.4,-243.84 224.4,-243.84 230.4,-249.84 230.4,-255.84 230.4,-255.84 230.4,-273.12 230.4,-273.12 230.4,-279.12 224.4,-285.12 218.4,-285.12"/>
<text xml:space="preserve" text-anchor="middle" x="115.2" y="-266.03" font-family="DejaVu Sans" font-size="11.00">ROM&#39;daki reset vektöründe</text>
<text xml:space="preserve" text-anchor="middle" x="115.2" y="-254.03" font-family="DejaVu Sans" font-size="11.00">bulunan kodlar çalışır</text>
</g>
<!-- A&#45;&gt;B -->
<g id="edge1" class="edge">
<title>A&#45;&gt;B</title>
<path fill="none" stroke="#336699" stroke-width="1.5" d="M115.2,-320.91C115.2,-313.5 115.2,-304.6 115.2,-296.13"/>
<polygon fill="#336699" stroke="#336699" stroke-width="1.5" points="115.2,-287.23 119.25,-296.23 115.45,-289.9 115.45,-296.23 115.2,-296.23 114.95,-296.23 114.95,-289.9 111.15,-296.23 115.2,-287.23"/>
</g>
<!-- C -->
<g id="node3" class="node">
<title>C</title>
<path fill="#ddeeff" stroke="black" d="M218.4,-207.84C218.4,-207.84 12,-207.84 12,-207.84 6,-207.84 0,-201.84 0,-195.84 0,-195.84 0,-166.56 0,-166.56 0,-160.56 6,-154.56 12,-154.56 12,-154.56 218.4,-154.56 218.4,-154.56 224.4,-154.56 230.4,-160.56 230.4,-166.56 230.4,-166.56 230.4,-195.84 230.4,-195.84 230.4,-201.84 224.4,-207.84 218.4,-207.84"/>
<text xml:space="preserve" text-anchor="middle" x="115.2" y="-188.75" font-family="DejaVu Sans" font-size="11.00">ROM&#39;daki kodlar diskteki önceden</text>
<text xml:space="preserve" text-anchor="middle" x="115.2" y="-176.75" font-family="DejaVu Sans" font-size="11.00">belirlenmiş bloğu RAM&#39;e yükler</text>
<text xml:space="preserve" text-anchor="middle" x="115.2" y="-164.75" font-family="DejaVu Sans" font-size="11.00">ve çalıştırır</text>
</g>
<!-- B&#45;&gt;C -->
<g id="edge2" class="edge">
<title>B&#45;&gt;C</title>
<path fill="none" stroke="#336699" stroke-width="1.5" d="M115.2,-243.39C115.2,-236 115.2,-227.38 115.2,-218.99"/>
<polygon fill="#336699" stroke="#336699" stroke-width="1.5" points="115.2,-210.03 119.25,-219.03 115.45,-212.7 115.45,-219.03 115.2,-219.03 114.95,-219.03 114.95,-212.7 111.15,-219.03 115.2,-210.03"/>
</g>
<!-- D -->
<g id="node4" class="node">
<title>D</title>
<path fill="#ddeeff" stroke="black" d="M218.4,-118.56C218.4,-118.56 12,-118.56 12,-118.56 6,-118.56 0,-112.56 0,-106.56 0,-106.56 0,-89.28 0,-89.28 0,-83.28 6,-77.28 12,-77.28 12,-77.28 218.4,-77.28 218.4,-77.28 224.4,-77.28 230.4,-83.28 230.4,-89.28 230.4,-89.28 230.4,-106.56 230.4,-106.56 230.4,-112.56 224.4,-118.56 218.4,-118.56"/>
<text xml:space="preserve" text-anchor="middle" x="115.2" y="-99.47" font-family="DejaVu Sans" font-size="11.00">RAM&#39;e yüklenen küçük program</text>
<text xml:space="preserve" text-anchor="middle" x="115.2" y="-87.47" font-family="DejaVu Sans" font-size="11.00">önyükleyiciyi RAM&#39;e yükler</text>
</g>
<!-- C&#45;&gt;D -->
<g id="edge3" class="edge">
<title>C&#45;&gt;D</title>
<path fill="none" stroke="#336699" stroke-width="1.5" d="M115.2,-154.48C115.2,-146.55 115.2,-137.74 115.2,-129.52"/>
<polygon fill="#336699" stroke="#336699" stroke-width="1.5" points="115.2,-120.63 119.25,-129.63 115.45,-123.3 115.45,-129.63 115.2,-129.63 114.95,-129.63 114.95,-123.3 111.15,-129.63 115.2,-120.63"/>
</g>
<!-- E -->
<g id="node5" class="node">
<title>E</title>
<path fill="#ddeeff" stroke="black" d="M218.4,-41.28C218.4,-41.28 12,-41.28 12,-41.28 6,-41.28 0,-35.28 0,-29.28 0,-29.28 0,-12 0,-12 0,-6 6,0 12,0 12,0 218.4,0 218.4,0 224.4,0 230.4,-6 230.4,-12 230.4,-12 230.4,-29.28 230.4,-29.28 230.4,-35.28 224.4,-41.28 218.4,-41.28"/>
<text xml:space="preserve" text-anchor="middle" x="115.2" y="-22.19" font-family="DejaVu Sans" font-size="11.00">Önyükleyici işletim sistemini yükler</text>
<text xml:space="preserve" text-anchor="middle" x="115.2" y="-10.19" font-family="DejaVu Sans" font-size="11.00">ve başlangıç kodlarını çalıştırır</text>
</g>
<!-- D&#45;&gt;E -->
<g id="edge4" class="edge">
<title>D&#45;&gt;E</title>
<path fill="none" stroke="#336699" stroke-width="1.5" d="M115.2,-77.14C115.2,-69.51 115.2,-60.6 115.2,-52.18"/>
<polygon fill="#336699" stroke="#336699" stroke-width="1.5" points="115.2,-43.38 119.25,-52.38 115.45,-46.05 115.45,-52.38 115.2,-52.38 114.95,-52.38 114.95,-46.05 111.15,-52.38 115.2,-43.38"/>
</g>
</g>
</svg>
