<?xml version="1.0" encoding="UTF-8" standalone="no"?>
<!DOCTYPE svg PUBLIC "-//W3C//DTD SVG 1.1//EN"
 "http://www.w3.org/Graphics/SVG/1.1/DTD/svg11.dtd">
<!-- Generated by graphviz version 14.1.5 (20260411.2331)
 -->
<!-- Title: radix_leaves Pages: 1 -->
<svg width="613pt" height="401pt"
 viewBox="0.00 0.00 613.00 401.00" xmlns="http://www.w3.org/2000/svg" xmlns:xlink="http://www.w3.org/1999/xlink">
<g id="graph0" class="graph" transform="scale(1 1) rotate(0) translate(21.6 379.8)">
<title>radix_leaves</title>
<!-- root -->
<g id="node1" class="node">
<title>root</title>
<path fill="#aaccff" stroke="black" d="M292.32,-358.2C292.32,-358.2 251.52,-358.2 251.52,-358.2 245.52,-358.2 239.52,-352.2 239.52,-346.2 239.52,-346.2 239.52,-334.2 239.52,-334.2 239.52,-328.2 245.52,-322.2 251.52,-322.2 251.52,-322.2 292.32,-322.2 292.32,-322.2 298.32,-322.2 304.32,-328.2 304.32,-334.2 304.32,-334.2 304.32,-346.2 304.32,-346.2 304.32,-352.2 298.32,-358.2 292.32,-358.2"/>
<text xml:space="preserve" text-anchor="middle" x="271.92" y="-336.32" font-family="sans-serif" font-size="10.00">Kök</text>
</g>
<!-- d1_0 -->
<g id="node2" class="node">
<title>d1_0</title>
<ellipse fill="#ddeeff" stroke="black" cx="207.92" cy="-258.75" rx="16.2" ry="16.2"/>
<text xml:space="preserve" text-anchor="middle" x="207.92" y="-255.62" font-family="monospace" font-size="10.00">0</text>
</g>
<!-- root&#45;&gt;d1_0 -->
<g id="edge1" class="edge">
<title>root&#45;&gt;d1_0</title>
<path fill="none" stroke="#555555" stroke-width="1.2" d="M258.03,-321.96C247.73,-309.18 233.7,-291.76 223.11,-278.6"/>
<polygon fill="#555555" stroke="#555555" stroke-width="1.2" points="225.06,-277.12 218.76,-273.21 221.24,-280.2 225.06,-277.12"/>
<text xml:space="preserve" text-anchor="middle" x="244.46" y="-295.65" font-family="monospace" font-size="9.00">0</text>
</g>
<!-- d1_1 -->
<g id="node3" class="node">
<title>d1_1</title>
<ellipse fill="#ddeeff" stroke="black" cx="362.92" cy="-258.75" rx="16.2" ry="16.2"/>
<text xml:space="preserve" text-anchor="middle" x="362.92" y="-255.62" font-family="monospace" font-size="10.00">1</text>
</g>
<!-- root&#45;&gt;d1_1 -->
<g id="edge2" class="edge">
<title>root&#45;&gt;d1_1</title>
<path fill="none" stroke="#555555" stroke-width="1.2" d="M291.67,-321.96C307.35,-308.27 329.12,-289.26 344.46,-275.87"/>
<polygon fill="#555555" stroke="#555555" stroke-width="1.2" points="345.98,-277.79 349.64,-271.34 342.76,-274.1 345.98,-277.79"/>
<text xml:space="preserve" text-anchor="middle" x="325.49" y="-295.65" font-family="monospace" font-size="9.00">1</text>
</g>
<!-- d2_00 -->
<g id="node4" class="node">
<title>d2_00</title>
<ellipse fill="#ddeeff" stroke="black" cx="99.92" cy="-179.1" rx="16.2" ry="16.2"/>
<text xml:space="preserve" text-anchor="middle" x="99.92" y="-175.98" font-family="monospace" font-size="10.00">0</text>
</g>
<!-- d1_0&#45;&gt;d2_00 -->
<g id="edge3" class="edge">
<title>d1_0&#45;&gt;d2_00</title>
<path fill="none" stroke="#555555" stroke-width="1.2" d="M195.11,-248.54C176.43,-235.11 141.58,-210.05 119.62,-194.27"/>
<polygon fill="#555555" stroke="#555555" stroke-width="1.2" points="121.3,-192.46 114.19,-190.36 118.44,-196.44 121.3,-192.46"/>
<text xml:space="preserve" text-anchor="middle" x="163.01" y="-216" font-family="monospace" font-size="9.00">0</text>
</g>
<!-- d2_01 -->
<g id="node5" class="node">
<title>d2_01</title>
<ellipse fill="#ddeeff" stroke="black" cx="207.92" cy="-179.1" rx="16.2" ry="16.2"/>
<text xml:space="preserve" text-anchor="middle" x="207.92" y="-175.98" font-family="monospace" font-size="10.00">1</text>
</g>
<!-- d1_0&#45;&gt;d2_01 -->
<g id="edge4" class="edge">
<title>d1_0&#45;&gt;d2_01</title>
<path fill="none" stroke="#555555" stroke-width="1.2" d="M207.92,-242.41C207.92,-231.53 207.92,-216.7 207.92,-204.24"/>
<polygon fill="#555555" stroke="#555555" stroke-width="1.2" points="210.37,-204.49 207.92,-197.49 205.47,-204.49 210.37,-204.49"/>
<text xml:space="preserve" text-anchor="middle" x="210.55" y="-216" font-family="monospace" font-size="9.00">1</text>
</g>
<!-- d2_10 -->
<g id="node6" class="node">
<title>d2_10</title>
<ellipse fill="#ddeeff" stroke="black" cx="362.92" cy="-179.1" rx="16.2" ry="16.2"/>
<text xml:space="preserve" text-anchor="middle" x="362.92" y="-175.98" font-family="monospace" font-size="10.00">0</text>
</g>
<!-- d1_1&#45;&gt;d2_10 -->
<g id="edge5" class="edge">
<title>d1_1&#45;&gt;d2_10</title>
<path fill="none" stroke="#555555" stroke-width="1.2" d="M362.92,-242.41C362.92,-231.53 362.92,-216.7 362.92,-204.24"/>
<polygon fill="#555555" stroke="#555555" stroke-width="1.2" points="365.37,-204.49 362.92,-197.49 360.47,-204.49 365.37,-204.49"/>
<text xml:space="preserve" text-anchor="middle" x="365.55" y="-216" font-family="monospace" font-size="9.00">0</text>
</g>
<!-- d2_11 -->
<g id="node7" class="node">
<title>d2_11</title>
<ellipse fill="#ddeeff" stroke="black" cx="421.92" cy="-179.1" rx="16.2" ry="16.2"/>
<text xml:space="preserve" text-anchor="middle" x="421.92" y="-175.98" font-family="monospace" font-size="10.00">1</text>
</g>
<!-- d1_1&#45;&gt;d2_11 -->
<g id="edge6" class="edge">
<title>d1_1&#45;&gt;d2_11</title>
<path fill="none" stroke="#555555" stroke-width="1.2" d="M372.4,-245.27C381.78,-232.93 396.26,-213.87 407.15,-199.54"/>
<polygon fill="#555555" stroke="#555555" stroke-width="1.2" points="409.08,-201.05 411.37,-193.99 405.18,-198.08 409.08,-201.05"/>
<text xml:space="preserve" text-anchor="middle" x="398.58" y="-216" font-family="monospace" font-size="9.00">1</text>
</g>
<!-- d3_000 -->
<g id="node8" class="node">
<title>d3_000</title>
<ellipse fill="#ddeeff" stroke="black" cx="35.92" cy="-99.45" rx="16.2" ry="16.2"/>
<text xml:space="preserve" text-anchor="middle" x="35.92" y="-96.33" font-family="monospace" font-size="10.00">0</text>
</g>
<!-- d2_00&#45;&gt;d3_000 -->
<g id="edge7" class="edge">
<title>d2_00&#45;&gt;d3_000</title>
<path fill="none" stroke="#555555" stroke-width="1.2" d="M89.92,-165.97C79.59,-153.43 63.32,-133.7 51.34,-119.16"/>
<polygon fill="#555555" stroke="#555555" stroke-width="1.2" points="53.35,-117.74 47,-113.9 49.57,-120.86 53.35,-117.74"/>
<text xml:space="preserve" text-anchor="middle" x="74.38" y="-136.35" font-family="monospace" font-size="9.00">0</text>
</g>
<!-- d3_001 -->
<g id="node9" class="node">
<title>d3_001</title>
<ellipse fill="#ddeeff" stroke="black" cx="99.92" cy="-99.45" rx="16.2" ry="16.2"/>
<text xml:space="preserve" text-anchor="middle" x="99.92" y="-96.33" font-family="monospace" font-size="10.00">1</text>
</g>
<!-- d2_00&#45;&gt;d3_001 -->
<g id="edge8" class="edge">
<title>d2_00&#45;&gt;d3_001</title>
<path fill="none" stroke="#555555" stroke-width="1.2" d="M99.92,-162.76C99.92,-151.88 99.92,-137.05 99.92,-124.59"/>
<polygon fill="#555555" stroke="#555555" stroke-width="1.2" points="102.37,-124.84 99.92,-117.84 97.47,-124.84 102.37,-124.84"/>
<text xml:space="preserve" text-anchor="middle" x="102.55" y="-136.35" font-family="monospace" font-size="9.00">1</text>
</g>
<!-- d3_010 -->
<g id="node10" class="node">
<title>d3_010</title>
<ellipse fill="#ddeeff" stroke="black" cx="178.92" cy="-99.45" rx="16.2" ry="16.2"/>
<text xml:space="preserve" text-anchor="middle" x="178.92" y="-96.33" font-family="monospace" font-size="10.00">0</text>
</g>
<!-- d2_01&#45;&gt;d3_010 -->
<g id="edge9" class="edge">
<title>d2_01&#45;&gt;d3_010</title>
<path fill="none" stroke="#555555" stroke-width="1.2" d="M202.47,-163.49C198.21,-152.11 192.23,-136.09 187.36,-123.05"/>
<polygon fill="#555555" stroke="#555555" stroke-width="1.2" points="189.73,-122.39 184.99,-116.69 185.14,-124.11 189.73,-122.39"/>
<text xml:space="preserve" text-anchor="middle" x="197.78" y="-136.35" font-family="monospace" font-size="9.00">0</text>
</g>
<!-- d3_011 -->
<g id="node11" class="node">
<title>d3_011</title>
<ellipse fill="#ddeeff" stroke="black" cx="242.92" cy="-99.45" rx="16.2" ry="16.2"/>
<text xml:space="preserve" text-anchor="middle" x="242.92" y="-96.33" font-family="monospace" font-size="10.00">1</text>
</g>
<!-- d2_01&#45;&gt;d3_011 -->
<g id="edge10" class="edge">
<title>d2_01&#45;&gt;d3_011</title>
<path fill="none" stroke="#555555" stroke-width="1.2" d="M214.34,-163.86C219.57,-152.26 227.04,-135.68 233.03,-122.38"/>
<polygon fill="#555555" stroke="#555555" stroke-width="1.2" points="235.15,-123.65 235.79,-116.26 230.68,-121.63 235.15,-123.65"/>
<text xml:space="preserve" text-anchor="middle" x="230.14" y="-136.35" font-family="monospace" font-size="9.00">1</text>
</g>
<!-- d3_100 -->
<g id="node12" class="node">
<title>d3_100</title>
<ellipse fill="#ddeeff" stroke="black" cx="326.92" cy="-99.45" rx="16.2" ry="16.2"/>
<text xml:space="preserve" text-anchor="middle" x="326.92" y="-96.33" font-family="monospace" font-size="10.00">0</text>
</g>
<!-- d2_10&#45;&gt;d3_100 -->
<g id="edge11" class="edge">
<title>d2_10&#45;&gt;d3_100</title>
<path fill="none" stroke="#555555" stroke-width="1.2" d="M356.32,-163.86C350.94,-152.26 343.25,-135.68 337.09,-122.38"/>
<polygon fill="#555555" stroke="#555555" stroke-width="1.2" points="339.41,-121.57 334.25,-116.25 334.97,-123.63 339.41,-121.57"/>
<text xml:space="preserve" text-anchor="middle" x="349.7" y="-136.35" font-family="monospace" font-size="9.00">0</text>
</g>
<!-- d3_101 -->
<g id="node13" class="node">
<title>d3_101</title>
<ellipse fill="#ddeeff" stroke="black" cx="395.92" cy="-99.45" rx="16.2" ry="16.2"/>
<text xml:space="preserve" text-anchor="middle" x="395.92" y="-96.33" font-family="monospace" font-size="10.00">1</text>
</g>
<!-- d2_10&#45;&gt;d3_101 -->
<g id="edge12" class="edge">
<title>d2_10&#45;&gt;d3_101</title>
<path fill="none" stroke="#555555" stroke-width="1.2" d="M368.97,-163.86C373.87,-152.33 380.86,-135.88 386.49,-122.63"/>
<polygon fill="#555555" stroke="#555555" stroke-width="1.2" points="388.6,-123.94 389.08,-116.54 384.09,-122.02 388.6,-123.94"/>
<text xml:space="preserve" text-anchor="middle" x="384.02" y="-136.35" font-family="monospace" font-size="9.00">1</text>
</g>
<!-- d3_110 -->
<g id="node14" class="node">
<title>d3_110</title>
<ellipse fill="#ddeeff" stroke="black" cx="509.92" cy="-99.45" rx="16.2" ry="16.2"/>
<text xml:space="preserve" text-anchor="middle" x="509.92" y="-96.33" font-family="monospace" font-size="10.00">0</text>
</g>
<!-- d2_11&#45;&gt;d3_110 -->
<g id="edge13" class="edge">
<title>d2_11&#45;&gt;d3_110</title>
<path fill="none" stroke="#555555" stroke-width="1.2" d="M433.79,-167.63C448.62,-154.54 474.15,-132.02 491.52,-116.69"/>
<polygon fill="#555555" stroke="#555555" stroke-width="1.2" points="492.97,-118.67 496.6,-112.21 489.73,-115 492.97,-118.67"/>
<text xml:space="preserve" text-anchor="middle" x="473.81" y="-136.35" font-family="monospace" font-size="9.00">0</text>
</g>
<!-- leaf_0000 -->
<g id="node15" class="node">
<title>leaf_0000</title>
<path fill="#d4e8d4" stroke="black" d="M39.84,-36C39.84,-36 12,-36 12,-36 6,-36 0,-30 0,-24 0,-24 0,-12 0,-12 0,-6 6,0 12,0 12,0 39.84,0 39.84,0 45.84,0 51.84,-6 51.84,-12 51.84,-12 51.84,-24 51.84,-24 51.84,-30 45.84,-36 39.84,-36"/>
<text xml:space="preserve" text-anchor="middle" x="25.92" y="-20.7" font-family="monospace" font-size="9.00">0000</text>
<text xml:space="preserve" text-anchor="middle" x="25.92" y="-9.45" font-family="monospace" font-size="9.00">son</text>
</g>
<!-- d3_000&#45;&gt;leaf_0000 -->
<g id="edge14" class="edge">
<title>d3_000&#45;&gt;leaf_0000</title>
<path fill="none" stroke="#555555" stroke-width="1.2" d="M33.99,-83.13C32.64,-72.39 30.8,-57.76 29.22,-45.19"/>
<polygon fill="#555555" stroke="#555555" stroke-width="1.2" points="31.65,-44.93 28.35,-38.29 26.79,-45.54 31.65,-44.93"/>
<text xml:space="preserve" text-anchor="middle" x="34.14" y="-56.7" font-family="monospace" font-size="9.00">0</text>
</g>
<!-- leaf_0010 -->
<g id="node16" class="node">
<title>leaf_0010</title>
<path fill="#d4e8d4" stroke="black" d="M113.84,-36C113.84,-36 86,-36 86,-36 80,-36 74,-30 74,-24 74,-24 74,-12 74,-12 74,-6 80,0 86,0 86,0 113.84,0 113.84,0 119.84,0 125.84,-6 125.84,-12 125.84,-12 125.84,-24 125.84,-24 125.84,-30 119.84,-36 113.84,-36"/>
<text xml:space="preserve" text-anchor="middle" x="99.92" y="-20.7" font-family="monospace" font-size="9.00">0010</text>
<text xml:space="preserve" text-anchor="middle" x="99.92" y="-9.45" font-family="monospace" font-size="9.00">son</text>
</g>
<!-- d3_001&#45;&gt;leaf_0010 -->
<g id="edge15" class="edge">
<title>d3_001&#45;&gt;leaf_0010</title>
<path fill="none" stroke="#555555" stroke-width="1.2" d="M99.92,-82.75C99.92,-71.98 99.92,-57.43 99.92,-44.96"/>
<polygon fill="#555555" stroke="#555555" stroke-width="1.2" points="102.37,-45.14 99.92,-38.14 97.47,-45.14 102.37,-45.14"/>
<text xml:space="preserve" text-anchor="middle" x="102.55" y="-56.7" font-family="monospace" font-size="9.00">0</text>
</g>
<!-- leaf_0101 -->
<g id="node17" class="node">
<title>leaf_0101</title>
<path fill="#d4e8d4" stroke="black" d="M187.84,-36C187.84,-36 160,-36 160,-36 154,-36 148,-30 148,-24 148,-24 148,-12 148,-12 148,-6 154,0 160,0 160,0 187.84,0 187.84,0 193.84,0 199.84,-6 199.84,-12 199.84,-12 199.84,-24 199.84,-24 199.84,-30 193.84,-36 187.84,-36"/>
<text xml:space="preserve" text-anchor="middle" x="173.92" y="-20.7" font-family="monospace" font-size="9.00">0101</text>
<text xml:space="preserve" text-anchor="middle" x="173.92" y="-9.45" font-family="monospace" font-size="9.00">son</text>
</g>
<!-- d3_010&#45;&gt;leaf_0101 -->
<g id="edge16" class="edge">
<title>d3_010&#45;&gt;leaf_0101</title>
<path fill="none" stroke="#555555" stroke-width="1.2" d="M177.96,-83.13C177.28,-72.39 176.36,-57.76 175.57,-45.19"/>
<polygon fill="#555555" stroke="#555555" stroke-width="1.2" points="178.02,-45.13 175.13,-38.3 173.13,-45.44 178.02,-45.13"/>
<text xml:space="preserve" text-anchor="middle" x="179.34" y="-56.7" font-family="monospace" font-size="9.00">1</text>
</g>
<!-- leaf_0111 -->
<g id="node18" class="node">
<title>leaf_0111</title>
<path fill="#d4e8d4" stroke="black" d="M261.84,-36C261.84,-36 234,-36 234,-36 228,-36 222,-30 222,-24 222,-24 222,-12 222,-12 222,-6 228,0 234,0 234,0 261.84,0 261.84,0 267.84,0 273.84,-6 273.84,-12 273.84,-12 273.84,-24 273.84,-24 273.84,-30 267.84,-36 261.84,-36"/>
<text xml:space="preserve" text-anchor="middle" x="247.92" y="-20.7" font-family="monospace" font-size="9.00">0111</text>
<text xml:space="preserve" text-anchor="middle" x="247.92" y="-9.45" font-family="monospace" font-size="9.00">son</text>
</g>
<!-- d3_011&#45;&gt;leaf_0111 -->
<g id="edge17" class="edge">
<title>d3_011&#45;&gt;leaf_0111</title>
<path fill="none" stroke="#555555" stroke-width="1.2" d="M243.88,-83.13C244.56,-72.39 245.48,-57.76 246.27,-45.19"/>
<polygon fill="#555555" stroke="#555555" stroke-width="1.2" points="248.71,-45.44 246.71,-38.3 243.82,-45.13 248.71,-45.44"/>
<text xml:space="preserve" text-anchor="middle" x="248.19" y="-56.7" font-family="monospace" font-size="9.00">1</text>
</g>
<!-- leaf_1000 -->
<g id="node19" class="node">
<title>leaf_1000</title>
<path fill="#d4e8d4" stroke="black" d="M335.84,-36C335.84,-36 308,-36 308,-36 302,-36 296,-30 296,-24 296,-24 296,-12 296,-12 296,-6 302,0 308,0 308,0 335.84,0 335.84,0 341.84,0 347.84,-6 347.84,-12 347.84,-12 347.84,-24 347.84,-24 347.84,-30 341.84,-36 335.84,-36"/>
<text xml:space="preserve" text-anchor="middle" x="321.92" y="-20.7" font-family="monospace" font-size="9.00">1000</text>
<text xml:space="preserve" text-anchor="middle" x="321.92" y="-9.45" font-family="monospace" font-size="9.00">son</text>
</g>
<!-- d3_100&#45;&gt;leaf_1000 -->
<g id="edge18" class="edge">
<title>d3_100&#45;&gt;leaf_1000</title>
<path fill="none" stroke="#555555" stroke-width="1.2" d="M325.96,-83.13C325.28,-72.39 324.36,-57.76 323.57,-45.19"/>
<polygon fill="#555555" stroke="#555555" stroke-width="1.2" points="326.02,-45.13 323.13,-38.3 321.13,-45.44 326.02,-45.13"/>
<text xml:space="preserve" text-anchor="middle" x="327.34" y="-56.7" font-family="monospace" font-size="9.00">0</text>
</g>
<!-- leaf_1010 -->
<g id="node20" class="node">
<title>leaf_1010</title>
<path fill="#d4e8d4" stroke="black" d="M409.84,-36C409.84,-36 382,-36 382,-36 376,-36 370,-30 370,-24 370,-24 370,-12 370,-12 370,-6 376,0 382,0 382,0 409.84,0 409.84,0 415.84,0 421.84,-6 421.84,-12 421.84,-12 421.84,-24 421.84,-24 421.84,-30 415.84,-36 409.84,-36"/>
<text xml:space="preserve" text-anchor="middle" x="395.92" y="-20.7" font-family="monospace" font-size="9.00">1010</text>
<text xml:space="preserve" text-anchor="middle" x="395.92" y="-9.45" font-family="monospace" font-size="9.00">son</text>
</g>
<!-- d3_101&#45;&gt;leaf_1010 -->
<g id="edge19" class="edge">
<title>d3_101&#45;&gt;leaf_1010</title>
<path fill="none" stroke="#555555" stroke-width="1.2" d="M395.92,-82.75C395.92,-71.98 395.92,-57.43 395.92,-44.96"/>
<polygon fill="#555555" stroke="#555555" stroke-width="1.2" points="398.37,-45.14 395.92,-38.14 393.47,-45.14 398.37,-45.14"/>
<text xml:space="preserve" text-anchor="middle" x="398.55" y="-56.7" font-family="monospace" font-size="9.00">0</text>
</g>
<!-- leaf_1011 -->
<g id="node21" class="node">
<title>leaf_1011</title>
<path fill="#d4e8d4" stroke="black" d="M483.84,-36C483.84,-36 456,-36 456,-36 450,-36 444,-30 444,-24 444,-24 444,-12 444,-12 444,-6 450,0 456,0 456,0 483.84,0 483.84,0 489.84,0 495.84,-6 495.84,-12 495.84,-12 495.84,-24 495.84,-24 495.84,-30 489.84,-36 483.84,-36"/>
<text xml:space="preserve" text-anchor="middle" x="469.92" y="-20.7" font-family="monospace" font-size="9.00">1011</text>
<text xml:space="preserve" text-anchor="middle" x="469.92" y="-9.45" font-family="monospace" font-size="9.00">son</text>
</g>
<!-- d3_101&#45;&gt;leaf_1011 -->
<g id="edge20" class="edge">
<title>d3_101&#45;&gt;leaf_1011</title>
<path fill="none" stroke="#555555" stroke-width="1.2" d="M406.52,-87.07C417.36,-75.43 434.51,-57.02 448.24,-42.28"/>
<polygon fill="#555555" stroke="#555555" stroke-width="1.2" points="449.67,-44.33 452.65,-37.54 446.09,-41 449.67,-44.33"/>
<text xml:space="preserve" text-anchor="middle" x="437.76" y="-56.7" font-family="monospace" font-size="9.00">1</text>
</g>
<!-- leaf_1100 -->
<g id="node22" class="node">
<title>leaf_1100</title>
<path fill="#d4e8d4" stroke="black" d="M557.84,-36C557.84,-36 530,-36 530,-36 524,-36 518,-30 518,-24 518,-24 518,-12 518,-12 518,-6 524,0 530,0 530,0 557.84,0 557.84,0 563.84,0 569.84,-6 569.84,-12 569.84,-12 569.84,-24 569.84,-24 569.84,-30 563.84,-36 557.84,-36"/>
<text xml:space="preserve" text-anchor="middle" x="543.92" y="-20.7" font-family="monospace" font-size="9.00">1100</text>
<text xml:space="preserve" text-anchor="middle" x="543.92" y="-9.45" font-family="monospace" font-size="9.00">son</text>
</g>
<!-- d3_110&#45;&gt;leaf_1100 -->
<g id="edge21" class="edge">
<title>d3_110&#45;&gt;leaf_1100</title>
<path fill="none" stroke="#555555" stroke-width="1.2" d="M516,-84.25C520.74,-73.16 527.46,-57.47 533.11,-44.25"/>
<polygon fill="#555555" stroke="#555555" stroke-width="1.2" points="535.25,-45.48 535.76,-38.08 530.75,-43.55 535.25,-45.48"/>
<text xml:space="preserve" text-anchor="middle" x="530.56" y="-56.7" font-family="monospace" font-size="9.00">0</text>
</g>
</g>
</svg>
