<?xml version="1.0" encoding="UTF-8" standalone="no"?>
<!DOCTYPE svg PUBLIC "-//W3C//DTD SVG 1.1//EN"
 "http://www.w3.org/Graphics/SVG/1.1/DTD/svg11.dtd">
<!-- Generated by graphviz version 14.1.5 (20260411.2331)
 -->
<!-- Title: dma_flow Pages: 1 -->
<svg width="977pt" height="196pt"
 viewBox="0.00 0.00 977.00 196.00" xmlns="http://www.w3.org/2000/svg" xmlns:xlink="http://www.w3.org/1999/xlink">
<g id="graph0" class="graph" transform="scale(1 1) rotate(0) translate(4 191.92)">
<title>dma_flow</title>
<polygon fill="white" stroke="none" points="-4,4 -4,-191.92 973,-191.92 973,4 -4,4"/>
<!-- App -->
<g id="node1" class="node">
<title>App</title>
<path fill="#d6e8fa" stroke="black" d="M85.5,-95.42C85.5,-95.42 12,-95.42 12,-95.42 6,-95.42 0,-89.42 0,-83.42 0,-83.42 0,-66.5 0,-66.5 0,-60.5 6,-54.5 12,-54.5 12,-54.5 85.5,-54.5 85.5,-54.5 91.5,-54.5 97.5,-60.5 97.5,-66.5 97.5,-66.5 97.5,-83.42 97.5,-83.42 97.5,-89.42 91.5,-95.42 85.5,-95.42"/>
<text xml:space="preserve" text-anchor="middle" x="48.75" y="-69.16" font-family="DejaVu Sans" font-size="14.00">Uygulama</text>
</g>
<!-- OS -->
<g id="node2" class="node">
<title>OS</title>
<path fill="#d6e8fa" stroke="black" d="M255,-102.92C255,-102.92 198,-102.92 198,-102.92 192,-102.92 186,-96.92 186,-90.92 186,-90.92 186,-59 186,-59 186,-53 192,-47 198,-47 198,-47 255,-47 255,-47 261,-47 267,-53 267,-59 267,-59 267,-90.92 267,-90.92 267,-96.92 261,-102.92 255,-102.92"/>
<text xml:space="preserve" text-anchor="middle" x="226.5" y="-76.66" font-family="DejaVu Sans" font-size="14.00">İşletim</text>
<text xml:space="preserve" text-anchor="middle" x="226.5" y="-61.66" font-family="DejaVu Sans" font-size="14.00">Sistemi</text>
</g>
<!-- App&#45;&gt;OS -->
<g id="edge1" class="edge">
<title>App&#45;&gt;OS</title>
<path fill="none" stroke="#444444" d="M97.77,-74.96C121.44,-74.96 150.01,-74.96 174.12,-74.96"/>
<polygon fill="#444444" stroke="#444444" points="174.04,-78.46 184.04,-74.96 174.04,-71.46 174.04,-78.46"/>
<text xml:space="preserve" text-anchor="middle" x="141.75" y="-76.16" font-family="DejaVu Sans" font-size="9.00">read()/write()</text>
</g>
<!-- Driver -->
<g id="node3" class="node">
<title>Driver</title>
<path fill="#d6e8fa" stroke="black" d="M453,-102.92C453,-102.92 380.25,-102.92 380.25,-102.92 374.25,-102.92 368.25,-96.92 368.25,-90.92 368.25,-90.92 368.25,-59 368.25,-59 368.25,-53 374.25,-47 380.25,-47 380.25,-47 453,-47 453,-47 459,-47 465,-53 465,-59 465,-59 465,-90.92 465,-90.92 465,-96.92 459,-102.92 453,-102.92"/>
<text xml:space="preserve" text-anchor="middle" x="416.62" y="-76.66" font-family="DejaVu Sans" font-size="14.00">Blok Aygıt</text>
<text xml:space="preserve" text-anchor="middle" x="416.62" y="-61.66" font-family="DejaVu Sans" font-size="14.00">Sürücüsü</text>
</g>
<!-- OS&#45;&gt;Driver -->
<g id="edge2" class="edge">
<title>OS&#45;&gt;Driver</title>
<path fill="none" stroke="#444444" d="M267.4,-74.96C293.3,-74.96 327.51,-74.96 356.53,-74.96"/>
<polygon fill="#444444" stroke="#444444" points="356.27,-78.46 366.27,-74.96 356.27,-71.46 356.27,-78.46"/>
<text xml:space="preserve" text-anchor="middle" x="317.62" y="-76.16" font-family="DejaVu Sans" font-size="9.00">I/O isteği hazırla</text>
</g>
<!-- Controller -->
<g id="node4" class="node">
<title>Controller</title>
<path fill="#fff3cd" stroke="black" d="M663.75,-102.92C663.75,-102.92 576,-102.92 576,-102.92 570,-102.92 564,-96.92 564,-90.92 564,-90.92 564,-59 564,-59 564,-53 570,-47 576,-47 576,-47 663.75,-47 663.75,-47 669.75,-47 675.75,-53 675.75,-59 675.75,-59 675.75,-90.92 675.75,-90.92 675.75,-96.92 669.75,-102.92 663.75,-102.92"/>
<text xml:space="preserve" text-anchor="middle" x="619.88" y="-76.66" font-family="DejaVu Sans" font-size="14.00">Disk</text>
<text xml:space="preserve" text-anchor="middle" x="619.88" y="-61.66" font-family="DejaVu Sans" font-size="14.00">Denetleyicisi</text>
</g>
<!-- Driver&#45;&gt;Controller -->
<g id="edge3" class="edge">
<title>Driver&#45;&gt;Controller</title>
<path fill="none" stroke="#444444" d="M465.32,-74.96C491.27,-74.96 523.78,-74.96 552.2,-74.96"/>
<polygon fill="#444444" stroke="#444444" points="552.17,-78.46 562.17,-74.96 552.17,-71.46 552.17,-78.46"/>
<text xml:space="preserve" text-anchor="middle" x="514.5" y="-76.16" font-family="DejaVu Sans" font-size="9.00">Komutu gönder</text>
</g>
<!-- DMA -->
<g id="node5" class="node">
<title>DMA</title>
<path fill="#f8d7da" stroke="black" d="M911.62,-187.92C911.62,-187.92 848.62,-187.92 848.62,-187.92 842.62,-187.92 836.62,-181.92 836.62,-175.92 836.62,-175.92 836.62,-144 836.62,-144 836.62,-138 842.62,-132 848.62,-132 848.62,-132 911.62,-132 911.62,-132 917.62,-132 923.62,-138 923.62,-144 923.62,-144 923.62,-175.92 923.62,-175.92 923.62,-181.92 917.62,-187.92 911.62,-187.92"/>
<text xml:space="preserve" text-anchor="middle" x="880.12" y="-161.66" font-family="DejaVu Sans" font-size="14.00">DMA</text>
<text xml:space="preserve" text-anchor="middle" x="880.12" y="-146.66" font-family="DejaVu Sans" font-size="14.00">Tabloları</text>
</g>
<!-- Controller&#45;&gt;DMA -->
<g id="edge4" class="edge">
<title>Controller&#45;&gt;DMA</title>
<path fill="none" stroke="#444444" stroke-dasharray="5,2" d="M676.15,-94.04C682.09,-96.05 688.04,-98.06 693.75,-99.96 738.15,-114.76 788.69,-131.09 825.78,-142.97"/>
<polygon fill="#444444" stroke="#444444" points="824.32,-146.17 834.91,-145.89 826.45,-139.51 824.32,-146.17"/>
<text xml:space="preserve" text-anchor="middle" x="733.5" y="-126.2" font-family="DejaVu Sans" font-size="9.00">DMA tablolarını yaz</text>
</g>
<!-- IRQ -->
<g id="node6" class="node">
<title>IRQ</title>
<path fill="#f8d7da" stroke="black" d="M926.25,-114.42C926.25,-114.42 834,-114.42 834,-114.42 828,-114.42 822,-108.42 822,-102.42 822,-102.42 822,-85.5 822,-85.5 822,-79.5 828,-73.5 834,-73.5 834,-73.5 926.25,-73.5 926.25,-73.5 932.25,-73.5 938.25,-79.5 938.25,-85.5 938.25,-85.5 938.25,-102.42 938.25,-102.42 938.25,-108.42 932.25,-114.42 926.25,-114.42"/>
<text xml:space="preserve" text-anchor="middle" x="880.12" y="-88.16" font-family="DejaVu Sans" font-size="14.00">Kesme (IRQ)</text>
</g>
<!-- Controller&#45;&gt;IRQ -->
<g id="edge5" class="edge">
<title>Controller&#45;&gt;IRQ</title>
<path fill="none" stroke="#444444" stroke-dasharray="5,2" d="M675.96,-79.01C715.31,-81.91 768.52,-85.82 810.61,-88.92"/>
<polygon fill="#444444" stroke="#444444" points="810.15,-92.39 820.38,-89.64 810.66,-85.41 810.15,-92.39"/>
<text xml:space="preserve" text-anchor="middle" x="733.5" y="-87.36" font-family="DejaVu Sans" font-size="9.00">Tamamlanınca</text>
</g>
<!-- Disk -->
<g id="node7" class="node">
<title>Disk</title>
<path fill="#d5f5d5" stroke="black" d="M957,-55.92C957,-55.92 803.25,-55.92 803.25,-55.92 797.25,-55.92 791.25,-49.92 791.25,-43.92 791.25,-43.92 791.25,-12 791.25,-12 791.25,-6 797.25,0 803.25,0 803.25,0 957,0 957,0 963,0 969,-6 969,-12 969,-12 969,-43.92 969,-43.92 969,-49.92 963,-55.92 957,-55.92"/>
<text xml:space="preserve" text-anchor="middle" x="880.12" y="-29.66" font-family="DejaVu Sans" font-size="14.00">Disk Donanımı</text>
<text xml:space="preserve" text-anchor="middle" x="880.12" y="-14.66" font-family="DejaVu Sans" font-size="14.00">(HDD: kafa / SSD: FTL)</text>
</g>
<!-- Controller&#45;&gt;Disk -->
<g id="edge6" class="edge">
<title>Controller&#45;&gt;Disk</title>
<path fill="none" stroke="#444444" d="M675.96,-64.93C706.1,-59.45 744.37,-52.48 779.55,-46.08"/>
<polygon fill="#444444" stroke="#444444" points="780.15,-49.53 789.36,-44.3 778.9,-42.64 780.15,-49.53"/>
</g>
<!-- Disk&#45;&gt;Controller -->
<g id="edge7" class="edge">
<title>Disk&#45;&gt;Controller</title>
<path fill="none" stroke="#444444" stroke-dasharray="5,2" d="M779.54,-21.86C751.38,-22.52 720.99,-25.55 693.75,-33.21 683.08,-36.21 672.33,-41.11 662.47,-46.52"/>
<polygon fill="#444444" stroke="#444444" points="779.57,-25.36 789.52,-21.74 779.48,-18.36 779.57,-25.36"/>
<text xml:space="preserve" text-anchor="middle" x="733.5" y="-34.41" font-family="DejaVu Sans" font-size="9.00">veri / onay</text>
</g>
</g>
</svg>
