<?xml version="1.0" encoding="UTF-8" standalone="no"?>
<!DOCTYPE svg PUBLIC "-//W3C//DTD SVG 1.1//EN"
 "http://www.w3.org/Graphics/SVG/1.1/DTD/svg11.dtd">
<!-- Generated by graphviz version 14.1.5 (20260411.2331)
 -->
<!-- Title: thread_list Pages: 1 -->
<svg width="1167pt" height="246pt"
 viewBox="0.00 0.00 1167.00 246.00" xmlns="http://www.w3.org/2000/svg" xmlns:xlink="http://www.w3.org/1999/xlink">
<g id="graph0" class="graph" transform="scale(1 1) rotate(0) translate(21.6 224.01)">
<title>thread_list</title>
<!-- root -->
<g id="node1" class="node">
<title>root</title>
<path fill="#aaccff" stroke="black" d="M12,-98.81C12,-98.81 225,-98.81 225,-98.81 231,-98.81 237,-104.81 237,-110.81 237,-110.81 237,-130.01 237,-130.01 237,-136.01 231,-142.01 225,-142.01 225,-142.01 12,-142.01 12,-142.01 6,-142.01 0,-136.01 0,-130.01 0,-130.01 0,-110.81 0,-110.81 0,-104.81 6,-98.81 12,-98.81"/>
<text xml:space="preserve" text-anchor="middle" x="51.88" y="-116.81" font-family="monospace" font-size="11.00">signal_struct</text>
<polyline fill="none" stroke="black" points="103.75,-99.01 103.75,-142.01"/>
<text xml:space="preserve" text-anchor="middle" x="148.88" y="-116.81" font-family="monospace" font-size="11.00">thread_head</text>
<polyline fill="none" stroke="black" points="194,-99.01 194,-142.01"/>
<text xml:space="preserve" text-anchor="middle" x="215.5" y="-127.56" font-family="monospace" font-size="11.00">prev</text>
<polyline fill="none" stroke="black" points="194,-120.51 237,-120.51"/>
<text xml:space="preserve" text-anchor="middle" x="215.5" y="-106.06" font-family="monospace" font-size="11.00">next</text>
</g>
<!-- t1 -->
<g id="node2" class="node">
<title>t1</title>
<path fill="#ffddaa" stroke="black" d="M285,-98.81C285,-98.81 525,-98.81 525,-98.81 531,-98.81 537,-104.81 537,-110.81 537,-110.81 537,-130.01 537,-130.01 537,-136.01 531,-142.01 525,-142.01 525,-142.01 285,-142.01 285,-142.01 279,-142.01 273,-136.01 273,-130.01 273,-130.01 273,-110.81 273,-110.81 273,-104.81 279,-98.81 285,-98.81"/>
<text xml:space="preserve" text-anchor="middle" x="338.38" y="-116.81" font-family="monospace" font-size="11.00">task_struct (ana)</text>
<polyline fill="none" stroke="black" points="403.75,-99.01 403.75,-142.01"/>
<text xml:space="preserve" text-anchor="middle" x="448.88" y="-116.81" font-family="monospace" font-size="11.00">thread_node</text>
<polyline fill="none" stroke="black" points="494,-99.01 494,-142.01"/>
<text xml:space="preserve" text-anchor="middle" x="515.5" y="-127.56" font-family="monospace" font-size="11.00">prev</text>
<polyline fill="none" stroke="black" points="494,-120.51 537,-120.51"/>
<text xml:space="preserve" text-anchor="middle" x="515.5" y="-106.06" font-family="monospace" font-size="11.00">next</text>
</g>
<!-- root&#45;&gt;t1 -->
<g id="edge1" class="edge">
<title>root:n&#45;&gt;t1:n</title>
<path fill="none" stroke="#336699" stroke-width="1.5" d="M237,-109.76C253.7,-109.76 256.48,-101.45 273,-99.01 296.63,-95.5 469.03,-76.24 507.78,-90.71"/>
<polygon fill="#336699" stroke="#336699" stroke-width="1.5" points="505.63,-92.77 513.85,-96.45 509.72,-88.45 505.63,-92.77"/>
</g>
<!-- t3 -->
<g id="node4" class="node">
<title>t3</title>
<path fill="#ffe8cc" stroke="black" d="M878.25,-98.81C878.25,-98.81 1111.5,-98.81 1111.5,-98.81 1117.5,-98.81 1123.5,-104.81 1123.5,-110.81 1123.5,-110.81 1123.5,-130.01 1123.5,-130.01 1123.5,-136.01 1117.5,-142.01 1111.5,-142.01 1111.5,-142.01 878.25,-142.01 878.25,-142.01 872.25,-142.01 866.25,-136.01 866.25,-130.01 866.25,-130.01 866.25,-110.81 866.25,-110.81 866.25,-104.81 872.25,-98.81 878.25,-98.81"/>
<text xml:space="preserve" text-anchor="middle" x="928.25" y="-116.81" font-family="monospace" font-size="11.00">task_struct (t3)</text>
<polyline fill="none" stroke="black" points="990.25,-99.01 990.25,-142.01"/>
<text xml:space="preserve" text-anchor="middle" x="1035.38" y="-116.81" font-family="monospace" font-size="11.00">thread_node</text>
<polyline fill="none" stroke="black" points="1080.5,-99.01 1080.5,-142.01"/>
<text xml:space="preserve" text-anchor="middle" x="1102" y="-127.56" font-family="monospace" font-size="11.00">prev</text>
<polyline fill="none" stroke="black" points="1080.5,-120.51 1123.5,-120.51"/>
<text xml:space="preserve" text-anchor="middle" x="1102" y="-106.06" font-family="monospace" font-size="11.00">next</text>
</g>
<!-- root&#45;&gt;t3 -->
<g id="edge8" class="edge">
<title>root:p&#45;&gt;t3:p</title>
<path fill="none" stroke="#aa4444" stroke-width="1.5" stroke-dasharray="5,2" d="M237,-131.26C261.53,-131.26 250.7,-99.64 273,-89.41 329.27,-63.58 775.48,-60.52 830.25,-89.41 855.31,-102.62 841.22,-128.74 866.25,-142.01 955.48,-189.31 1091.72,-243.7 1101.45,-153.74"/>
<polygon fill="#aa4444" stroke="#aa4444" stroke-width="1.5" points="1104.42,-153.92 1101.88,-145.27 1098.48,-153.61 1104.42,-153.92"/>
</g>
<!-- t1&#45;&gt;root -->
<g id="edge5" class="edge">
<title>t1:p&#45;&gt;root:p</title>
<path fill="none" stroke="#aa4444" stroke-width="1.5" d="M515.5,-143.01C515.5,-250.79 379.61,-157.81 273,-142.01 260.74,-140.19 256.05,-135.15 247.61,-132.67"/>
<polygon fill="#aa4444" stroke="#aa4444" stroke-width="1.5" points="248.07,-129.73 239.25,-131.56 247.28,-135.63 248.07,-129.73"/>
</g>
<!-- t2 -->
<g id="node3" class="node">
<title>t2</title>
<path fill="#ffe8cc" stroke="black" d="M585,-98.81C585,-98.81 818.25,-98.81 818.25,-98.81 824.25,-98.81 830.25,-104.81 830.25,-110.81 830.25,-110.81 830.25,-130.01 830.25,-130.01 830.25,-136.01 824.25,-142.01 818.25,-142.01 818.25,-142.01 585,-142.01 585,-142.01 579,-142.01 573,-136.01 573,-130.01 573,-130.01 573,-110.81 573,-110.81 573,-104.81 579,-98.81 585,-98.81"/>
<text xml:space="preserve" text-anchor="middle" x="635" y="-116.81" font-family="monospace" font-size="11.00">task_struct (t2)</text>
<polyline fill="none" stroke="black" points="697,-99.01 697,-142.01"/>
<text xml:space="preserve" text-anchor="middle" x="742.12" y="-116.81" font-family="monospace" font-size="11.00">thread_node</text>
<polyline fill="none" stroke="black" points="787.25,-99.01 787.25,-142.01"/>
<text xml:space="preserve" text-anchor="middle" x="808.75" y="-127.56" font-family="monospace" font-size="11.00">prev</text>
<polyline fill="none" stroke="black" points="787.25,-120.51 830.25,-120.51"/>
<text xml:space="preserve" text-anchor="middle" x="808.75" y="-106.06" font-family="monospace" font-size="11.00">next</text>
</g>
<!-- t1&#45;&gt;t2 -->
<g id="edge2" class="edge">
<title>t1:n&#45;&gt;t2:n</title>
<path fill="none" stroke="#336699" stroke-width="1.5" d="M537,-109.76C553.7,-109.76 556.48,-101.46 573,-99.01 595.93,-95.61 762.83,-76.93 800.99,-90.82"/>
<polygon fill="#336699" stroke="#336699" stroke-width="1.5" points="798.83,-92.87 807.08,-96.46 802.87,-88.5 798.83,-92.87"/>
</g>
<!-- t2&#45;&gt;t1 -->
<g id="edge6" class="edge">
<title>t2:p&#45;&gt;t1:p</title>
<path fill="none" stroke="#aa4444" stroke-width="1.5" d="M808.75,-143.01C808.75,-247.79 676.65,-157.38 573,-142.01 560.74,-140.19 556.05,-135.15 547.61,-132.67"/>
<polygon fill="#aa4444" stroke="#aa4444" stroke-width="1.5" points="548.07,-129.73 539.25,-131.56 547.28,-135.63 548.07,-129.73"/>
</g>
<!-- t2&#45;&gt;t3 -->
<g id="edge3" class="edge">
<title>t2:n&#45;&gt;t3:n</title>
<path fill="none" stroke="#336699" stroke-width="1.5" d="M830.25,-109.76C846.95,-109.76 849.73,-101.46 866.25,-99.01 966.15,-84.19 1092.49,0.34 1101.49,-87.4"/>
<polygon fill="#336699" stroke="#336699" stroke-width="1.5" points="1098.51,-87.39 1101.89,-95.74 1104.45,-87.11 1098.51,-87.39"/>
</g>
<!-- t3&#45;&gt;root -->
<g id="edge4" class="edge">
<title>t3:n&#45;&gt;root:n</title>
<path fill="none" stroke="#336699" stroke-width="1.5" stroke-dasharray="5,2" d="M1102,-98.01C1102,24.18 952.08,-65.68 830.25,-56.41 583.3,-37.61 491.69,59.84 273,-56.41 251.69,-67.74 261.08,-97.93 247.35,-107.09"/>
<polygon fill="#336699" stroke="#336699" stroke-width="1.5" points="246.68,-104.18 239.2,-109.19 248.17,-109.95 246.68,-104.18"/>
</g>
<!-- t3&#45;&gt;t2 -->
<g id="edge7" class="edge">
<title>t3:p&#45;&gt;t2:p</title>
<path fill="none" stroke="#aa4444" stroke-width="1.5" d="M1102,-143.01C1102,-247.79 969.9,-157.38 866.25,-142.01 853.99,-140.19 849.3,-135.15 840.86,-132.67"/>
<polygon fill="#aa4444" stroke="#aa4444" stroke-width="1.5" points="841.32,-129.73 832.5,-131.56 840.53,-135.63 841.32,-129.73"/>
</g>
</g>
</svg>
