<?xml version="1.0" encoding="UTF-8" standalone="no"?>
<!DOCTYPE svg PUBLIC "-//W3C//DTD SVG 1.1//EN"
 "http://www.w3.org/Graphics/SVG/1.1/DTD/svg11.dtd">
<!-- Generated by graphviz version 14.1.5 (20260411.2331)
 -->
<!-- Title: device_ops Pages: 1 -->
<svg width="415pt" height="377pt"
 viewBox="0.00 0.00 415.00 377.00" xmlns="http://www.w3.org/2000/svg" xmlns:xlink="http://www.w3.org/1999/xlink">
<g id="graph0" class="graph" transform="scale(1 1) rotate(0) translate(21.6 355.6)">
<title>device_ops</title>
<g id="clust1" class="cluster">
<title>cluster_user</title>
<path fill="#eef5ff" stroke="black" d="M12,-8C12,-8 150.25,-8 150.25,-8 156.25,-8 162.25,-14 162.25,-20 162.25,-20 162.25,-314 162.25,-314 162.25,-320 156.25,-326 150.25,-326 150.25,-326 12,-326 12,-326 6,-326 0,-320 0,-314 0,-314 0,-20 0,-20 0,-14 6,-8 12,-8"/>
<text xml:space="preserve" text-anchor="middle" x="81.12" y="-311.55" font-family="sans-serif" font-size="11.00">Kullanıcı Modu POSIX Çağrısı</text>
</g>
<g id="clust2" class="cluster">
<title>cluster_drv</title>
<path fill="#fff5ee" stroke="black" d="M194.25,-8C194.25,-8 352,-8 352,-8 358,-8 364,-14 364,-20 364,-20 364,-314 364,-314 364,-320 358,-326 352,-326 352,-326 194.25,-326 194.25,-326 188.25,-326 182.25,-320 182.25,-314 182.25,-314 182.25,-20 182.25,-20 182.25,-14 188.25,-8 194.25,-8"/>
<text xml:space="preserve" text-anchor="middle" x="273.13" y="-311.55" font-family="sans-serif" font-size="11.00">Aygıt Sürücü Fonksiyonu</text>
</g>
<!-- u_open -->
<g id="node1" class="node">
<title>u_open</title>
<ellipse fill="#aaccff" stroke="black" cx="80.62" cy="-32" rx="37.76" ry="16.2"/>
<text xml:space="preserve" text-anchor="middle" x="80.62" y="-28.3" font-family="monospace" font-size="11.00">open()</text>
</g>
<!-- d_open -->
<g id="node7" class="node">
<title>d_open</title>
<ellipse fill="#ffddaa" stroke="black" cx="273.13" cy="-32" rx="69.34" ry="16.2"/>
<text xml:space="preserve" text-anchor="middle" x="273.13" y="-28.3" font-family="monospace" font-size="11.00">driver_open()</text>
</g>
<!-- u_open&#45;&gt;d_open -->
<g id="edge1" class="edge">
<title>u_open&#45;&gt;d_open</title>
<path fill="none" stroke="#336699" stroke-width="1.5" d="M118.81,-32C139.75,-32 166.74,-32 192.23,-32"/>
<polygon fill="#336699" stroke="#336699" stroke-width="1.5" points="192.15,-35.15 201.15,-32 192.15,-28.85 192.15,-35.15"/>
</g>
<!-- u_close -->
<g id="node2" class="node">
<title>u_close</title>
<ellipse fill="#aaccff" stroke="black" cx="80.62" cy="-82" rx="42.27" ry="16.2"/>
<text xml:space="preserve" text-anchor="middle" x="80.62" y="-78.3" font-family="monospace" font-size="11.00">close()</text>
</g>
<!-- d_close -->
<g id="node8" class="node">
<title>d_close</title>
<ellipse fill="#ffddaa" stroke="black" cx="273.13" cy="-82" rx="82.88" ry="16.2"/>
<text xml:space="preserve" text-anchor="middle" x="273.13" y="-78.3" font-family="monospace" font-size="11.00">driver_release()</text>
</g>
<!-- u_close&#45;&gt;d_close -->
<g id="edge2" class="edge">
<title>u_close&#45;&gt;d_close</title>
<path fill="none" stroke="#336699" stroke-width="1.5" d="M122.96,-82C139.41,-82 159.06,-82 178.61,-82"/>
<polygon fill="#336699" stroke="#336699" stroke-width="1.5" points="178.5,-85.15 187.5,-82 178.5,-78.85 178.5,-85.15"/>
</g>
<!-- u_read -->
<g id="node3" class="node">
<title>u_read</title>
<ellipse fill="#aaccff" stroke="black" cx="80.62" cy="-132" rx="37.76" ry="16.2"/>
<text xml:space="preserve" text-anchor="middle" x="80.62" y="-128.3" font-family="monospace" font-size="11.00">read()</text>
</g>
<!-- d_read -->
<g id="node9" class="node">
<title>d_read</title>
<ellipse fill="#ffddaa" stroke="black" cx="273.13" cy="-132" rx="69.34" ry="16.2"/>
<text xml:space="preserve" text-anchor="middle" x="273.13" y="-128.3" font-family="monospace" font-size="11.00">driver_read()</text>
</g>
<!-- u_read&#45;&gt;d_read -->
<g id="edge3" class="edge">
<title>u_read&#45;&gt;d_read</title>
<path fill="none" stroke="#336699" stroke-width="1.5" d="M118.81,-132C139.75,-132 166.74,-132 192.23,-132"/>
<polygon fill="#336699" stroke="#336699" stroke-width="1.5" points="192.15,-135.15 201.15,-132 192.15,-128.85 192.15,-135.15"/>
</g>
<!-- u_write -->
<g id="node4" class="node">
<title>u_write</title>
<ellipse fill="#aaccff" stroke="black" cx="80.62" cy="-182" rx="42.27" ry="16.2"/>
<text xml:space="preserve" text-anchor="middle" x="80.62" y="-178.3" font-family="monospace" font-size="11.00">write()</text>
</g>
<!-- d_write -->
<g id="node10" class="node">
<title>d_write</title>
<ellipse fill="#ffddaa" stroke="black" cx="273.13" cy="-182" rx="73.85" ry="16.2"/>
<text xml:space="preserve" text-anchor="middle" x="273.13" y="-178.3" font-family="monospace" font-size="11.00">driver_write()</text>
</g>
<!-- u_write&#45;&gt;d_write -->
<g id="edge4" class="edge">
<title>u_write&#45;&gt;d_write</title>
<path fill="none" stroke="#336699" stroke-width="1.5" d="M122.96,-182C142.05,-182 165.45,-182 188,-182"/>
<polygon fill="#336699" stroke="#336699" stroke-width="1.5" points="187.72,-185.15 196.72,-182 187.72,-178.85 187.72,-185.15"/>
</g>
<!-- u_lseek -->
<g id="node5" class="node">
<title>u_lseek</title>
<ellipse fill="#aaccff" stroke="black" cx="80.62" cy="-232" rx="42.27" ry="16.2"/>
<text xml:space="preserve" text-anchor="middle" x="80.62" y="-228.3" font-family="monospace" font-size="11.00">lseek()</text>
</g>
<!-- d_lseek -->
<g id="node11" class="node">
<title>d_lseek</title>
<ellipse fill="#ffddaa" stroke="black" cx="273.13" cy="-232" rx="73.85" ry="16.2"/>
<text xml:space="preserve" text-anchor="middle" x="273.13" y="-228.3" font-family="monospace" font-size="11.00">driver_lseek()</text>
</g>
<!-- u_lseek&#45;&gt;d_lseek -->
<g id="edge5" class="edge">
<title>u_lseek&#45;&gt;d_lseek</title>
<path fill="none" stroke="#336699" stroke-width="1.5" d="M122.96,-232C142.05,-232 165.45,-232 188,-232"/>
<polygon fill="#336699" stroke="#336699" stroke-width="1.5" points="187.72,-235.15 196.72,-232 187.72,-228.85 187.72,-235.15"/>
</g>
<!-- u_ioctl -->
<g id="node6" class="node">
<title>u_ioctl</title>
<ellipse fill="#aaccff" stroke="black" cx="80.62" cy="-282" rx="42.27" ry="16.2"/>
<text xml:space="preserve" text-anchor="middle" x="80.62" y="-278.3" font-family="monospace" font-size="11.00">ioctl()</text>
</g>
<!-- d_ioctl -->
<g id="node12" class="node">
<title>d_ioctl</title>
<ellipse fill="#ffddaa" stroke="black" cx="273.13" cy="-282" rx="73.85" ry="16.2"/>
<text xml:space="preserve" text-anchor="middle" x="273.13" y="-278.3" font-family="monospace" font-size="11.00">driver_ioctl()</text>
</g>
<!-- u_ioctl&#45;&gt;d_ioctl -->
<g id="edge6" class="edge">
<title>u_ioctl&#45;&gt;d_ioctl</title>
<path fill="none" stroke="#336699" stroke-width="1.5" d="M122.96,-282C142.05,-282 165.45,-282 188,-282"/>
<polygon fill="#336699" stroke="#336699" stroke-width="1.5" points="187.72,-285.15 196.72,-282 187.72,-278.85 187.72,-285.15"/>
</g>
</g>
</svg>
