<?xml version="1.0" encoding="UTF-8" standalone="no"?>
<!DOCTYPE svg PUBLIC "-//W3C//DTD SVG 1.1//EN"
 "http://www.w3.org/Graphics/SVG/1.1/DTD/svg11.dtd">
<!-- Generated by graphviz version 14.1.5 (20260411.2331)
 -->
<!-- Title: kernel_list Pages: 1 -->
<svg width="786pt" height="202pt"
 viewBox="0.00 0.00 786.00 202.00" xmlns="http://www.w3.org/2000/svg" xmlns:xlink="http://www.w3.org/1999/xlink">
<g id="graph0" class="graph" transform="scale(1 1) rotate(0) translate(21.6 180.76)">
<title>kernel_list</title>
<!-- root -->
<g id="node1" class="node">
<title>root</title>
<path fill="#aaccff" stroke="black" d="M12,-89.8C12,-89.8 107.75,-89.8 107.75,-89.8 113.75,-89.8 119.75,-95.8 119.75,-101.8 119.75,-101.8 119.75,-121 119.75,-121 119.75,-127 113.75,-133 107.75,-133 107.75,-133 12,-133 12,-133 6,-133 0,-127 0,-121 0,-121 0,-101.8 0,-101.8 0,-95.8 6,-89.8 12,-89.8"/>
<text xml:space="preserve" text-anchor="middle" x="38.38" y="-114.55" font-family="monospace" font-size="11.00">list_head</text>
<text xml:space="preserve" text-anchor="middle" x="38.38" y="-101.05" font-family="monospace" font-size="11.00">(kök)</text>
<polyline fill="none" stroke="black" points="76.75,-90 76.75,-133"/>
<text xml:space="preserve" text-anchor="middle" x="98.25" y="-118.55" font-family="monospace" font-size="11.00">prev</text>
<polyline fill="none" stroke="black" points="76.75,-111.5 119.75,-111.5"/>
<text xml:space="preserve" text-anchor="middle" x="98.25" y="-97.05" font-family="monospace" font-size="11.00">next</text>
</g>
<!-- n1 -->
<g id="node2" class="node">
<title>n1</title>
<path fill="#ddeeff" stroke="black" d="M167.75,-89.8C167.75,-89.8 263.5,-89.8 263.5,-89.8 269.5,-89.8 275.5,-95.8 275.5,-101.8 275.5,-101.8 275.5,-121 275.5,-121 275.5,-127 269.5,-133 263.5,-133 263.5,-133 167.75,-133 167.75,-133 161.75,-133 155.75,-127 155.75,-121 155.75,-121 155.75,-101.8 155.75,-101.8 155.75,-95.8 161.75,-89.8 167.75,-89.8"/>
<text xml:space="preserve" text-anchor="middle" x="194.12" y="-107.8" font-family="monospace" font-size="11.00">list_head</text>
<polyline fill="none" stroke="black" points="232.5,-90 232.5,-133"/>
<text xml:space="preserve" text-anchor="middle" x="254" y="-118.55" font-family="monospace" font-size="11.00">prev</text>
<polyline fill="none" stroke="black" points="232.5,-111.5 275.5,-111.5"/>
<text xml:space="preserve" text-anchor="middle" x="254" y="-97.05" font-family="monospace" font-size="11.00">next</text>
</g>
<!-- root&#45;&gt;n1 -->
<g id="edge1" class="edge">
<title>root:n&#45;&gt;n1:n</title>
<path fill="none" stroke="#336699" stroke-width="1.5" d="M119.75,-100.75C136.45,-100.75 139.24,-92.5 155.75,-90 173.38,-87.33 227.71,-73.8 247.06,-80.8"/>
<polygon fill="#336699" stroke="#336699" stroke-width="1.5" points="244.77,-82.7 252.53,-87.27 249.31,-78.85 244.77,-82.7"/>
</g>
<!-- n4 -->
<g id="node5" class="node">
<title>n4</title>
<path fill="#ddeeff" stroke="black" d="M635,-89.8C635,-89.8 730.75,-89.8 730.75,-89.8 736.75,-89.8 742.75,-95.8 742.75,-101.8 742.75,-101.8 742.75,-121 742.75,-121 742.75,-127 736.75,-133 730.75,-133 730.75,-133 635,-133 635,-133 629,-133 623,-127 623,-121 623,-121 623,-101.8 623,-101.8 623,-95.8 629,-89.8 635,-89.8"/>
<text xml:space="preserve" text-anchor="middle" x="661.38" y="-107.8" font-family="monospace" font-size="11.00">list_head</text>
<polyline fill="none" stroke="black" points="699.75,-90 699.75,-133"/>
<text xml:space="preserve" text-anchor="middle" x="721.25" y="-118.55" font-family="monospace" font-size="11.00">prev</text>
<polyline fill="none" stroke="black" points="699.75,-111.5 742.75,-111.5"/>
<text xml:space="preserve" text-anchor="middle" x="721.25" y="-97.05" font-family="monospace" font-size="11.00">next</text>
</g>
<!-- root&#45;&gt;n4 -->
<g id="edge10" class="edge">
<title>root:p&#45;&gt;n4:p</title>
<path fill="none" stroke="#aa4444" stroke-width="1.5" stroke-dasharray="5,2" d="M119.75,-122.25C144.28,-122.25 133.45,-90.63 155.75,-80.4 242.85,-40.43 502.23,-35.69 587,-80.4 612.06,-93.61 598.01,-119.66 623,-133 657.91,-151.64 710.24,-173.18 719.74,-144.55"/>
<polygon fill="#aa4444" stroke="#aa4444" stroke-width="1.5" points="722.67,-145.08 720.93,-136.25 716.78,-144.24 722.67,-145.08"/>
</g>
<!-- n1&#45;&gt;root -->
<g id="edge6" class="edge">
<title>n1:p&#45;&gt;root:p</title>
<path fill="none" stroke="#aa4444" stroke-width="1.5" d="M254,-134C254,-177.67 198.93,-139.53 155.75,-133 143.5,-131.14 138.8,-126.12 130.37,-123.65"/>
<polygon fill="#aa4444" stroke="#aa4444" stroke-width="1.5" points="130.82,-120.71 122,-122.55 130.04,-126.61 130.82,-120.71"/>
</g>
<!-- n2 -->
<g id="node3" class="node">
<title>n2</title>
<path fill="#ddeeff" stroke="black" d="M323.5,-89.8C323.5,-89.8 419.25,-89.8 419.25,-89.8 425.25,-89.8 431.25,-95.8 431.25,-101.8 431.25,-101.8 431.25,-121 431.25,-121 431.25,-127 425.25,-133 419.25,-133 419.25,-133 323.5,-133 323.5,-133 317.5,-133 311.5,-127 311.5,-121 311.5,-121 311.5,-101.8 311.5,-101.8 311.5,-95.8 317.5,-89.8 323.5,-89.8"/>
<text xml:space="preserve" text-anchor="middle" x="349.88" y="-107.8" font-family="monospace" font-size="11.00">list_head</text>
<polyline fill="none" stroke="black" points="388.25,-90 388.25,-133"/>
<text xml:space="preserve" text-anchor="middle" x="409.75" y="-118.55" font-family="monospace" font-size="11.00">prev</text>
<polyline fill="none" stroke="black" points="388.25,-111.5 431.25,-111.5"/>
<text xml:space="preserve" text-anchor="middle" x="409.75" y="-97.05" font-family="monospace" font-size="11.00">next</text>
</g>
<!-- n1&#45;&gt;n2 -->
<g id="edge2" class="edge">
<title>n1:n&#45;&gt;n2:n</title>
<path fill="none" stroke="#336699" stroke-width="1.5" d="M275.5,-100.75C292.2,-100.75 294.99,-92.5 311.5,-90 329.13,-87.33 383.46,-73.8 402.81,-80.8"/>
<polygon fill="#336699" stroke="#336699" stroke-width="1.5" points="400.52,-82.7 408.28,-87.27 405.06,-78.85 400.52,-82.7"/>
</g>
<!-- n2&#45;&gt;n1 -->
<g id="edge7" class="edge">
<title>n2:p&#45;&gt;n1:p</title>
<path fill="none" stroke="#aa4444" stroke-width="1.5" d="M409.75,-134C409.75,-177.67 354.68,-139.53 311.5,-133 299.25,-131.14 294.55,-126.12 286.12,-123.65"/>
<polygon fill="#aa4444" stroke="#aa4444" stroke-width="1.5" points="286.57,-120.71 277.75,-122.55 285.79,-126.61 286.57,-120.71"/>
</g>
<!-- n3 -->
<g id="node4" class="node">
<title>n3</title>
<path fill="#ddeeff" stroke="black" d="M479.25,-89.8C479.25,-89.8 575,-89.8 575,-89.8 581,-89.8 587,-95.8 587,-101.8 587,-101.8 587,-121 587,-121 587,-127 581,-133 575,-133 575,-133 479.25,-133 479.25,-133 473.25,-133 467.25,-127 467.25,-121 467.25,-121 467.25,-101.8 467.25,-101.8 467.25,-95.8 473.25,-89.8 479.25,-89.8"/>
<text xml:space="preserve" text-anchor="middle" x="505.62" y="-107.8" font-family="monospace" font-size="11.00">list_head</text>
<polyline fill="none" stroke="black" points="544,-90 544,-133"/>
<text xml:space="preserve" text-anchor="middle" x="565.5" y="-118.55" font-family="monospace" font-size="11.00">prev</text>
<polyline fill="none" stroke="black" points="544,-111.5 587,-111.5"/>
<text xml:space="preserve" text-anchor="middle" x="565.5" y="-97.05" font-family="monospace" font-size="11.00">next</text>
</g>
<!-- n2&#45;&gt;n3 -->
<g id="edge3" class="edge">
<title>n2:n&#45;&gt;n3:n</title>
<path fill="none" stroke="#336699" stroke-width="1.5" d="M431.25,-100.75C447.95,-100.75 450.74,-92.5 467.25,-90 484.88,-87.33 539.21,-73.8 558.56,-80.8"/>
<polygon fill="#336699" stroke="#336699" stroke-width="1.5" points="556.27,-82.7 564.03,-87.27 560.81,-78.85 556.27,-82.7"/>
</g>
<!-- n3&#45;&gt;n2 -->
<g id="edge8" class="edge">
<title>n3:p&#45;&gt;n2:p</title>
<path fill="none" stroke="#aa4444" stroke-width="1.5" d="M565.5,-134C565.5,-177.67 510.43,-139.53 467.25,-133 455,-131.14 450.3,-126.12 441.87,-123.65"/>
<polygon fill="#aa4444" stroke="#aa4444" stroke-width="1.5" points="442.32,-120.71 433.5,-122.55 441.54,-126.61 442.32,-120.71"/>
</g>
<!-- n3&#45;&gt;n4 -->
<g id="edge4" class="edge">
<title>n3:n&#45;&gt;n4:n</title>
<path fill="none" stroke="#336699" stroke-width="1.5" d="M587,-100.75C603.7,-100.75 606.49,-92.5 623,-90 661.96,-84.1 710.61,-52.48 719.74,-78.44"/>
<polygon fill="#336699" stroke="#336699" stroke-width="1.5" points="716.78,-78.76 720.93,-86.75 722.67,-77.91 716.78,-78.76"/>
</g>
<!-- n4&#45;&gt;root -->
<g id="edge5" class="edge">
<title>n4:n&#45;&gt;root:n</title>
<path fill="none" stroke="#336699" stroke-width="1.5" stroke-dasharray="5,2" d="M721.25,-89C721.25,-26.53 648.76,-56.75 587,-47.4 397.49,-18.71 324.99,42.57 155.75,-47.4 134.44,-58.73 143.83,-88.92 130.1,-98.08"/>
<polygon fill="#336699" stroke="#336699" stroke-width="1.5" points="129.43,-95.18 121.95,-100.18 130.92,-100.94 129.43,-95.18"/>
</g>
<!-- n4&#45;&gt;n3 -->
<g id="edge9" class="edge">
<title>n4:p&#45;&gt;n3:p</title>
<path fill="none" stroke="#aa4444" stroke-width="1.5" d="M721.25,-134C721.25,-177.67 666.18,-139.53 623,-133 610.75,-131.14 606.05,-126.12 597.62,-123.65"/>
<polygon fill="#aa4444" stroke="#aa4444" stroke-width="1.5" points="598.07,-120.71 589.25,-122.55 597.29,-126.61 598.07,-120.71"/>
</g>
</g>
</svg>
