<?xml version="1.0" encoding="UTF-8" standalone="no"?>
<!DOCTYPE svg PUBLIC "-//W3C//DTD SVG 1.1//EN"
 "http://www.w3.org/Graphics/SVG/1.1/DTD/svg11.dtd">
<!-- Generated by graphviz version 14.1.5 (20260411.2331)
 -->
<!-- Title: delayed_write Pages: 1 -->
<svg width="1366pt" height="138pt"
 viewBox="0.00 0.00 1366.00 138.00" xmlns="http://www.w3.org/2000/svg" xmlns:xlink="http://www.w3.org/1999/xlink">
<g id="graph0" class="graph" transform="scale(1 1) rotate(0) translate(4 133.92)">
<title>delayed_write</title>
<polygon fill="white" stroke="none" points="-4,4 -4,-133.92 1362.25,-133.92 1362.25,4 -4,4"/>
<!-- write -->
<g id="node1" class="node">
<title>write</title>
<path fill="#d6e8fa" stroke="black" d="M114,-92.92C114,-92.92 12,-92.92 12,-92.92 6,-92.92 0,-86.92 0,-80.92 0,-80.92 0,-49 0,-49 0,-43 6,-37 12,-37 12,-37 114,-37 114,-37 120,-37 126,-43 126,-49 126,-49 126,-80.92 126,-80.92 126,-86.92 120,-92.92 114,-92.92"/>
<text xml:space="preserve" text-anchor="middle" x="63" y="-66.66" font-family="DejaVu Sans" font-size="14.00">write()</text>
<text xml:space="preserve" text-anchor="middle" x="63" y="-51.66" font-family="DejaVu Sans" font-size="14.00">Kullanıcı Modu</text>
</g>
<!-- sysw -->
<g id="node2" class="node">
<title>sysw</title>
<path fill="#d6e8fa" stroke="black" d="M278.5,-92.92C278.5,-92.92 175,-92.92 175,-92.92 169,-92.92 163,-86.92 163,-80.92 163,-80.92 163,-49 163,-49 163,-43 169,-37 175,-37 175,-37 278.5,-37 278.5,-37 284.5,-37 290.5,-43 290.5,-49 290.5,-49 290.5,-80.92 290.5,-80.92 290.5,-86.92 284.5,-92.92 278.5,-92.92"/>
<text xml:space="preserve" text-anchor="middle" x="226.75" y="-66.66" font-family="DejaVu Sans" font-size="14.00">sys_write()</text>
<text xml:space="preserve" text-anchor="middle" x="226.75" y="-51.66" font-family="DejaVu Sans" font-size="14.00">Çekirdek Modu</text>
</g>
<!-- write&#45;&gt;sysw -->
<g id="edge1" class="edge">
<title>write&#45;&gt;sysw</title>
<path fill="none" stroke="#444444" d="M126.07,-64.96C134.28,-64.96 142.76,-64.96 151.15,-64.96"/>
<polygon fill="#444444" stroke="#444444" points="150.99,-68.46 160.99,-64.96 150.99,-61.46 150.99,-68.46"/>
</g>
<!-- cache -->
<g id="node3" class="node">
<title>cache</title>
<path fill="#fff3cd" stroke="black" d="M535.25,-92.92C535.25,-92.92 339.5,-92.92 339.5,-92.92 333.5,-92.92 327.5,-86.92 327.5,-80.92 327.5,-80.92 327.5,-49 327.5,-49 327.5,-43 333.5,-37 339.5,-37 339.5,-37 535.25,-37 535.25,-37 541.25,-37 547.25,-43 547.25,-49 547.25,-49 547.25,-80.92 547.25,-80.92 547.25,-86.92 541.25,-92.92 535.25,-92.92"/>
<text xml:space="preserve" text-anchor="middle" x="437.38" y="-66.66" font-family="DejaVu Sans" font-size="14.00">Page Cache&#39;e kopyala</text>
<text xml:space="preserve" text-anchor="middle" x="437.38" y="-51.66" font-family="DejaVu Sans" font-size="14.00">(sayfa &quot;dirty&quot; olarak işaretlenir)</text>
</g>
<!-- sysw&#45;&gt;cache -->
<g id="edge2" class="edge">
<title>sysw&#45;&gt;cache</title>
<path fill="none" stroke="#444444" d="M290.91,-64.96C298.92,-64.96 307.31,-64.96 315.85,-64.96"/>
<polygon fill="#444444" stroke="#444444" points="315.62,-68.46 325.62,-64.96 315.62,-61.46 315.62,-68.46"/>
</g>
<!-- ret -->
<g id="node4" class="node">
<title>ret</title>
<path fill="#d5f5d5" stroke="black" d="M753.12,-129.92C753.12,-129.92 665.38,-129.92 665.38,-129.92 659.38,-129.92 653.38,-123.92 653.38,-117.92 653.38,-117.92 653.38,-86 653.38,-86 653.38,-80 659.38,-74 665.38,-74 665.38,-74 753.12,-74 753.12,-74 759.12,-74 765.12,-80 765.12,-86 765.12,-86 765.12,-117.92 765.12,-117.92 765.12,-123.92 759.12,-129.92 753.12,-129.92"/>
<text xml:space="preserve" text-anchor="middle" x="709.25" y="-103.66" font-family="DejaVu Sans" font-size="14.00">Geri dönüş</text>
<text xml:space="preserve" text-anchor="middle" x="709.25" y="-88.66" font-family="DejaVu Sans" font-size="14.00">(User Mode)</text>
</g>
<!-- cache&#45;&gt;ret -->
<g id="edge3" class="edge">
<title>cache&#45;&gt;ret</title>
<path fill="none" stroke="#444444" d="M547.37,-79.9C579.39,-84.29 613.45,-88.96 641.94,-92.87"/>
<polygon fill="#444444" stroke="#444444" points="641.09,-96.29 651.48,-94.18 642.04,-89.35 641.09,-96.29"/>
</g>
<!-- flush -->
<g id="node5" class="node">
<title>flush</title>
<path fill="#f8d7da" stroke="black" d="M761,-55.92C761,-55.92 657.5,-55.92 657.5,-55.92 651.5,-55.92 645.5,-49.92 645.5,-43.92 645.5,-43.92 645.5,-12 645.5,-12 645.5,-6 651.5,0 657.5,0 657.5,0 761,0 761,0 767,0 773,-6 773,-12 773,-12 773,-43.92 773,-43.92 773,-49.92 767,-55.92 761,-55.92"/>
<text xml:space="preserve" text-anchor="middle" x="709.25" y="-29.66" font-family="DejaVu Sans" font-size="14.00">Flusher Thread</text>
<text xml:space="preserve" text-anchor="middle" x="709.25" y="-14.66" font-family="DejaVu Sans" font-size="14.00">(Asenkron)</text>
</g>
<!-- cache&#45;&gt;flush -->
<g id="edge4" class="edge">
<title>cache&#45;&gt;flush</title>
<path fill="none" stroke="#444444" stroke-dasharray="5,2" d="M547.37,-50.02C576.42,-46.03 607.15,-41.82 633.87,-38.16"/>
<polygon fill="#444444" stroke="#444444" points="634.13,-41.65 643.57,-36.83 633.18,-34.72 634.13,-41.65"/>
<text xml:space="preserve" text-anchor="middle" x="596.38" y="-47.66" font-family="DejaVu Sans" font-size="9.00">zaman geçince</text>
</g>
<!-- sched -->
<g id="node6" class="node">
<title>sched</title>
<path fill="#d6e8fa" stroke="black" d="M931.5,-48.42C931.5,-48.42 822,-48.42 822,-48.42 816,-48.42 810,-42.42 810,-36.42 810,-36.42 810,-19.5 810,-19.5 810,-13.5 816,-7.5 822,-7.5 822,-7.5 931.5,-7.5 931.5,-7.5 937.5,-7.5 943.5,-13.5 943.5,-19.5 943.5,-19.5 943.5,-36.42 943.5,-36.42 943.5,-42.42 937.5,-48.42 931.5,-48.42"/>
<text xml:space="preserve" text-anchor="middle" x="876.75" y="-22.16" font-family="DejaVu Sans" font-size="14.00">I/O Çizelgeleyici</text>
</g>
<!-- flush&#45;&gt;sched -->
<g id="edge5" class="edge">
<title>flush&#45;&gt;sched</title>
<path fill="none" stroke="#444444" d="M773.29,-27.96C781.45,-27.96 789.89,-27.96 798.25,-27.96"/>
<polygon fill="#444444" stroke="#444444" points="798.07,-31.46 808.07,-27.96 798.07,-24.46 798.07,-31.46"/>
</g>
<!-- driver -->
<g id="node7" class="node">
<title>driver</title>
<path fill="#d6e8fa" stroke="black" d="M1065.25,-55.92C1065.25,-55.92 992.5,-55.92 992.5,-55.92 986.5,-55.92 980.5,-49.92 980.5,-43.92 980.5,-43.92 980.5,-12 980.5,-12 980.5,-6 986.5,0 992.5,0 992.5,0 1065.25,0 1065.25,0 1071.25,0 1077.25,-6 1077.25,-12 1077.25,-12 1077.25,-43.92 1077.25,-43.92 1077.25,-49.92 1071.25,-55.92 1065.25,-55.92"/>
<text xml:space="preserve" text-anchor="middle" x="1028.88" y="-29.66" font-family="DejaVu Sans" font-size="14.00">Blok Aygıt</text>
<text xml:space="preserve" text-anchor="middle" x="1028.88" y="-14.66" font-family="DejaVu Sans" font-size="14.00">Sürücüsü</text>
</g>
<!-- sched&#45;&gt;driver -->
<g id="edge6" class="edge">
<title>sched&#45;&gt;driver</title>
<path fill="none" stroke="#444444" d="M943.6,-27.96C951.95,-27.96 960.46,-27.96 968.7,-27.96"/>
<polygon fill="#444444" stroke="#444444" points="968.61,-31.46 978.61,-27.96 968.61,-24.46 968.61,-31.46"/>
</g>
<!-- ctrl -->
<g id="node8" class="node">
<title>ctrl</title>
<path fill="#d6e8fa" stroke="black" d="M1214,-55.92C1214,-55.92 1126.25,-55.92 1126.25,-55.92 1120.25,-55.92 1114.25,-49.92 1114.25,-43.92 1114.25,-43.92 1114.25,-12 1114.25,-12 1114.25,-6 1120.25,0 1126.25,0 1126.25,0 1214,0 1214,0 1220,0 1226,-6 1226,-12 1226,-12 1226,-43.92 1226,-43.92 1226,-49.92 1220,-55.92 1214,-55.92"/>
<text xml:space="preserve" text-anchor="middle" x="1170.12" y="-29.66" font-family="DejaVu Sans" font-size="14.00">Disk</text>
<text xml:space="preserve" text-anchor="middle" x="1170.12" y="-14.66" font-family="DejaVu Sans" font-size="14.00">Denetleyicisi</text>
</g>
<!-- driver&#45;&gt;ctrl -->
<g id="edge7" class="edge">
<title>driver&#45;&gt;ctrl</title>
<path fill="none" stroke="#444444" d="M1077.41,-27.96C1085.62,-27.96 1094.3,-27.96 1102.91,-27.96"/>
<polygon fill="#444444" stroke="#444444" points="1102.62,-31.46 1112.62,-27.96 1102.62,-24.46 1102.62,-31.46"/>
</g>
<!-- disk -->
<g id="node9" class="node">
<title>disk</title>
<path fill="#d5f5d5" stroke="black" d="M1346.25,-55.92C1346.25,-55.92 1275,-55.92 1275,-55.92 1269,-55.92 1263,-49.92 1263,-43.92 1263,-43.92 1263,-12 1263,-12 1263,-6 1269,0 1275,0 1275,0 1346.25,0 1346.25,0 1352.25,0 1358.25,-6 1358.25,-12 1358.25,-12 1358.25,-43.92 1358.25,-43.92 1358.25,-49.92 1352.25,-55.92 1346.25,-55.92"/>
<text xml:space="preserve" text-anchor="middle" x="1310.62" y="-29.66" font-family="DejaVu Sans" font-size="14.00">Disk</text>
<text xml:space="preserve" text-anchor="middle" x="1310.62" y="-14.66" font-family="DejaVu Sans" font-size="14.00">Donanımı</text>
</g>
<!-- ctrl&#45;&gt;disk -->
<g id="edge8" class="edge">
<title>ctrl&#45;&gt;disk</title>
<path fill="none" stroke="#444444" d="M1226.26,-27.96C1234.47,-27.96 1242.95,-27.96 1251.21,-27.96"/>
<polygon fill="#444444" stroke="#444444" points="1251.2,-31.46 1261.2,-27.96 1251.2,-24.46 1251.2,-31.46"/>
</g>
</g>
</svg>
