<?xml version="1.0" encoding="UTF-8" standalone="no"?>
<!DOCTYPE svg PUBLIC "-//W3C//DTD SVG 1.1//EN"
 "http://www.w3.org/Graphics/SVG/1.1/DTD/svg11.dtd">
<!-- Generated by graphviz version 14.1.5 (20260411.2331)
 -->
<!-- Title: pid_tasks Pages: 1 -->
<svg width="567pt" height="285pt"
 viewBox="0.00 0.00 567.00 285.00" xmlns="http://www.w3.org/2000/svg" xmlns:xlink="http://www.w3.org/1999/xlink">
<g id="graph0" class="graph" transform="scale(1 1) rotate(0) translate(28.8 256.55)">
<title>pid_tasks</title>
<!-- pid_node -->
<g id="node1" class="node">
<title>pid_node</title>
<path fill="#ffddaa" stroke="black" d="M173.75,-72.5C173.75,-72.5 237.75,-72.5 237.75,-72.5 243.75,-72.5 249.75,-78.5 249.75,-84.5 249.75,-84.5 249.75,-215.25 249.75,-215.25 249.75,-221.25 243.75,-227.25 237.75,-227.25 237.75,-227.25 173.75,-227.25 173.75,-227.25 167.75,-227.25 161.75,-221.25 161.75,-215.25 161.75,-215.25 161.75,-84.5 161.75,-84.5 161.75,-78.5 167.75,-72.5 173.75,-72.5"/>
<text xml:space="preserve" text-anchor="middle" x="205.75" y="-213.75" font-family="monospace" font-size="10.00">struct pid</text>
<polyline fill="none" stroke="black" points="161.75,-206.5 249.75,-206.5"/>
<text xml:space="preserve" text-anchor="middle" x="205.75" y="-193" font-family="monospace" font-size="10.00">tasks[0]</text>
<text xml:space="preserve" text-anchor="middle" x="205.75" y="-180.25" font-family="monospace" font-size="10.00">PIDTYPE_PID</text>
<polyline fill="none" stroke="black" points="161.75,-173 249.75,-173"/>
<text xml:space="preserve" text-anchor="middle" x="205.75" y="-159.5" font-family="monospace" font-size="10.00">tasks[1]</text>
<text xml:space="preserve" text-anchor="middle" x="205.75" y="-146.75" font-family="monospace" font-size="10.00">PIDTYPE_TGID</text>
<polyline fill="none" stroke="black" points="161.75,-139.5 249.75,-139.5"/>
<text xml:space="preserve" text-anchor="middle" x="205.75" y="-126" font-family="monospace" font-size="10.00">tasks[2]</text>
<text xml:space="preserve" text-anchor="middle" x="205.75" y="-113.25" font-family="monospace" font-size="10.00">PIDTYPE_PGID</text>
<polyline fill="none" stroke="black" points="161.75,-106 249.75,-106"/>
<text xml:space="preserve" text-anchor="middle" x="205.75" y="-92.5" font-family="monospace" font-size="10.00">tasks[3]</text>
<text xml:space="preserve" text-anchor="middle" x="205.75" y="-79.75" font-family="monospace" font-size="10.00">PIDTYPE_SID</text>
</g>
<!-- desc0 -->
<g id="node2" class="node">
<title>desc0</title>
<path fill="#d4e8d4" stroke="black" d="M71.5,-36C71.5,-36 12,-36 12,-36 6,-36 0,-30 0,-24 0,-24 0,-12 0,-12 0,-6 6,0 12,0 12,0 71.5,0 71.5,0 77.5,0 83.5,-6 83.5,-12 83.5,-12 83.5,-24 83.5,-24 83.5,-30 77.5,-36 71.5,-36"/>
<text xml:space="preserve" text-anchor="middle" x="41.75" y="-19.75" font-family="sans-serif" font-size="10.00">Tek task_struct</text>
<text xml:space="preserve" text-anchor="middle" x="41.75" y="-8.5" font-family="sans-serif" font-size="10.00">(belli bir thread)</text>
</g>
<!-- pid_node&#45;&gt;desc0 -->
<g id="edge1" class="edge">
<title>pid_node:t0&#45;&gt;desc0</title>
<path fill="none" stroke="#336699" stroke-width="1.5" d="M160.75,-189.75C91.86,-189.75 59.58,-95.05 47.59,-46.7"/>
<polygon fill="#336699" stroke="#336699" stroke-width="1.5" points="50.51,-46.12 45.67,-38.52 44.71,-47.48 50.51,-46.12"/>
</g>
<!-- desc1 -->
<g id="node3" class="node">
<title>desc1</title>
<path fill="#d4e8d4" stroke="black" d="M167.5,-36C167.5,-36 114,-36 114,-36 108,-36 102,-30 102,-24 102,-24 102,-12 102,-12 102,-6 108,0 114,0 114,0 167.5,0 167.5,0 173.5,0 179.5,-6 179.5,-12 179.5,-12 179.5,-24 179.5,-24 179.5,-30 173.5,-36 167.5,-36"/>
<text xml:space="preserve" text-anchor="middle" x="140.75" y="-19.75" font-family="sans-serif" font-size="10.00">Aynı prosesin</text>
<text xml:space="preserve" text-anchor="middle" x="140.75" y="-8.5" font-family="sans-serif" font-size="10.00">tüm thread&#39;leri</text>
</g>
<!-- pid_node&#45;&gt;desc1 -->
<g id="edge2" class="edge">
<title>pid_node:t1&#45;&gt;desc1</title>
<path fill="none" stroke="#336699" stroke-width="1.5" d="M160.75,-156.25C116.95,-156.25 125.3,-86.96 133.8,-46.84"/>
<polygon fill="#336699" stroke="#336699" stroke-width="1.5" points="136.69,-47.54 135.66,-38.6 130.88,-46.23 136.69,-47.54"/>
</g>
<!-- desc2 -->
<g id="node4" class="node">
<title>desc2</title>
<path fill="#d4e8d4" stroke="black" d="M332,-36C332,-36 209.5,-36 209.5,-36 203.5,-36 197.5,-30 197.5,-24 197.5,-24 197.5,-12 197.5,-12 197.5,-6 203.5,0 209.5,0 209.5,0 332,0 332,0 338,0 344,-6 344,-12 344,-12 344,-24 344,-24 344,-30 338,-36 332,-36"/>
<text xml:space="preserve" text-anchor="middle" x="270.75" y="-19.75" font-family="sans-serif" font-size="10.00">Aynı proses grubundaki</text>
<text xml:space="preserve" text-anchor="middle" x="270.75" y="-8.5" font-family="sans-serif" font-size="10.00">tüm proseslerin ana thread&#39;leri</text>
</g>
<!-- pid_node&#45;&gt;desc2 -->
<g id="edge3" class="edge">
<title>pid_node:t2&#45;&gt;desc2</title>
<path fill="none" stroke="#336699" stroke-width="1.5" d="M250.75,-122.75C281.79,-122.75 280.53,-77.42 276.11,-46.68"/>
<polygon fill="#336699" stroke="#336699" stroke-width="1.5" points="279.06,-46.28 274.76,-38.37 273.19,-47.24 279.06,-46.28"/>
</g>
<!-- desc3 -->
<g id="node5" class="node">
<title>desc3</title>
<path fill="#d4e8d4" stroke="black" d="M497,-36C497,-36 374.5,-36 374.5,-36 368.5,-36 362.5,-30 362.5,-24 362.5,-24 362.5,-12 362.5,-12 362.5,-6 368.5,0 374.5,0 374.5,0 497,0 497,0 503,0 509,-6 509,-12 509,-12 509,-24 509,-24 509,-30 503,-36 497,-36"/>
<text xml:space="preserve" text-anchor="middle" x="435.75" y="-19.75" font-family="sans-serif" font-size="10.00">Aynı oturumdaki</text>
<text xml:space="preserve" text-anchor="middle" x="435.75" y="-8.5" font-family="sans-serif" font-size="10.00">tüm proseslerin ana thread&#39;leri</text>
</g>
<!-- pid_node&#45;&gt;desc3 -->
<g id="edge4" class="edge">
<title>pid_node:t3&#45;&gt;desc3</title>
<path fill="none" stroke="#336699" stroke-width="1.5" d="M250.75,-89.25C305.31,-89.25 363.37,-62.22 399.59,-41.69"/>
<polygon fill="#336699" stroke="#336699" stroke-width="1.5" points="400.94,-44.35 406.8,-37.51 397.95,-39.2 400.94,-44.35"/>
</g>
</g>
</svg>
