<?xml version="1.0" encoding="UTF-8" standalone="no"?>
<!DOCTYPE svg PUBLIC "-//W3C//DTD SVG 1.1//EN"
 "http://www.w3.org/Graphics/SVG/1.1/DTD/svg11.dtd">
<!-- Generated by graphviz version 14.1.5 (20260411.2331)
 -->
<!-- Title: disk_hierarchy Pages: 1 -->
<svg width="157pt" height="321pt"
 viewBox="0.00 0.00 157.00 321.00" xmlns="http://www.w3.org/2000/svg" xmlns:xlink="http://www.w3.org/1999/xlink">
<g id="graph0" class="graph" transform="scale(1 1) rotate(0) translate(4 317.2)">
<title>disk_hierarchy</title>
<polygon fill="white" stroke="none" points="-4,4 -4,-317.2 152.95,-317.2 152.95,4 -4,4"/>
<!-- OS -->
<g id="node1" class="node">
<title>OS</title>
<path fill="#d6e8fa" stroke="black" d="M128.32,-313.2C128.32,-313.2 20.62,-313.2 20.62,-313.2 14.62,-313.2 8.62,-307.2 8.62,-301.2 8.62,-301.2 8.62,-281.4 8.62,-281.4 8.62,-275.4 14.62,-269.4 20.62,-269.4 20.62,-269.4 128.32,-269.4 128.32,-269.4 134.32,-269.4 140.32,-275.4 140.32,-281.4 140.32,-281.4 140.32,-301.2 140.32,-301.2 140.32,-307.2 134.32,-313.2 128.32,-313.2"/>
<text xml:space="preserve" text-anchor="middle" x="74.47" y="-285.5" font-family="DejaVu Sans" font-size="14.00">İşletim Sistemi</text>
</g>
<!-- CPU -->
<g id="node2" class="node">
<title>CPU</title>
<path fill="#d6e8fa" stroke="black" d="M119.32,-233.4C119.32,-233.4 29.63,-233.4 29.63,-233.4 23.62,-233.4 17.62,-227.4 17.62,-221.4 17.62,-221.4 17.62,-201.6 17.62,-201.6 17.62,-195.6 23.62,-189.6 29.62,-189.6 29.62,-189.6 119.32,-189.6 119.32,-189.6 125.32,-189.6 131.32,-195.6 131.32,-201.6 131.32,-201.6 131.32,-221.4 131.32,-221.4 131.32,-227.4 125.32,-233.4 119.32,-233.4"/>
<text xml:space="preserve" text-anchor="middle" x="74.47" y="-205.7" font-family="DejaVu Sans" font-size="14.00">CPU / RAM</text>
</g>
<!-- OS&#45;&gt;CPU -->
<g id="edge1" class="edge">
<title>OS&#45;&gt;CPU</title>
<path fill="none" stroke="#555555" d="M74.47,-269.04C74.47,-261.67 74.47,-253.22 74.47,-245.14"/>
<polygon fill="#555555" stroke="#555555" points="77.98,-245.25 74.48,-235.25 70.98,-245.25 77.98,-245.25"/>
</g>
<!-- Controller -->
<g id="node3" class="node">
<title>Controller</title>
<path fill="#d6e8fa" stroke="black" d="M136.95,-153.6C136.95,-153.6 12,-153.6 12,-153.6 6,-153.6 0,-147.6 0,-141.6 0,-141.6 0,-106.8 0,-106.8 0,-100.8 6,-94.8 12,-94.8 12,-94.8 136.95,-94.8 136.95,-94.8 142.95,-94.8 148.95,-100.8 148.95,-106.8 148.95,-106.8 148.95,-141.6 148.95,-141.6 148.95,-147.6 142.95,-153.6 136.95,-153.6"/>
<text xml:space="preserve" text-anchor="middle" x="74.47" y="-125.9" font-family="DejaVu Sans" font-size="14.00">Disk Denetleyicisi</text>
<text xml:space="preserve" text-anchor="middle" x="74.47" y="-110.9" font-family="DejaVu Sans" font-size="14.00">(Controller)</text>
</g>
<!-- CPU&#45;&gt;Controller -->
<g id="edge2" class="edge">
<title>CPU&#45;&gt;Controller</title>
<path fill="none" stroke="#555555" d="M74.47,-189.41C74.47,-182.17 74.47,-173.8 74.47,-165.55"/>
<polygon fill="#555555" stroke="#555555" points="77.98,-165.6 74.48,-155.6 70.98,-165.6 77.98,-165.6"/>
</g>
<!-- Disk -->
<g id="node4" class="node">
<title>Disk</title>
<path fill="#d5f5d5" stroke="black" d="M122.7,-58.8C122.7,-58.8 26.25,-58.8 26.25,-58.8 20.25,-58.8 14.25,-52.8 14.25,-46.8 14.25,-46.8 14.25,-12 14.25,-12 14.25,-6 20.25,0 26.25,0 26.25,0 122.7,0 122.7,0 128.7,0 134.7,-6 134.7,-12 134.7,-12 134.7,-46.8 134.7,-46.8 134.7,-52.8 128.7,-58.8 122.7,-58.8"/>
<text xml:space="preserve" text-anchor="middle" x="74.47" y="-31.1" font-family="DejaVu Sans" font-size="14.00">Disk</text>
<text xml:space="preserve" text-anchor="middle" x="74.47" y="-16.1" font-family="DejaVu Sans" font-size="14.00">(HDD / SSD)</text>
</g>
<!-- Controller&#45;&gt;Disk -->
<g id="edge3" class="edge">
<title>Controller&#45;&gt;Disk</title>
<path fill="none" stroke="#555555" d="M74.47,-94.35C74.47,-86.84 74.47,-78.61 74.47,-70.64"/>
<polygon fill="#555555" stroke="#555555" points="77.98,-70.75 74.48,-60.75 70.98,-70.75 77.98,-70.75"/>
</g>
</g>
</svg>
