<?xml version="1.0" encoding="UTF-8" standalone="no"?>
<!DOCTYPE svg PUBLIC "-//W3C//DTD SVG 1.1//EN"
 "http://www.w3.org/Graphics/SVG/1.1/DTD/svg11.dtd">
<!-- Generated by graphviz version 14.1.5 (20260411.2331)
 -->
<!-- Title: initramfs Pages: 1 -->
<svg width="374pt" height="636pt"
 viewBox="0.00 0.00 374.00 636.00" xmlns="http://www.w3.org/2000/svg" xmlns:xlink="http://www.w3.org/1999/xlink">
<g id="graph0" class="graph" transform="scale(1 1) rotate(0) translate(4 631.84)">
<title>initramfs</title>
<!-- s1 -->
<g id="node1" class="node">
<title>s1</title>
<path fill="#dbeafe" stroke="black" d="M350.85,-627.84C350.85,-627.84 14.85,-627.84 14.85,-627.84 8.85,-627.84 2.85,-621.84 2.85,-615.84 2.85,-615.84 2.85,-603.84 2.85,-603.84 2.85,-597.84 8.85,-591.84 14.85,-591.84 14.85,-591.84 350.85,-591.84 350.85,-591.84 356.85,-591.84 362.85,-597.84 362.85,-603.84 362.85,-603.84 362.85,-615.84 362.85,-615.84 362.85,-621.84 356.85,-627.84 350.85,-627.84"/>
<text xml:space="preserve" text-anchor="middle" x="182.85" y="-606.34" font-family="Arial" font-size="10.00">1. &#160;Geçici çalışma dizini oluştur &#160;(mktemp &#45;d)</text>
</g>
<!-- s2 -->
<g id="node2" class="node">
<title>s2</title>
<path fill="#dbeafe" stroke="black" d="M350.85,-555.84C350.85,-555.84 14.85,-555.84 14.85,-555.84 8.85,-555.84 2.85,-549.84 2.85,-543.84 2.85,-543.84 2.85,-526.56 2.85,-526.56 2.85,-520.56 8.85,-514.56 14.85,-514.56 14.85,-514.56 350.85,-514.56 350.85,-514.56 356.85,-514.56 362.85,-520.56 362.85,-526.56 362.85,-526.56 362.85,-543.84 362.85,-543.84 362.85,-549.84 356.85,-555.84 350.85,-555.84"/>
<text xml:space="preserve" text-anchor="middle" x="182.85" y="-537.7" font-family="Arial" font-size="10.00">2. &#160;Temel dizin yapısını oluştur</text>
<text xml:space="preserve" text-anchor="middle" x="182.85" y="-525.7" font-family="Arial" font-size="10.00">(dev, proc, sys, bin, sbin, lib, etc...)</text>
</g>
<!-- s1&#45;&gt;s2 -->
<g id="edge1" class="edge">
<title>s1&#45;&gt;s2</title>
<path fill="none" stroke="#4a5568" d="M182.85,-591.63C182.85,-583.8 182.85,-574.32 182.85,-565.43"/>
<polygon fill="#4a5568" stroke="#4a5568" points="185.65,-565.63 182.85,-557.63 180.05,-565.63 185.65,-565.63"/>
</g>
<!-- s3 -->
<g id="node3" class="node">
<title>s3</title>
<path fill="#dbeafe" stroke="black" d="M350.85,-478.56C350.85,-478.56 14.85,-478.56 14.85,-478.56 8.85,-478.56 2.85,-472.56 2.85,-466.56 2.85,-466.56 2.85,-454.56 2.85,-454.56 2.85,-448.56 8.85,-442.56 14.85,-442.56 14.85,-442.56 350.85,-442.56 350.85,-442.56 356.85,-442.56 362.85,-448.56 362.85,-454.56 362.85,-454.56 362.85,-466.56 362.85,-466.56 362.85,-472.56 356.85,-478.56 350.85,-478.56"/>
<text xml:space="preserve" text-anchor="middle" x="182.85" y="-457.06" font-family="Arial" font-size="10.00">3. &#160;busybox veya temel araçları kopyala</text>
</g>
<!-- s2&#45;&gt;s3 -->
<g id="edge2" class="edge">
<title>s2&#45;&gt;s3</title>
<path fill="none" stroke="#4a5568" d="M182.85,-514.35C182.85,-506.29 182.85,-496.86 182.85,-488.22"/>
<polygon fill="#4a5568" stroke="#4a5568" points="185.65,-488.43 182.85,-480.43 180.05,-488.43 185.65,-488.43"/>
</g>
<!-- s4 -->
<g id="node4" class="node">
<title>s4</title>
<path fill="#dbeafe" stroke="black" d="M353.7,-406.56C353.7,-406.56 12,-406.56 12,-406.56 6,-406.56 0,-400.56 0,-394.56 0,-394.56 0,-377.28 0,-377.28 0,-371.28 6,-365.28 12,-365.28 12,-365.28 353.7,-365.28 353.7,-365.28 359.7,-365.28 365.7,-371.28 365.7,-377.28 365.7,-377.28 365.7,-394.56 365.7,-394.56 365.7,-400.56 359.7,-406.56 353.7,-406.56"/>
<text xml:space="preserve" text-anchor="middle" x="182.85" y="-388.42" font-family="Arial" font-size="10.00">4. &#160;Hook&#39;ları çalıştır &#160;(/usr/share + /etc altındakiler)</text>
<text xml:space="preserve" text-anchor="middle" x="182.85" y="-376.42" font-family="Arial" font-size="10.00">Her hook: ihtiyaç duyduğu binary/kütüphane/modülü geçici dizine kopyalar</text>
</g>
<!-- s3&#45;&gt;s4 -->
<g id="edge3" class="edge">
<title>s3&#45;&gt;s4</title>
<path fill="none" stroke="#4a5568" d="M182.85,-442.35C182.85,-434.52 182.85,-425.04 182.85,-416.15"/>
<polygon fill="#4a5568" stroke="#4a5568" points="185.65,-416.35 182.85,-408.35 180.05,-416.35 185.65,-416.35"/>
</g>
<!-- s5 -->
<g id="node5" class="node">
<title>s5</title>
<path fill="#dbeafe" stroke="black" d="M350.85,-329.28C350.85,-329.28 14.85,-329.28 14.85,-329.28 8.85,-329.28 2.85,-323.28 2.85,-317.28 2.85,-317.28 2.85,-300 2.85,-300 2.85,-294 8.85,-288 14.85,-288 14.85,-288 350.85,-288 350.85,-288 356.85,-288 362.85,-294 362.85,-300 362.85,-300 362.85,-317.28 362.85,-317.28 362.85,-323.28 356.85,-329.28 350.85,-329.28"/>
<text xml:space="preserve" text-anchor="middle" x="182.85" y="-311.14" font-family="Arial" font-size="10.00">5. &#160;Çekirdek modüllerini işle</text>
<text xml:space="preserve" text-anchor="middle" x="182.85" y="-299.14" font-family="Arial" font-size="10.00">(initramfs.conf&#39;taki MODULES değerine göre: most | dep | list | none)</text>
</g>
<!-- s4&#45;&gt;s5 -->
<g id="edge4" class="edge">
<title>s4&#45;&gt;s5</title>
<path fill="none" stroke="#4a5568" d="M182.85,-365.14C182.85,-357.16 182.85,-347.8 182.85,-339.05"/>
<polygon fill="#4a5568" stroke="#4a5568" points="185.65,-339.06 182.85,-331.06 180.05,-339.06 185.65,-339.06"/>
</g>
<!-- s6 -->
<g id="node6" class="node">
<title>s6</title>
<path fill="#dbeafe" stroke="black" d="M350.85,-252C350.85,-252 14.85,-252 14.85,-252 8.85,-252 2.85,-246 2.85,-240 2.85,-240 2.85,-228 2.85,-228 2.85,-222 8.85,-216 14.85,-216 14.85,-216 350.85,-216 350.85,-216 356.85,-216 362.85,-222 362.85,-228 362.85,-228 362.85,-240 362.85,-240 362.85,-246 356.85,-252 350.85,-252"/>
<text xml:space="preserve" text-anchor="middle" x="182.85" y="-230.5" font-family="Arial" font-size="10.00">6. &#160;/init script&#39;ini yerleştir</text>
</g>
<!-- s5&#45;&gt;s6 -->
<g id="edge5" class="edge">
<title>s5&#45;&gt;s6</title>
<path fill="none" stroke="#4a5568" d="M182.85,-287.79C182.85,-279.73 182.85,-270.3 182.85,-261.66"/>
<polygon fill="#4a5568" stroke="#4a5568" points="185.65,-261.87 182.85,-253.87 180.05,-261.87 185.65,-261.87"/>
</g>
<!-- s7 -->
<g id="node7" class="node">
<title>s7</title>
<path fill="#dbeafe" stroke="black" d="M350.85,-180C350.85,-180 14.85,-180 14.85,-180 8.85,-180 2.85,-174 2.85,-168 2.85,-168 2.85,-156 2.85,-156 2.85,-150 8.85,-144 14.85,-144 14.85,-144 350.85,-144 350.85,-144 356.85,-144 362.85,-150 362.85,-156 362.85,-156 362.85,-168 362.85,-168 362.85,-174 356.85,-180 350.85,-180"/>
<text xml:space="preserve" text-anchor="middle" x="182.85" y="-158.5" font-family="Arial" font-size="10.00">7. &#160;Tüm içeriği cpio arşivi olarak paketle</text>
</g>
<!-- s6&#45;&gt;s7 -->
<g id="edge6" class="edge">
<title>s6&#45;&gt;s7</title>
<path fill="none" stroke="#4a5568" d="M182.85,-215.7C182.85,-207.81 182.85,-198.3 182.85,-189.55"/>
<polygon fill="#4a5568" stroke="#4a5568" points="185.65,-189.62 182.85,-181.62 180.05,-189.62 185.65,-189.62"/>
</g>
<!-- s8 -->
<g id="node8" class="node">
<title>s8</title>
<path fill="#dbeafe" stroke="black" d="M350.85,-108C350.85,-108 14.85,-108 14.85,-108 8.85,-108 2.85,-102 2.85,-96 2.85,-96 2.85,-84 2.85,-84 2.85,-78 8.85,-72 14.85,-72 14.85,-72 350.85,-72 350.85,-72 356.85,-72 362.85,-78 362.85,-84 362.85,-84 362.85,-96 362.85,-96 362.85,-102 356.85,-108 350.85,-108"/>
<text xml:space="preserve" text-anchor="middle" x="182.85" y="-86.5" font-family="Arial" font-size="10.00">8. &#160;Belirtilen algoritmayla sıkıştır &#160;(gzip / lz4 / xz / zstd)</text>
</g>
<!-- s7&#45;&gt;s8 -->
<g id="edge7" class="edge">
<title>s7&#45;&gt;s8</title>
<path fill="none" stroke="#4a5568" d="M182.85,-143.7C182.85,-135.81 182.85,-126.3 182.85,-117.55"/>
<polygon fill="#4a5568" stroke="#4a5568" points="185.65,-117.62 182.85,-109.62 180.05,-117.62 185.65,-117.62"/>
</g>
<!-- s9 -->
<g id="node9" class="node">
<title>s9</title>
<path fill="#bbf7d0" stroke="black" d="M350.85,-36C350.85,-36 14.85,-36 14.85,-36 8.85,-36 2.85,-30 2.85,-24 2.85,-24 2.85,-12 2.85,-12 2.85,-6 8.85,0 14.85,0 14.85,0 350.85,0 350.85,0 356.85,0 362.85,-6 362.85,-12 362.85,-12 362.85,-24 362.85,-24 362.85,-30 356.85,-36 350.85,-36"/>
<text xml:space="preserve" text-anchor="middle" x="182.85" y="-14.5" font-family="Arial" font-size="10.00">/boot/initrd.img&#45;&lt;kernel&#45;version&gt; olarak yaz</text>
</g>
<!-- s8&#45;&gt;s9 -->
<g id="edge8" class="edge">
<title>s8&#45;&gt;s9</title>
<path fill="none" stroke="#4a5568" d="M182.85,-71.7C182.85,-63.81 182.85,-54.3 182.85,-45.55"/>
<polygon fill="#4a5568" stroke="#4a5568" points="185.65,-45.62 182.85,-37.62 180.05,-45.62 185.65,-45.62"/>
</g>
</g>
</svg>
