<?xml version="1.0" encoding="UTF-8" standalone="no"?>
<!DOCTYPE svg PUBLIC "-//W3C//DTD SVG 1.1//EN"
 "http://www.w3.org/Graphics/SVG/1.1/DTD/svg11.dtd">
<!-- Generated by graphviz version 14.1.5 (20260411.2331)
 -->
<!-- Title: xarray_layers Pages: 1 -->
<svg width="454pt" height="408pt"
 viewBox="0.00 0.00 454.00 408.00" xmlns="http://www.w3.org/2000/svg" xmlns:xlink="http://www.w3.org/1999/xlink">
<g id="graph0" class="graph" transform="scale(1 1) rotate(0) translate(28.8 379.3)">
<title>xarray_layers</title>
<!-- app -->
<g id="node1" class="node">
<title>app</title>
<path fill="#aaccff" stroke="black" d="M384,-350.5C384,-350.5 12,-350.5 12,-350.5 6,-350.5 0,-344.5 0,-338.5 0,-338.5 0,-326.5 0,-326.5 0,-320.5 6,-314.5 12,-314.5 12,-314.5 384,-314.5 384,-314.5 390,-314.5 396,-320.5 396,-326.5 396,-326.5 396,-338.5 396,-338.5 396,-344.5 390,-350.5 384,-350.5"/>
<text xml:space="preserve" text-anchor="middle" x="198" y="-334.05" font-family="sans-serif" font-size="11.00">Çekirdek Kodları ve Aygıt Sürücüler</text>
<text xml:space="preserve" text-anchor="middle" x="198" y="-322.05" font-family="sans-serif" font-size="11.00">(sürücüler, alt sistemler — idr_* çağrıları yapan)</text>
</g>
<!-- idr -->
<g id="node2" class="node">
<title>idr</title>
<path fill="#ddeeff" stroke="black" d="M384,-262C384,-262 12,-262 12,-262 6,-262 0,-256 0,-250 0,-250 0,-197 0,-197 0,-191 6,-185 12,-185 12,-185 384,-185 384,-185 390,-185 396,-191 396,-197 396,-197 396,-250 396,-250 396,-256 390,-262 384,-262"/>
<text xml:space="preserve" text-anchor="middle" x="198" y="-247.55" font-family="sans-serif" font-size="11.00">IDR Katmanı &#160;(idr_*)</text>
<text xml:space="preserve" text-anchor="middle" x="198" y="-235.55" font-family="sans-serif" font-size="11.00">Basit integer→pointer eşlemeleri için sarma fonksiyonları</text>
<text xml:space="preserve" text-anchor="middle" x="198" y="-221.3" font-family="sans-serif" font-size="11.00"> idr_alloc() → xa_alloc() &#160;&#160;| &#160;&#160;idr_find() → xa_load()</text>
<text xml:space="preserve" text-anchor="middle" x="198" y="-207.05" font-family="sans-serif" font-size="11.00"> idr_remove() → xa_erase() &#160;| &#160;&#160;idr_replace() → xa_store()</text>
<text xml:space="preserve" text-anchor="middle" x="198" y="-192.8" font-family="sans-serif" font-size="11.00"> idr_for_each() → xa_for_each()</text>
</g>
<!-- app&#45;&gt;idr -->
<g id="edge1" class="edge">
<title>app&#45;&gt;idr</title>
<path fill="none" stroke="#336699" stroke-width="2" d="M198,-314.31C198,-303.32 198,-288.47 198,-274.01"/>
<polygon fill="#336699" stroke="#336699" stroke-width="2" points="201.15,-274.08 198,-265.08 194.85,-274.08 201.15,-274.08"/>
<text xml:space="preserve" text-anchor="middle" x="232.12" y="-283.2" font-family="Times,serif" font-size="14.00">idr_* çağrısı</text>
</g>
<!-- xar -->
<g id="node3" class="node">
<title>xar</title>
<path fill="#ffe8cc" stroke="black" d="M384,-132.5C384,-132.5 12,-132.5 12,-132.5 6,-132.5 0,-126.5 0,-120.5 0,-120.5 0,-100.5 0,-100.5 0,-94.5 6,-88.5 12,-88.5 12,-88.5 384,-88.5 384,-88.5 390,-88.5 396,-94.5 396,-100.5 396,-100.5 396,-120.5 396,-120.5 396,-126.5 390,-132.5 384,-132.5"/>
<text xml:space="preserve" text-anchor="middle" x="198" y="-118.05" font-family="sans-serif" font-size="11.00">XArray Katmanı &#160;(xa_*)</text>
<text xml:space="preserve" text-anchor="middle" x="198" y="-106.05" font-family="sans-serif" font-size="11.00">Gerçek veri yapısı: radix ağaç tabanlı, concurrency&#45;aware, lock/RCU destekli</text>
<text xml:space="preserve" text-anchor="middle" x="198" y="-94.05" font-family="sans-serif" font-size="11.00"> xa_alloc · xa_load · xa_store · xa_erase · xa_find · xa_for_each</text>
</g>
<!-- idr&#45;&gt;xar -->
<g id="edge2" class="edge">
<title>idr&#45;&gt;xar</title>
<path fill="none" stroke="#336699" stroke-width="2" d="M198,-184.61C198,-171.61 198,-157.17 198,-144.58"/>
<polygon fill="#336699" stroke="#336699" stroke-width="2" points="201.15,-144.76 198,-135.76 194.85,-144.76 201.15,-144.76"/>
<text xml:space="preserve" text-anchor="middle" x="231" y="-153.7" font-family="Times,serif" font-size="14.00">xa_* çağrısı</text>
</g>
<!-- imp -->
<g id="node4" class="node">
<title>imp</title>
<path fill="#d4e8d4" stroke="black" d="M384,-36C384,-36 12,-36 12,-36 6,-36 0,-30 0,-24 0,-24 0,-12 0,-12 0,-6 6,0 12,0 12,0 384,0 384,0 390,0 396,-6 396,-12 396,-12 396,-24 396,-24 396,-30 390,-36 384,-36"/>
<text xml:space="preserve" text-anchor="middle" x="198" y="-19.55" font-family="sans-serif" font-size="11.00">Çekirdek Alt Veri Yapısı / Radix Tree</text>
<text xml:space="preserve" text-anchor="middle" x="198" y="-7.55" font-family="sans-serif" font-size="11.00">(XArray&#39;in düşük seviye radix gerçekleştirimi)</text>
</g>
<!-- xar&#45;&gt;imp -->
<g id="edge3" class="edge">
<title>xar&#45;&gt;imp</title>
<path fill="none" stroke="#336699" stroke-width="2" d="M198,-88.05C198,-76.09 198,-61.03 198,-48.02"/>
<polygon fill="#336699" stroke="#336699" stroke-width="2" points="201.15,-48.38 198,-39.38 194.85,-48.38 201.15,-48.38"/>
<text xml:space="preserve" text-anchor="middle" x="255" y="-57.2" font-family="Times,serif" font-size="14.00">dahili radix işlemleri</text>
</g>
</g>
</svg>
