<?xml version="1.0" encoding="UTF-8" standalone="no"?>
<!DOCTYPE svg PUBLIC "-//W3C//DTD SVG 1.1//EN"
 "http://www.w3.org/Graphics/SVG/1.1/DTD/svg11.dtd">
<!-- Generated by graphviz version 14.1.5 (20260411.2331)
 -->
<!-- Title: file_objects Pages: 1 -->
<svg width="590pt" height="108pt"
 viewBox="0.00 0.00 590.00 108.00" xmlns="http://www.w3.org/2000/svg" xmlns:xlink="http://www.w3.org/1999/xlink">
<g id="graph0" class="graph" transform="scale(1 1) rotate(0) translate(4 103.8)">
<title>file_objects</title>
<polygon fill="white" stroke="none" points="-4,4 -4,-103.8 585.85,-103.8 585.85,4 -4,4"/>
<!-- file -->
<g id="node1" class="node">
<title>file</title>
<path fill="#fff3cd" stroke="black" d="M130.95,-58.8C130.95,-58.8 12,-58.8 12,-58.8 6,-58.8 0,-52.8 0,-46.8 0,-46.8 0,-12 0,-12 0,-6 6,0 12,0 12,0 130.95,0 130.95,0 136.95,0 142.95,-6 142.95,-12 142.95,-12 142.95,-46.8 142.95,-46.8 142.95,-52.8 136.95,-58.8 130.95,-58.8"/>
<text xml:space="preserve" text-anchor="middle" x="71.48" y="-31.1" font-family="DejaVu Sans" font-size="14.00">struct file</text>
<text xml:space="preserve" text-anchor="middle" x="71.48" y="-16.1" font-family="DejaVu Sans" font-size="14.00">(Dosya Nesnesi)</text>
</g>
<!-- dentry -->
<g id="node2" class="node">
<title>dentry</title>
<path fill="#d6e8fa" stroke="black" d="M362.4,-99.8C362.4,-99.8 244.2,-99.8 244.2,-99.8 238.2,-99.8 232.2,-93.8 232.2,-87.8 232.2,-87.8 232.2,-53 232.2,-53 232.2,-47 238.2,-41 244.2,-41 244.2,-41 362.4,-41 362.4,-41 368.4,-41 374.4,-47 374.4,-53 374.4,-53 374.4,-87.8 374.4,-87.8 374.4,-93.8 368.4,-99.8 362.4,-99.8"/>
<text xml:space="preserve" text-anchor="middle" x="303.3" y="-72.1" font-family="DejaVu Sans" font-size="14.00">struct dentry</text>
<text xml:space="preserve" text-anchor="middle" x="303.3" y="-57.1" font-family="DejaVu Sans" font-size="14.00">(dentry Nesnesi)</text>
</g>
<!-- file&#45;&gt;dentry -->
<g id="edge1" class="edge">
<title>file&#45;&gt;dentry</title>
<path fill="none" stroke="#444444" d="M143.31,-42.04C167.78,-46.4 195.39,-51.33 220.66,-55.84"/>
<polygon fill="#444444" stroke="#444444" points="219.75,-59.23 230.21,-57.54 220.98,-52.34 219.75,-59.23"/>
<text xml:space="preserve" text-anchor="middle" x="187.58" y="-54.77" font-family="DejaVu Sans" font-size="9.00">f_path.dentry</text>
</g>
<!-- inode -->
<g id="node3" class="node">
<title>inode</title>
<path fill="#d5f5d5" stroke="black" d="M569.85,-58.8C569.85,-58.8 456.15,-58.8 456.15,-58.8 450.15,-58.8 444.15,-52.8 444.15,-46.8 444.15,-46.8 444.15,-12 444.15,-12 444.15,-6 450.15,0 456.15,0 456.15,0 569.85,0 569.85,0 575.85,0 581.85,-6 581.85,-12 581.85,-12 581.85,-46.8 581.85,-46.8 581.85,-52.8 575.85,-58.8 569.85,-58.8"/>
<text xml:space="preserve" text-anchor="middle" x="513" y="-31.1" font-family="DejaVu Sans" font-size="14.00">struct inode</text>
<text xml:space="preserve" text-anchor="middle" x="513" y="-16.1" font-family="DejaVu Sans" font-size="14.00">(inode Nesnesi)</text>
</g>
<!-- file&#45;&gt;inode -->
<g id="edge3" class="edge">
<title>file&#45;&gt;inode</title>
<path fill="none" stroke="#444444" stroke-dasharray="5,2" d="M143.22,-25.77C170.96,-24.51 203.06,-23.27 232.2,-22.65 295.39,-21.32 311.22,-21.1 374.4,-22.65 393.2,-23.11 413.43,-23.93 432.44,-24.83"/>
<polygon fill="#444444" stroke="#444444" points="432.11,-28.32 442.27,-25.32 432.46,-21.33 432.11,-28.32"/>
<text xml:space="preserve" text-anchor="middle" x="303.3" y="-23.85" font-family="DejaVu Sans" font-size="9.00">f_inode (doğrudan erişim)</text>
</g>
<!-- dentry&#45;&gt;inode -->
<g id="edge2" class="edge">
<title>dentry&#45;&gt;inode</title>
<path fill="none" stroke="#444444" d="M374.62,-56.52C393.31,-52.83 413.63,-48.82 432.76,-45.04"/>
<polygon fill="#444444" stroke="#444444" points="433.25,-48.51 442.38,-43.14 431.89,-41.65 433.25,-48.51"/>
<text xml:space="preserve" text-anchor="middle" x="409.28" y="-53.55" font-family="DejaVu Sans" font-size="9.00">d_inode</text>
</g>
</g>
</svg>
