<?xml version="1.0" encoding="UTF-8" standalone="no"?>
<!DOCTYPE svg PUBLIC "-//W3C//DTD SVG 1.1//EN"
 "http://www.w3.org/Graphics/SVG/1.1/DTD/svg11.dtd">
<!-- Generated by graphviz version 14.1.5 (20260411.2331)
 -->
<!-- Title: io_pipeline Pages: 1 -->
<svg width="308pt" height="827pt"
 viewBox="0.00 0.00 308.00 827.00" xmlns="http://www.w3.org/2000/svg" xmlns:xlink="http://www.w3.org/1999/xlink">
<g id="graph0" class="graph" transform="scale(1 1) rotate(0) translate(4 822.61)">
<title>io_pipeline</title>
<polygon fill="white" stroke="none" points="-4,4 -4,-822.61 303.7,-822.61 303.7,4 -4,4"/>
<!-- S1 -->
<g id="node1" class="node">
<title>S1</title>
<path fill="#d6e8fa" stroke="black" d="M287.7,-818.61C287.7,-818.61 12,-818.61 12,-818.61 6,-818.61 0,-812.61 0,-806.61 0,-806.61 0,-774.69 0,-774.69 0,-768.69 6,-762.69 12,-762.69 12,-762.69 287.7,-762.69 287.7,-762.69 293.7,-762.69 299.7,-768.69 299.7,-774.69 299.7,-774.69 299.7,-806.61 299.7,-806.61 299.7,-812.61 293.7,-818.61 287.7,-818.61"/>
<text xml:space="preserve" text-anchor="middle" x="149.85" y="-792.35" font-family="DejaVu Sans" font-size="14.00">1) Program read() / write() çağırır</text>
<text xml:space="preserve" text-anchor="middle" x="149.85" y="-777.35" font-family="DejaVu Sans" font-size="14.00">(veya stdio tamponları doluysa/boşaldıysa)</text>
</g>
<!-- S2 -->
<g id="node2" class="node">
<title>S2</title>
<path fill="#d6e8fa" stroke="black" d="M281.85,-726.69C281.85,-726.69 17.85,-726.69 17.85,-726.69 11.85,-726.69 5.85,-720.69 5.85,-714.69 5.85,-714.69 5.85,-677.52 5.85,-677.52 5.85,-671.52 11.85,-665.52 17.85,-665.52 17.85,-665.52 281.85,-665.52 281.85,-665.52 287.85,-665.52 293.85,-671.52 293.85,-677.52 293.85,-677.52 293.85,-714.69 293.85,-714.69 293.85,-720.69 287.85,-726.69 281.85,-726.69"/>
<text xml:space="preserve" text-anchor="middle" x="149.85" y="-700.43" font-family="DejaVu Sans" font-size="14.00">2) POSIX → sys_read / sys_write</text>
<text xml:space="preserve" text-anchor="middle" x="149.85" y="-682.43" font-family="DejaVu Sans" font-size="14.00">User Mode ➜ Kernel Mode</text>
</g>
<!-- S1&#45;&gt;S2 -->
<g id="edge1" class="edge">
<title>S1&#45;&gt;S2</title>
<path fill="none" stroke="#444444" d="M149.85,-762.38C149.85,-754.85 149.85,-746.49 149.85,-738.35"/>
<polygon fill="#444444" stroke="#444444" points="153.35,-738.6 149.85,-728.6 146.35,-738.6 153.35,-738.6"/>
</g>
<!-- S3 -->
<g id="node3" class="node">
<title>S3</title>
<path fill="#d6e8fa" stroke="black" d="M283.95,-629.52C283.95,-629.52 15.75,-629.52 15.75,-629.52 9.75,-629.52 3.75,-623.52 3.75,-617.52 3.75,-617.52 3.75,-564.6 3.75,-564.6 3.75,-558.6 9.75,-552.6 15.75,-552.6 15.75,-552.6 283.95,-552.6 283.95,-552.6 289.95,-552.6 295.95,-558.6 295.95,-564.6 295.95,-564.6 295.95,-617.52 295.95,-617.52 295.95,-623.52 289.95,-629.52 283.95,-629.52"/>
<text xml:space="preserve" text-anchor="middle" x="149.85" y="-603.26" font-family="DejaVu Sans" font-size="14.00">3) Page Cache kontrolü:</text>
<text xml:space="preserve" text-anchor="middle" x="149.85" y="-588.26" font-family="DejaVu Sans" font-size="14.00">· Varsa → bloke olmaz, bellekten oku/yaz</text>
<text xml:space="preserve" text-anchor="middle" x="149.85" y="-570.26" font-family="DejaVu Sans" font-size="14.00">· Yoksa → adım 4&#39;e geç</text>
</g>
<!-- S2&#45;&gt;S3 -->
<g id="edge2" class="edge">
<title>S2&#45;&gt;S3</title>
<path fill="none" stroke="#444444" d="M149.85,-665.02C149.85,-657.51 149.85,-649.26 149.85,-641.1"/>
<polygon fill="#444444" stroke="#444444" points="153.35,-641.21 149.85,-631.21 146.35,-641.21 153.35,-641.21"/>
</g>
<!-- S4 -->
<g id="node4" class="node">
<title>S4</title>
<path fill="#d6e8fa" stroke="black" d="M281.85,-516.6C281.85,-516.6 17.85,-516.6 17.85,-516.6 11.85,-516.6 5.85,-510.6 5.85,-504.6 5.85,-504.6 5.85,-472.68 5.85,-472.68 5.85,-466.68 11.85,-460.68 17.85,-460.68 17.85,-460.68 281.85,-460.68 281.85,-460.68 287.85,-460.68 293.85,-466.68 293.85,-472.68 293.85,-472.68 293.85,-504.6 293.85,-504.6 293.85,-510.6 287.85,-516.6 281.85,-516.6"/>
<text xml:space="preserve" text-anchor="middle" x="149.85" y="-490.34" font-family="DejaVu Sans" font-size="14.00">4) I/O çizelgeleyicisine gönderilir</text>
<text xml:space="preserve" text-anchor="middle" x="149.85" y="-475.34" font-family="DejaVu Sans" font-size="14.00">Thread bloke edilir</text>
</g>
<!-- S3&#45;&gt;S4 -->
<g id="edge3" class="edge">
<title>S3&#45;&gt;S4</title>
<path fill="none" stroke="#444444" d="M149.85,-552.38C149.85,-544.45 149.85,-536.08 149.85,-528.13"/>
<polygon fill="#444444" stroke="#444444" points="153.35,-528.38 149.85,-518.38 146.35,-528.38 153.35,-528.38"/>
</g>
<!-- S5 -->
<g id="node5" class="node">
<title>S5</title>
<path fill="#d6e8fa" stroke="black" d="M281.85,-424.68C281.85,-424.68 17.85,-424.68 17.85,-424.68 11.85,-424.68 5.85,-418.68 5.85,-412.68 5.85,-412.68 5.85,-365.76 5.85,-365.76 5.85,-359.76 11.85,-353.76 17.85,-353.76 17.85,-353.76 281.85,-353.76 281.85,-353.76 287.85,-353.76 293.85,-359.76 293.85,-365.76 293.85,-365.76 293.85,-412.68 293.85,-412.68 293.85,-418.68 287.85,-424.68 281.85,-424.68"/>
<text xml:space="preserve" text-anchor="middle" x="149.85" y="-398.42" font-family="DejaVu Sans" font-size="14.00">5) I/O Çizelgeleyicisi</text>
<text xml:space="preserve" text-anchor="middle" x="149.85" y="-383.42" font-family="DejaVu Sans" font-size="14.00">· Page Cache&#39;te yer ayırır</text>
<text xml:space="preserve" text-anchor="middle" x="149.85" y="-368.42" font-family="DejaVu Sans" font-size="14.00">· Blok aygıt sürücüsüne iletir</text>
</g>
<!-- S4&#45;&gt;S5 -->
<g id="edge4" class="edge">
<title>S4&#45;&gt;S5</title>
<path fill="none" stroke="#444444" d="M149.85,-460.24C149.85,-452.82 149.85,-444.58 149.85,-436.43"/>
<polygon fill="#444444" stroke="#444444" points="153.35,-436.58 149.85,-426.58 146.35,-436.58 153.35,-436.58"/>
</g>
<!-- S6 -->
<g id="node6" class="node">
<title>S6</title>
<path fill="#d6e8fa" stroke="black" d="M281.85,-317.76C281.85,-317.76 17.85,-317.76 17.85,-317.76 11.85,-317.76 5.85,-311.76 5.85,-305.76 5.85,-305.76 5.85,-243.84 5.85,-243.84 5.85,-237.84 11.85,-231.84 17.85,-231.84 17.85,-231.84 281.85,-231.84 281.85,-231.84 287.85,-231.84 293.85,-237.84 293.85,-243.84 293.85,-243.84 293.85,-305.76 293.85,-305.76 293.85,-311.76 287.85,-317.76 281.85,-317.76"/>
<text xml:space="preserve" text-anchor="middle" x="149.85" y="-291.5" font-family="DejaVu Sans" font-size="14.00">6) Blok aygıt sürücüsü</text>
<text xml:space="preserve" text-anchor="middle" x="149.85" y="-276.5" font-family="DejaVu Sans" font-size="14.00">· Sektörleri belirler</text>
<text xml:space="preserve" text-anchor="middle" x="149.85" y="-261.5" font-family="DejaVu Sans" font-size="14.00">· Page Cache adresleriyle eşleştirir</text>
<text xml:space="preserve" text-anchor="middle" x="149.85" y="-246.5" font-family="DejaVu Sans" font-size="14.00">· İsteği donanıma iletir</text>
</g>
<!-- S5&#45;&gt;S6 -->
<g id="edge5" class="edge">
<title>S5&#45;&gt;S6</title>
<path fill="none" stroke="#444444" d="M149.85,-353.27C149.85,-345.73 149.85,-337.6 149.85,-329.53"/>
<polygon fill="#444444" stroke="#444444" points="153.35,-329.76 149.85,-319.76 146.35,-329.76 153.35,-329.76"/>
</g>
<!-- S7 -->
<g id="node7" class="node">
<title>S7</title>
<path fill="#d5f5d5" stroke="black" d="M281.85,-195.84C281.85,-195.84 17.85,-195.84 17.85,-195.84 11.85,-195.84 5.85,-189.84 5.85,-183.84 5.85,-183.84 5.85,-121.92 5.85,-121.92 5.85,-115.92 11.85,-109.92 17.85,-109.92 17.85,-109.92 281.85,-109.92 281.85,-109.92 287.85,-109.92 293.85,-115.92 293.85,-121.92 293.85,-121.92 293.85,-183.84 293.85,-183.84 293.85,-189.84 287.85,-195.84 281.85,-195.84"/>
<text xml:space="preserve" text-anchor="middle" x="149.85" y="-169.58" font-family="DejaVu Sans" font-size="14.00">7) Gerçek transfer (donanım)</text>
<text xml:space="preserve" text-anchor="middle" x="149.85" y="-154.58" font-family="DejaVu Sans" font-size="14.00">· Tamamlanınca kesme gönderilir</text>
<text xml:space="preserve" text-anchor="middle" x="149.85" y="-139.58" font-family="DejaVu Sans" font-size="14.00">· Veri artık page cache&#39;tedir</text>
<text xml:space="preserve" text-anchor="middle" x="149.85" y="-124.58" font-family="DejaVu Sans" font-size="14.00">· Thread&#39;in blokesi çözülür</text>
</g>
<!-- S6&#45;&gt;S7 -->
<g id="edge6" class="edge">
<title>S6&#45;&gt;S7</title>
<path fill="none" stroke="#444444" d="M149.85,-231.52C149.85,-223.73 149.85,-215.5 149.85,-207.43"/>
<polygon fill="#444444" stroke="#444444" points="153.35,-207.7 149.85,-197.7 146.35,-207.7 153.35,-207.7"/>
</g>
<!-- S8 -->
<g id="node8" class="node">
<title>S8</title>
<path fill="#d5f5d5" stroke="black" d="M281.85,-73.92C281.85,-73.92 17.85,-73.92 17.85,-73.92 11.85,-73.92 5.85,-67.92 5.85,-61.92 5.85,-61.92 5.85,-12 5.85,-12 5.85,-6 11.85,0 17.85,0 17.85,0 281.85,0 281.85,0 287.85,0 293.85,-6 293.85,-12 293.85,-12 293.85,-61.92 293.85,-61.92 293.85,-67.92 287.85,-73.92 281.85,-73.92"/>
<text xml:space="preserve" text-anchor="middle" x="149.85" y="-47.66" font-family="DejaVu Sans" font-size="14.00">8) Kernel Mode → User Mode</text>
<text xml:space="preserve" text-anchor="middle" x="149.85" y="-29.66" font-family="DejaVu Sans" font-size="14.00">· Okuma: veri kullanıcıya kopyalanır</text>
<text xml:space="preserve" text-anchor="middle" x="149.85" y="-14.66" font-family="DejaVu Sans" font-size="14.00">· Yazma: geri dönüş yapılır</text>
</g>
<!-- S7&#45;&gt;S8 -->
<g id="edge7" class="edge">
<title>S7&#45;&gt;S8</title>
<path fill="none" stroke="#444444" d="M149.85,-109.46C149.85,-101.64 149.85,-93.43 149.85,-85.47"/>
<polygon fill="#444444" stroke="#444444" points="153.35,-85.58 149.85,-75.58 146.35,-85.58 153.35,-85.58"/>
</g>
</g>
</svg>
