<?xml version="1.0" encoding="UTF-8" standalone="no"?>
<!DOCTYPE svg PUBLIC "-//W3C//DTD SVG 1.1//EN"
 "http://www.w3.org/Graphics/SVG/1.1/DTD/svg11.dtd">
<!-- Generated by graphviz version 14.1.5 (20260411.2331)
 -->
<!-- Title: fork_chain Pages: 1 -->
<svg width="702pt" height="211pt"
 viewBox="0.00 0.00 702.00 211.00" xmlns="http://www.w3.org/2000/svg" xmlns:xlink="http://www.w3.org/1999/xlink">
<g id="graph0" class="graph" transform="scale(1 1) rotate(0) translate(21.6 189.6)">
<title>fork_chain</title>
<g id="clust1" class="cluster">
<title>cluster_fork</title>
<path fill="#eef5ff" stroke="black" d="M20,-8C20,-8 638.4,-8 638.4,-8 644.4,-8 650.4,-14 650.4,-20 650.4,-20 650.4,-68 650.4,-68 650.4,-74 644.4,-80 638.4,-80 638.4,-80 20,-80 20,-80 14,-80 8,-74 8,-68 8,-68 8,-20 8,-20 8,-14 14,-8 20,-8"/>
<text xml:space="preserve" text-anchor="middle" x="329.2" y="-65.55" font-family="sans-serif" font-size="11.00">fork() çağrı zinciri</text>
</g>
<g id="clust2" class="cluster">
<title>cluster_pthread</title>
<path fill="#fff5ee" stroke="black" d="M20,-88C20,-88 638.4,-88 638.4,-88 644.4,-88 650.4,-94 650.4,-100 650.4,-100 650.4,-148 650.4,-148 650.4,-154 644.4,-160 638.4,-160 638.4,-160 20,-160 20,-160 14,-160 8,-154 8,-148 8,-148 8,-100 8,-100 8,-94 14,-88 20,-88"/>
<text xml:space="preserve" text-anchor="middle" x="329.2" y="-145.55" font-family="sans-serif" font-size="11.00">pthread_create() çağrı zinciri</text>
</g>
<!-- f1 -->
<g id="node1" class="node">
<title>f1</title>
<path fill="#aaccff" stroke="black" d="M133.6,-52C133.6,-52 28,-52 28,-52 22,-52 16,-46 16,-40 16,-40 16,-28 16,-28 16,-22 22,-16 28,-16 28,-16 133.6,-16 133.6,-16 139.6,-16 145.6,-22 145.6,-28 145.6,-28 145.6,-40 145.6,-40 145.6,-46 139.6,-52 133.6,-52"/>
<text xml:space="preserve" text-anchor="middle" x="80.8" y="-37.05" font-family="monospace" font-size="11.00">fork()</text>
<text xml:space="preserve" text-anchor="middle" x="80.8" y="-23.55" font-family="monospace" font-size="11.00">(kullanıcı modu)</text>
</g>
<!-- f2 -->
<g id="node2" class="node">
<title>f2</title>
<path fill="#ddeeff" stroke="black" d="M299.2,-52C299.2,-52 193.6,-52 193.6,-52 187.6,-52 181.6,-46 181.6,-40 181.6,-40 181.6,-28 181.6,-28 181.6,-22 187.6,-16 193.6,-16 193.6,-16 299.2,-16 299.2,-16 305.2,-16 311.2,-22 311.2,-28 311.2,-28 311.2,-40 311.2,-40 311.2,-46 305.2,-52 299.2,-52"/>
<text xml:space="preserve" text-anchor="middle" x="246.4" y="-37.05" font-family="monospace" font-size="11.00">sys_fork()</text>
<text xml:space="preserve" text-anchor="middle" x="246.4" y="-23.55" font-family="monospace" font-size="11.00">(çekirdek modu)</text>
</g>
<!-- f1&#45;&gt;f2 -->
<g id="edge1" class="edge">
<title>f1&#45;&gt;f2</title>
<path fill="none" stroke="#336699" stroke-width="1.5" d="M145.99,-34C153.84,-34 161.91,-34 169.91,-34"/>
<polygon fill="#336699" stroke="#336699" stroke-width="1.5" points="169.86,-37.15 178.86,-34 169.86,-30.85 169.86,-37.15"/>
</g>
<!-- f3 -->
<g id="node3" class="node">
<title>f3</title>
<path fill="#ddeeff" stroke="black" d="M464.8,-52C464.8,-52 359.2,-52 359.2,-52 353.2,-52 347.2,-46 347.2,-40 347.2,-40 347.2,-28 347.2,-28 347.2,-22 353.2,-16 359.2,-16 359.2,-16 464.8,-16 464.8,-16 470.8,-16 476.8,-22 476.8,-28 476.8,-28 476.8,-40 476.8,-40 476.8,-46 470.8,-52 464.8,-52"/>
<text xml:space="preserve" text-anchor="middle" x="412" y="-37.05" font-family="monospace" font-size="11.00">kernel_clone()</text>
<text xml:space="preserve" text-anchor="middle" x="412" y="-23.55" font-family="monospace" font-size="11.00">(çekirdek)</text>
</g>
<!-- f2&#45;&gt;f3 -->
<g id="edge2" class="edge">
<title>f2&#45;&gt;f3</title>
<path fill="none" stroke="#336699" stroke-width="1.5" d="M311.59,-34C319.44,-34 327.51,-34 335.51,-34"/>
<polygon fill="#336699" stroke="#336699" stroke-width="1.5" points="335.46,-37.15 344.46,-34 335.46,-30.85 335.46,-37.15"/>
</g>
<!-- f4 -->
<g id="node4" class="node">
<title>f4</title>
<path fill="none" stroke="none" d="M630.4,-52C630.4,-52 524.8,-52 524.8,-52 518.8,-52 512.8,-46 512.8,-40 512.8,-40 512.8,-28 512.8,-28 512.8,-22 518.8,-16 524.8,-16 524.8,-16 630.4,-16 630.4,-16 636.4,-16 642.4,-22 642.4,-28 642.4,-28 642.4,-40 642.4,-40 642.4,-46 636.4,-52 630.4,-52"/>
<text xml:space="preserve" text-anchor="middle" x="577.6" y="-30.3" font-family="monospace" font-size="11.00">...</text>
</g>
<!-- f3&#45;&gt;f4 -->
<g id="edge3" class="edge">
<title>f3&#45;&gt;f4</title>
<path fill="none" stroke="#336699" stroke-width="1.5" d="M477.19,-34C485.25,-34 493.55,-34 501.76,-34"/>
<polygon fill="#336699" stroke="#336699" stroke-width="1.5" points="501.59,-37.15 510.59,-34 501.59,-30.85 501.59,-37.15"/>
</g>
<!-- p1 -->
<g id="node5" class="node">
<title>p1</title>
<path fill="#ffddaa" stroke="black" d="M133.6,-132C133.6,-132 28,-132 28,-132 22,-132 16,-126 16,-120 16,-120 16,-108 16,-108 16,-102 22,-96 28,-96 28,-96 133.6,-96 133.6,-96 139.6,-96 145.6,-102 145.6,-108 145.6,-108 145.6,-120 145.6,-120 145.6,-126 139.6,-132 133.6,-132"/>
<text xml:space="preserve" text-anchor="middle" x="80.8" y="-117.05" font-family="monospace" font-size="11.00">pthread_create()</text>
<text xml:space="preserve" text-anchor="middle" x="80.8" y="-103.55" font-family="monospace" font-size="11.00">(kullanıcı modu)</text>
</g>
<!-- p2 -->
<g id="node6" class="node">
<title>p2</title>
<path fill="#ffeedd" stroke="black" d="M299.2,-132C299.2,-132 193.6,-132 193.6,-132 187.6,-132 181.6,-126 181.6,-120 181.6,-120 181.6,-108 181.6,-108 181.6,-102 187.6,-96 193.6,-96 193.6,-96 299.2,-96 299.2,-96 305.2,-96 311.2,-102 311.2,-108 311.2,-108 311.2,-120 311.2,-120 311.2,-126 305.2,-132 299.2,-132"/>
<text xml:space="preserve" text-anchor="middle" x="246.4" y="-117.05" font-family="monospace" font-size="11.00">sys_clone()</text>
<text xml:space="preserve" text-anchor="middle" x="246.4" y="-103.55" font-family="monospace" font-size="11.00">(çekirdek modu)</text>
</g>
<!-- p1&#45;&gt;p2 -->
<g id="edge4" class="edge">
<title>p1&#45;&gt;p2</title>
<path fill="none" stroke="#336699" stroke-width="1.5" d="M145.99,-114C153.84,-114 161.91,-114 169.91,-114"/>
<polygon fill="#336699" stroke="#336699" stroke-width="1.5" points="169.86,-117.15 178.86,-114 169.86,-110.85 169.86,-117.15"/>
</g>
<!-- p3 -->
<g id="node7" class="node">
<title>p3</title>
<path fill="#ffeedd" stroke="black" d="M464.8,-132C464.8,-132 359.2,-132 359.2,-132 353.2,-132 347.2,-126 347.2,-120 347.2,-120 347.2,-108 347.2,-108 347.2,-102 353.2,-96 359.2,-96 359.2,-96 464.8,-96 464.8,-96 470.8,-96 476.8,-102 476.8,-108 476.8,-108 476.8,-120 476.8,-120 476.8,-126 470.8,-132 464.8,-132"/>
<text xml:space="preserve" text-anchor="middle" x="412" y="-117.05" font-family="monospace" font-size="11.00">kernel_clone()</text>
<text xml:space="preserve" text-anchor="middle" x="412" y="-103.55" font-family="monospace" font-size="11.00">(çekirdek)</text>
</g>
<!-- p2&#45;&gt;p3 -->
<g id="edge5" class="edge">
<title>p2&#45;&gt;p3</title>
<path fill="none" stroke="#336699" stroke-width="1.5" d="M311.59,-114C319.44,-114 327.51,-114 335.51,-114"/>
<polygon fill="#336699" stroke="#336699" stroke-width="1.5" points="335.46,-117.15 344.46,-114 335.46,-110.85 335.46,-117.15"/>
</g>
<!-- p4 -->
<g id="node8" class="node">
<title>p4</title>
<path fill="none" stroke="none" d="M630.4,-132C630.4,-132 524.8,-132 524.8,-132 518.8,-132 512.8,-126 512.8,-120 512.8,-120 512.8,-108 512.8,-108 512.8,-102 518.8,-96 524.8,-96 524.8,-96 630.4,-96 630.4,-96 636.4,-96 642.4,-102 642.4,-108 642.4,-108 642.4,-120 642.4,-120 642.4,-126 636.4,-132 630.4,-132"/>
<text xml:space="preserve" text-anchor="middle" x="577.6" y="-110.3" font-family="monospace" font-size="11.00">...</text>
</g>
<!-- p3&#45;&gt;p4 -->
<g id="edge6" class="edge">
<title>p3&#45;&gt;p4</title>
<path fill="none" stroke="#336699" stroke-width="1.5" d="M477.19,-114C485.25,-114 493.55,-114 501.76,-114"/>
<polygon fill="#336699" stroke="#336699" stroke-width="1.5" points="501.59,-117.15 510.59,-114 501.59,-110.85 501.59,-117.15"/>
</g>
</g>
</svg>
