<?xml version="1.0" encoding="UTF-8" standalone="no"?>
<!DOCTYPE svg PUBLIC "-//W3C//DTD SVG 1.1//EN"
 "http://www.w3.org/Graphics/SVG/1.1/DTD/svg11.dtd">
<!-- Generated by graphviz version 14.1.5 (20260411.2331)
 -->
<!-- Title: rw_flow Pages: 1 -->
<svg width="450pt" height="458pt"
 viewBox="0.00 0.00 450.00 458.00" xmlns="http://www.w3.org/2000/svg" xmlns:xlink="http://www.w3.org/1999/xlink">
<g id="graph0" class="graph" transform="scale(1 1) rotate(0) translate(4 453.55)">
<title>rw_flow</title>
<polygon fill="white" stroke="none" points="-4,4 -4,-453.55 445.68,-453.55 445.68,4 -4,4"/>
<!-- POSIX -->
<g id="node1" class="node">
<title>POSIX</title>
<path fill="#d6e8fa" stroke="black" d="M297.3,-449.55C297.3,-449.55 81.6,-449.55 81.6,-449.55 75.6,-449.55 69.6,-443.55 69.6,-437.55 69.6,-437.55 69.6,-417.75 69.6,-417.75 69.6,-411.75 75.6,-405.75 81.6,-405.75 81.6,-405.75 297.3,-405.75 297.3,-405.75 303.3,-405.75 309.3,-411.75 309.3,-417.75 309.3,-417.75 309.3,-437.55 309.3,-437.55 309.3,-443.55 303.3,-449.55 297.3,-449.55"/>
<text xml:space="preserve" text-anchor="middle" x="189.45" y="-421.85" font-family="DejaVu Sans" font-size="14.00">read / write POSIX Fonksiyonları</text>
</g>
<!-- Sys -->
<g id="node2" class="node">
<title>Sys</title>
<path fill="#d6e8fa" stroke="black" d="M276.3,-368.75C276.3,-368.75 102.6,-368.75 102.6,-368.75 96.6,-368.75 90.6,-362.75 90.6,-356.75 90.6,-356.75 90.6,-321.95 90.6,-321.95 90.6,-315.95 96.6,-309.95 102.6,-309.95 102.6,-309.95 276.3,-309.95 276.3,-309.95 282.3,-309.95 288.3,-315.95 288.3,-321.95 288.3,-321.95 288.3,-356.75 288.3,-356.75 288.3,-362.75 282.3,-368.75 276.3,-368.75"/>
<text xml:space="preserve" text-anchor="middle" x="189.45" y="-341.05" font-family="DejaVu Sans" font-size="14.00">sys_read / sys_write</text>
<text xml:space="preserve" text-anchor="middle" x="189.45" y="-326.05" font-family="DejaVu Sans" font-size="14.00">(Çekirdek Moduna Geçiş)</text>
</g>
<!-- POSIX&#45;&gt;Sys -->
<g id="edge1" class="edge">
<title>POSIX&#45;&gt;Sys</title>
<path fill="none" stroke="#444444" d="M189.45,-405.32C189.45,-397.84 189.45,-389.17 189.45,-380.65"/>
<polygon fill="#444444" stroke="#444444" points="192.95,-380.76 189.45,-370.76 185.95,-380.76 192.95,-380.76"/>
</g>
<!-- Check -->
<g id="node3" class="node">
<title>Check</title>
<path fill="#fff3cd" stroke="black" d="M177.76,-270.25C177.76,-270.25 11.69,-231.85 11.69,-231.85 5.85,-230.5 5.85,-227.8 11.69,-226.45 11.69,-226.45 177.76,-188.05 177.76,-188.05 183.6,-186.7 195.3,-186.7 201.14,-188.05 201.14,-188.05 367.21,-226.45 367.21,-226.45 373.05,-227.8 373.05,-230.5 367.21,-231.85 367.21,-231.85 201.14,-270.25 201.14,-270.25 195.3,-271.6 183.6,-271.6 177.76,-270.25"/>
<text xml:space="preserve" text-anchor="middle" x="189.45" y="-223.35" font-family="DejaVu Sans" font-size="14.00">Page Cache&#39;te bilgi var?</text>
</g>
<!-- Sys&#45;&gt;Check -->
<g id="edge2" class="edge">
<title>Sys&#45;&gt;Check</title>
<path fill="none" stroke="#444444" d="M189.45,-309.64C189.45,-301.89 189.45,-293.24 189.45,-284.58"/>
<polygon fill="#444444" stroke="#444444" points="192.95,-284.78 189.45,-274.78 185.95,-284.78 192.95,-284.78"/>
</g>
<!-- Copy -->
<g id="node4" class="node">
<title>Copy</title>
<path fill="#d5f5d5" stroke="black" d="M229.67,-139.6C229.67,-139.6 109.22,-139.6 109.22,-139.6 103.22,-139.6 97.22,-133.6 97.22,-127.6 97.22,-127.6 97.22,-92.8 97.22,-92.8 97.22,-86.8 103.22,-80.8 109.22,-80.8 109.22,-80.8 229.67,-80.8 229.67,-80.8 235.67,-80.8 241.67,-86.8 241.67,-92.8 241.67,-92.8 241.67,-127.6 241.67,-127.6 241.67,-133.6 235.67,-139.6 229.67,-139.6"/>
<text xml:space="preserve" text-anchor="middle" x="169.45" y="-111.9" font-family="DejaVu Sans" font-size="14.00">Veriyi kopyala</text>
<text xml:space="preserve" text-anchor="middle" x="169.45" y="-96.9" font-family="DejaVu Sans" font-size="14.00">(disk erişimi yok)</text>
</g>
<!-- Check&#45;&gt;Copy -->
<g id="edge3" class="edge">
<title>Check&#45;&gt;Copy</title>
<path fill="none" stroke="#444444" d="M182.34,-186.59C180.36,-174.97 178.2,-162.37 176.23,-150.86"/>
<polygon fill="#444444" stroke="#444444" points="179.73,-150.55 174.6,-141.29 172.83,-151.73 179.73,-150.55"/>
<text xml:space="preserve" text-anchor="middle" x="187.85" y="-158.8" font-family="DejaVu Sans" font-size="9.00">Evet</text>
</g>
<!-- DiskIO -->
<g id="node5" class="node">
<title>DiskIO</title>
<path fill="#d6e8fa" stroke="black" d="M425.17,-139.6C425.17,-139.6 271.73,-139.6 271.73,-139.6 265.73,-139.6 259.73,-133.6 259.73,-127.6 259.73,-127.6 259.73,-92.8 259.73,-92.8 259.73,-86.8 265.73,-80.8 271.73,-80.8 271.73,-80.8 425.17,-80.8 425.17,-80.8 431.17,-80.8 437.17,-86.8 437.17,-92.8 437.17,-92.8 437.17,-127.6 437.17,-127.6 437.17,-133.6 431.17,-139.6 425.17,-139.6"/>
<text xml:space="preserve" text-anchor="middle" x="348.45" y="-111.9" font-family="DejaVu Sans" font-size="14.00">Gerçek disk I/O başlat</text>
<text xml:space="preserve" text-anchor="middle" x="348.45" y="-96.9" font-family="DejaVu Sans" font-size="14.00">(okuma / yazma)</text>
</g>
<!-- Check&#45;&gt;DiskIO -->
<g id="edge4" class="edge">
<title>Check&#45;&gt;DiskIO</title>
<path fill="none" stroke="#444444" d="M234.16,-195.26C254.73,-180.14 279.16,-162.17 300.14,-146.73"/>
<polygon fill="#444444" stroke="#444444" points="302.01,-149.71 307.99,-140.96 297.86,-144.07 302.01,-149.71"/>
<text xml:space="preserve" text-anchor="middle" x="294.07" y="-158.8" font-family="DejaVu Sans" font-size="9.00">Hayır</text>
</g>
<!-- Update -->
<g id="node6" class="node">
<title>Update</title>
<path fill="#d5f5d5" stroke="black" d="M429.67,-43.8C429.67,-43.8 267.22,-43.8 267.22,-43.8 261.23,-43.8 255.22,-37.8 255.22,-31.8 255.22,-31.8 255.22,-12 255.22,-12 255.22,-6 261.23,0 267.23,0 267.23,0 429.67,0 429.67,0 435.67,0 441.67,-6 441.67,-12 441.67,-12 441.67,-31.8 441.67,-31.8 441.67,-37.8 435.67,-43.8 429.67,-43.8"/>
<text xml:space="preserve" text-anchor="middle" x="348.45" y="-16.1" font-family="DejaVu Sans" font-size="14.00">Page Cache güncellenir</text>
</g>
<!-- DiskIO&#45;&gt;Update -->
<g id="edge5" class="edge">
<title>DiskIO&#45;&gt;Update</title>
<path fill="none" stroke="#444444" d="M348.45,-80.46C348.45,-72.49 348.45,-63.78 348.45,-55.6"/>
<polygon fill="#444444" stroke="#444444" points="351.95,-55.65 348.45,-45.65 344.95,-55.65 351.95,-55.65"/>
</g>
</g>
</svg>
