<?xml version="1.0" encoding="UTF-8" standalone="no"?>
<!DOCTYPE svg PUBLIC "-//W3C//DTD SVG 1.1//EN"
 "http://www.w3.org/Graphics/SVG/1.1/DTD/svg11.dtd">
<!-- Generated by graphviz version 14.1.5 (20260411.2331)
 -->
<!-- Title: children_list Pages: 1 -->
<svg width="1005pt" height="226pt"
 viewBox="0.00 0.00 1005.00 226.00" xmlns="http://www.w3.org/2000/svg" xmlns:xlink="http://www.w3.org/1999/xlink">
<g id="graph0" class="graph" transform="scale(1 1) rotate(0) translate(21.6 204.28)">
<title>children_list</title>
<!-- parent -->
<g id="node1" class="node">
<title>parent</title>
<path fill="#aaccff" stroke="black" d="M12,-88.87C12,-88.87 231.75,-88.87 231.75,-88.87 237.75,-88.87 243.75,-94.87 243.75,-100.87 243.75,-100.87 243.75,-123.67 243.75,-123.67 243.75,-129.67 237.75,-135.67 231.75,-135.67 231.75,-135.67 12,-135.67 12,-135.67 6,-135.67 0,-129.67 0,-123.67 0,-123.67 0,-100.87 0,-100.87 0,-94.87 6,-88.87 12,-88.87"/>
<text xml:space="preserve" text-anchor="middle" x="45.12" y="-115.72" font-family="monospace" font-size="11.00">üst proses</text>
<text xml:space="preserve" text-anchor="middle" x="45.12" y="-102.22" font-family="monospace" font-size="11.00">task_struct</text>
<polyline fill="none" stroke="black" points="90.25,-89.67 90.25,-135.67"/>
<text xml:space="preserve" text-anchor="middle" x="145.5" y="-108.97" font-family="monospace" font-size="11.00">children (kök)</text>
<polyline fill="none" stroke="black" points="200.75,-89.67 200.75,-135.67"/>
<text xml:space="preserve" text-anchor="middle" x="222.25" y="-120.72" font-family="monospace" font-size="11.00">prev</text>
<polyline fill="none" stroke="black" points="200.75,-113.17 243.75,-113.17"/>
<text xml:space="preserve" text-anchor="middle" x="222.25" y="-97.72" font-family="monospace" font-size="11.00">next</text>
</g>
<!-- c1 -->
<g id="node2" class="node">
<title>c1</title>
<path fill="#ffddaa" stroke="black" d="M291.75,-88.87C291.75,-88.87 471,-88.87 471,-88.87 477,-88.87 483,-94.87 483,-100.87 483,-100.87 483,-123.67 483,-123.67 483,-129.67 477,-135.67 471,-135.67 471,-135.67 291.75,-135.67 291.75,-135.67 285.75,-135.67 279.75,-129.67 279.75,-123.67 279.75,-123.67 279.75,-100.87 279.75,-100.87 279.75,-94.87 285.75,-88.87 291.75,-88.87"/>
<text xml:space="preserve" text-anchor="middle" x="328.25" y="-115.72" font-family="monospace" font-size="11.00">alt proses 1</text>
<text xml:space="preserve" text-anchor="middle" x="328.25" y="-102.22" font-family="monospace" font-size="11.00">task_struct</text>
<polyline fill="none" stroke="black" points="376.75,-89.67 376.75,-135.67"/>
<text xml:space="preserve" text-anchor="middle" x="408.38" y="-108.97" font-family="monospace" font-size="11.00">sibling</text>
<polyline fill="none" stroke="black" points="440,-89.67 440,-135.67"/>
<text xml:space="preserve" text-anchor="middle" x="461.5" y="-120.72" font-family="monospace" font-size="11.00">prev</text>
<polyline fill="none" stroke="black" points="440,-113.17 483,-113.17"/>
<text xml:space="preserve" text-anchor="middle" x="461.5" y="-97.72" font-family="monospace" font-size="11.00">next</text>
</g>
<!-- parent&#45;&gt;c1 -->
<g id="edge1" class="edge">
<title>parent:n&#45;&gt;c1:n</title>
<path fill="none" stroke="#336699" stroke-width="1.5" d="M243.75,-101.42C260.58,-101.42 263.14,-92.36 279.75,-89.67 296.96,-86.88 419.91,-73.11 453.2,-82.39"/>
<polygon fill="#336699" stroke="#336699" stroke-width="1.5" points="451.12,-84.54 459.69,-87.3 454.71,-79.8 451.12,-84.54"/>
</g>
<!-- c3 -->
<g id="node4" class="node">
<title>c3</title>
<path fill="#ffe8cc" stroke="black" d="M770.25,-88.87C770.25,-88.87 949.5,-88.87 949.5,-88.87 955.5,-88.87 961.5,-94.87 961.5,-100.87 961.5,-100.87 961.5,-123.67 961.5,-123.67 961.5,-129.67 955.5,-135.67 949.5,-135.67 949.5,-135.67 770.25,-135.67 770.25,-135.67 764.25,-135.67 758.25,-129.67 758.25,-123.67 758.25,-123.67 758.25,-100.87 758.25,-100.87 758.25,-94.87 764.25,-88.87 770.25,-88.87"/>
<text xml:space="preserve" text-anchor="middle" x="806.75" y="-115.72" font-family="monospace" font-size="11.00">alt proses 3</text>
<text xml:space="preserve" text-anchor="middle" x="806.75" y="-102.22" font-family="monospace" font-size="11.00">task_struct</text>
<polyline fill="none" stroke="black" points="855.25,-89.67 855.25,-135.67"/>
<text xml:space="preserve" text-anchor="middle" x="886.88" y="-108.97" font-family="monospace" font-size="11.00">sibling</text>
<polyline fill="none" stroke="black" points="918.5,-89.67 918.5,-135.67"/>
<text xml:space="preserve" text-anchor="middle" x="940" y="-120.72" font-family="monospace" font-size="11.00">prev</text>
<polyline fill="none" stroke="black" points="918.5,-113.17 961.5,-113.17"/>
<text xml:space="preserve" text-anchor="middle" x="940" y="-97.72" font-family="monospace" font-size="11.00">next</text>
</g>
<!-- parent&#45;&gt;c3 -->
<g id="edge8" class="edge">
<title>parent:p&#45;&gt;c3:p</title>
<path fill="none" stroke="#aa4444" stroke-width="1.5" stroke-dasharray="5,2" d="M243.75,-124.42C269.41,-124.42 256.63,-90.4 279.75,-79.27 368.34,-36.6 636.02,-32.01 722.25,-79.27 748.33,-93.56 732.21,-121.3 758.25,-135.67 825.67,-172.86 929.68,-213.45 939.28,-147.23"/>
<polygon fill="#aa4444" stroke="#aa4444" stroke-width="1.5" points="942.24,-147.61 939.85,-138.93 936.3,-147.21 942.24,-147.61"/>
</g>
<!-- c1&#45;&gt;parent -->
<g id="edge5" class="edge">
<title>c1:p&#45;&gt;parent:p</title>
<path fill="none" stroke="#aa4444" stroke-width="1.5" d="M461.5,-136.67C461.5,-217.45 359.57,-148.07 279.75,-135.67 267.46,-133.76 262.81,-128.49 254.39,-125.89"/>
<polygon fill="#aa4444" stroke="#aa4444" stroke-width="1.5" points="254.83,-122.95 246,-124.73 254.01,-128.85 254.83,-122.95"/>
</g>
<!-- c2 -->
<g id="node3" class="node">
<title>c2</title>
<path fill="#ffe8cc" stroke="black" d="M531,-88.87C531,-88.87 710.25,-88.87 710.25,-88.87 716.25,-88.87 722.25,-94.87 722.25,-100.87 722.25,-100.87 722.25,-123.67 722.25,-123.67 722.25,-129.67 716.25,-135.67 710.25,-135.67 710.25,-135.67 531,-135.67 531,-135.67 525,-135.67 519,-129.67 519,-123.67 519,-123.67 519,-100.87 519,-100.87 519,-94.87 525,-88.87 531,-88.87"/>
<text xml:space="preserve" text-anchor="middle" x="567.5" y="-115.72" font-family="monospace" font-size="11.00">alt proses 2</text>
<text xml:space="preserve" text-anchor="middle" x="567.5" y="-102.22" font-family="monospace" font-size="11.00">task_struct</text>
<polyline fill="none" stroke="black" points="616,-89.67 616,-135.67"/>
<text xml:space="preserve" text-anchor="middle" x="647.62" y="-108.97" font-family="monospace" font-size="11.00">sibling</text>
<polyline fill="none" stroke="black" points="679.25,-89.67 679.25,-135.67"/>
<text xml:space="preserve" text-anchor="middle" x="700.75" y="-120.72" font-family="monospace" font-size="11.00">prev</text>
<polyline fill="none" stroke="black" points="679.25,-113.17 722.25,-113.17"/>
<text xml:space="preserve" text-anchor="middle" x="700.75" y="-97.72" font-family="monospace" font-size="11.00">next</text>
</g>
<!-- c1&#45;&gt;c2 -->
<g id="edge2" class="edge">
<title>c1:n&#45;&gt;c2:n</title>
<path fill="none" stroke="#336699" stroke-width="1.5" d="M483,-101.42C499.83,-101.42 502.39,-92.36 519,-89.67 536.21,-86.88 659.16,-73.11 692.45,-82.39"/>
<polygon fill="#336699" stroke="#336699" stroke-width="1.5" points="690.37,-84.54 698.94,-87.3 693.96,-79.8 690.37,-84.54"/>
</g>
<!-- c2&#45;&gt;c1 -->
<g id="edge6" class="edge">
<title>c2:p&#45;&gt;c1:p</title>
<path fill="none" stroke="#aa4444" stroke-width="1.5" d="M700.75,-136.67C700.75,-217.45 598.82,-148.07 519,-135.67 506.71,-133.76 502.06,-128.49 493.64,-125.89"/>
<polygon fill="#aa4444" stroke="#aa4444" stroke-width="1.5" points="494.08,-122.95 485.25,-124.73 493.26,-128.85 494.08,-122.95"/>
</g>
<!-- c2&#45;&gt;c3 -->
<g id="edge3" class="edge">
<title>c2:n&#45;&gt;c3:n</title>
<path fill="none" stroke="#336699" stroke-width="1.5" d="M722.25,-101.42C739.08,-101.42 741.64,-92.36 758.25,-89.67 834.25,-77.36 930.49,-14.22 939.34,-78.27"/>
<polygon fill="#336699" stroke="#336699" stroke-width="1.5" points="936.35,-78.11 939.86,-86.4 942.29,-77.73 936.35,-78.11"/>
</g>
<!-- c3&#45;&gt;parent -->
<g id="edge4" class="edge">
<title>c3:n&#45;&gt;parent:n</title>
<path fill="none" stroke="#336699" stroke-width="1.5" stroke-dasharray="5,2" d="M940,-88.67C940,9.93 820.39,-55.73 722.25,-46.27 526.49,-27.39 452.69,47.37 279.75,-46.27 257.83,-58.14 268.36,-89.78 253.9,-98.92"/>
<polygon fill="#336699" stroke="#336699" stroke-width="1.5" points="253.5,-95.95 245.95,-100.87 254.92,-101.73 253.5,-95.95"/>
</g>
<!-- c3&#45;&gt;c2 -->
<g id="edge7" class="edge">
<title>c3:p&#45;&gt;c2:p</title>
<path fill="none" stroke="#aa4444" stroke-width="1.5" d="M940,-136.67C940,-217.45 838.07,-148.07 758.25,-135.67 745.96,-133.76 741.31,-128.49 732.89,-125.89"/>
<polygon fill="#aa4444" stroke="#aa4444" stroke-width="1.5" points="733.33,-122.95 724.5,-124.73 732.51,-128.85 733.33,-122.95"/>
</g>
</g>
</svg>
