<?xml version="1.0" encoding="UTF-8" standalone="no"?>
<!DOCTYPE svg PUBLIC "-//W3C//DTD SVG 1.1//EN"
 "http://www.w3.org/Graphics/SVG/1.1/DTD/svg11.dtd">
<!-- Generated by graphviz version 14.1.5 (20260411.2331)
 -->
<!-- Title: pc_legacy_boot Pages: 1 -->
<svg width="302pt" height="548pt"
 viewBox="0.00 0.00 302.00 548.00" xmlns="http://www.w3.org/2000/svg" xmlns:xlink="http://www.w3.org/1999/xlink">
<g id="graph0" class="graph" transform="scale(1 1) rotate(0) translate(21.6 526.56)">
<title>pc_legacy_boot</title>
<!-- A -->
<g id="node1" class="node">
<title>A</title>
<path fill="#ddeeff" stroke="black" d="M247.2,-504.96C247.2,-504.96 12,-504.96 12,-504.96 6,-504.96 0,-498.96 0,-492.96 0,-492.96 0,-475.68 0,-475.68 0,-469.68 6,-463.68 12,-463.68 12,-463.68 247.2,-463.68 247.2,-463.68 253.2,-463.68 259.2,-469.68 259.2,-475.68 259.2,-475.68 259.2,-492.96 259.2,-492.96 259.2,-498.96 253.2,-504.96 247.2,-504.96"/>
<text xml:space="preserve" text-anchor="middle" x="129.6" y="-485.87" font-family="DejaVu Sans" font-size="11.00">PC&#39;ye güç verilir</text>
<text xml:space="preserve" text-anchor="middle" x="129.6" y="-473.87" font-family="DejaVu Sans" font-size="11.00">Mikroişlemci reset edilir</text>
</g>
<!-- B -->
<g id="node2" class="node">
<title>B</title>
<path fill="#ddeeff" stroke="black" d="M247.2,-427.68C247.2,-427.68 12,-427.68 12,-427.68 6,-427.68 0,-421.68 0,-415.68 0,-415.68 0,-398.4 0,-398.4 0,-392.4 6,-386.4 12,-386.4 12,-386.4 247.2,-386.4 247.2,-386.4 253.2,-386.4 259.2,-392.4 259.2,-398.4 259.2,-398.4 259.2,-415.68 259.2,-415.68 259.2,-421.68 253.2,-427.68 247.2,-427.68"/>
<text xml:space="preserve" text-anchor="middle" x="129.6" y="-408.59" font-family="DejaVu Sans" font-size="11.00">EEPROM&#39;daki BIOS kodları</text>
<text xml:space="preserve" text-anchor="middle" x="129.6" y="-396.59" font-family="DejaVu Sans" font-size="11.00">temel hazırlık işlemlerini yapar</text>
</g>
<!-- A&#45;&gt;B -->
<g id="edge1" class="edge">
<title>A&#45;&gt;B</title>
<path fill="none" stroke="#336699" stroke-width="1.5" d="M129.6,-463.54C129.6,-455.91 129.6,-447 129.6,-438.58"/>
<polygon fill="#336699" stroke="#336699" stroke-width="1.5" points="129.6,-429.78 133.65,-438.78 129.85,-432.45 129.85,-438.78 129.6,-438.78 129.35,-438.78 129.35,-432.45 125.55,-438.78 129.6,-429.78"/>
</g>
<!-- C -->
<g id="node3" class="node">
<title>C</title>
<path fill="#ddeeff" stroke="black" d="M247.2,-350.4C247.2,-350.4 12,-350.4 12,-350.4 6,-350.4 0,-344.4 0,-338.4 0,-338.4 0,-321.12 0,-321.12 0,-315.12 6,-309.12 12,-309.12 12,-309.12 247.2,-309.12 247.2,-309.12 253.2,-309.12 259.2,-315.12 259.2,-321.12 259.2,-321.12 259.2,-338.4 259.2,-338.4 259.2,-344.4 253.2,-350.4 247.2,-350.4"/>
<text xml:space="preserve" text-anchor="middle" x="129.6" y="-331.31" font-family="DejaVu Sans" font-size="11.00">BIOS, diskin ilk sektörünü (MBR)</text>
<text xml:space="preserve" text-anchor="middle" x="129.6" y="-319.31" font-family="DejaVu Sans" font-size="11.00">RAM&#39;e yükler ve akışı devreder</text>
</g>
<!-- B&#45;&gt;C -->
<g id="edge2" class="edge">
<title>B&#45;&gt;C</title>
<path fill="none" stroke="#336699" stroke-width="1.5" d="M129.6,-386.26C129.6,-378.63 129.6,-369.72 129.6,-361.3"/>
<polygon fill="#336699" stroke="#336699" stroke-width="1.5" points="129.6,-352.5 133.65,-361.5 129.85,-355.17 129.85,-361.5 129.6,-361.5 129.35,-361.5 129.35,-355.17 125.55,-361.5 129.6,-352.5"/>
</g>
<!-- D -->
<g id="node4" class="node">
<title>D</title>
<path fill="#ddeeff" stroke="black" d="M247.2,-273.12C247.2,-273.12 12,-273.12 12,-273.12 6,-273.12 0,-267.12 0,-261.12 0,-261.12 0,-243.84 0,-243.84 0,-237.84 6,-231.84 12,-231.84 12,-231.84 247.2,-231.84 247.2,-231.84 253.2,-231.84 259.2,-237.84 259.2,-243.84 259.2,-243.84 259.2,-261.12 259.2,-261.12 259.2,-267.12 253.2,-273.12 247.2,-273.12"/>
<text xml:space="preserve" text-anchor="middle" x="129.6" y="-254.03" font-family="DejaVu Sans" font-size="11.00">MBR&#39;deki program</text>
<text xml:space="preserve" text-anchor="middle" x="129.6" y="-242.03" font-family="DejaVu Sans" font-size="11.00">önyükleyiciyi RAM&#39;e yükler</text>
</g>
<!-- C&#45;&gt;D -->
<g id="edge3" class="edge">
<title>C&#45;&gt;D</title>
<path fill="none" stroke="#336699" stroke-width="1.5" d="M129.6,-308.98C129.6,-301.35 129.6,-292.44 129.6,-284.02"/>
<polygon fill="#336699" stroke="#336699" stroke-width="1.5" points="129.6,-275.22 133.65,-284.22 129.85,-277.89 129.85,-284.22 129.6,-284.22 129.35,-284.22 129.35,-277.89 125.55,-284.22 129.6,-275.22"/>
</g>
<!-- E -->
<g id="node5" class="node">
<title>E</title>
<path fill="#ddeeff" stroke="black" d="M247.2,-195.84C247.2,-195.84 12,-195.84 12,-195.84 6,-195.84 0,-189.84 0,-183.84 0,-183.84 0,-166.56 0,-166.56 0,-160.56 6,-154.56 12,-154.56 12,-154.56 247.2,-154.56 247.2,-154.56 253.2,-154.56 259.2,-160.56 259.2,-166.56 259.2,-166.56 259.2,-183.84 259.2,-183.84 259.2,-189.84 253.2,-195.84 247.2,-195.84"/>
<text xml:space="preserve" text-anchor="middle" x="129.6" y="-176.75" font-family="DejaVu Sans" font-size="11.00">Önyükleyici, seçilen disk bölümünün</text>
<text xml:space="preserve" text-anchor="middle" x="129.6" y="-164.75" font-family="DejaVu Sans" font-size="11.00">boot sektörünü RAM&#39;e yükler</text>
</g>
<!-- D&#45;&gt;E -->
<g id="edge4" class="edge">
<title>D&#45;&gt;E</title>
<path fill="none" stroke="#336699" stroke-width="1.5" d="M129.6,-231.7C129.6,-224.07 129.6,-215.16 129.6,-206.74"/>
<polygon fill="#336699" stroke="#336699" stroke-width="1.5" points="129.6,-197.94 133.65,-206.94 129.85,-200.61 129.85,-206.94 129.6,-206.94 129.35,-206.94 129.35,-200.61 125.55,-206.94 129.6,-197.94"/>
</g>
<!-- F -->
<g id="node6" class="node">
<title>F</title>
<path fill="#ddeeff" stroke="black" d="M247.2,-118.56C247.2,-118.56 12,-118.56 12,-118.56 6,-118.56 0,-112.56 0,-106.56 0,-106.56 0,-89.28 0,-89.28 0,-83.28 6,-77.28 12,-77.28 12,-77.28 247.2,-77.28 247.2,-77.28 253.2,-77.28 259.2,-83.28 259.2,-89.28 259.2,-89.28 259.2,-106.56 259.2,-106.56 259.2,-112.56 253.2,-118.56 247.2,-118.56"/>
<text xml:space="preserve" text-anchor="middle" x="129.6" y="-99.47" font-family="DejaVu Sans" font-size="11.00">Boot sektör</text>
<text xml:space="preserve" text-anchor="middle" x="129.6" y="-87.47" font-family="DejaVu Sans" font-size="11.00">işletim sistemini yükler</text>
</g>
<!-- E&#45;&gt;F -->
<g id="edge5" class="edge">
<title>E&#45;&gt;F</title>
<path fill="none" stroke="#336699" stroke-width="1.5" d="M129.6,-154.42C129.6,-146.79 129.6,-137.88 129.6,-129.46"/>
<polygon fill="#336699" stroke="#336699" stroke-width="1.5" points="129.6,-120.66 133.65,-129.66 129.85,-123.33 129.85,-129.66 129.6,-129.66 129.35,-129.66 129.35,-123.33 125.55,-129.66 129.6,-120.66"/>
</g>
<!-- G -->
<g id="node7" class="node">
<title>G</title>
<path fill="#c8e6c9" stroke="black" d="M247.2,-41.28C247.2,-41.28 12,-41.28 12,-41.28 6,-41.28 0,-35.28 0,-29.28 0,-29.28 0,-12 0,-12 0,-6 6,0 12,0 12,0 247.2,0 247.2,0 253.2,0 259.2,-6 259.2,-12 259.2,-12 259.2,-29.28 259.2,-29.28 259.2,-35.28 253.2,-41.28 247.2,-41.28"/>
<text xml:space="preserve" text-anchor="middle" x="129.6" y="-22.19" font-family="DejaVu Sans" font-size="11.00">Akış işletim sistemi</text>
<text xml:space="preserve" text-anchor="middle" x="129.6" y="-10.19" font-family="DejaVu Sans" font-size="11.00">kodlarına devredilir</text>
</g>
<!-- F&#45;&gt;G -->
<g id="edge6" class="edge">
<title>F&#45;&gt;G</title>
<path fill="none" stroke="#336699" stroke-width="1.5" d="M129.6,-77.14C129.6,-69.51 129.6,-60.6 129.6,-52.18"/>
<polygon fill="#336699" stroke="#336699" stroke-width="1.5" points="129.6,-43.38 133.65,-52.38 129.85,-46.05 129.85,-52.38 129.6,-52.38 129.35,-52.38 129.35,-46.05 125.55,-52.38 129.6,-43.38"/>
</g>
</g>
</svg>
