<?xml version="1.0" encoding="UTF-8" standalone="no"?>
<!DOCTYPE svg PUBLIC "-//W3C//DTD SVG 1.1//EN"
 "http://www.w3.org/Graphics/SVG/1.1/DTD/svg11.dtd">
<!-- Generated by graphviz version 14.1.5 (20260411.2331)
 -->
<!-- Title: double_linked Pages: 1 -->
<svg width="641pt" height="65pt"
 viewBox="0.00 0.00 641.00 65.00" xmlns="http://www.w3.org/2000/svg" xmlns:xlink="http://www.w3.org/1999/xlink">
<g id="graph0" class="graph" transform="scale(1 1) rotate(0) translate(14.4 50.4)">
<title>double_linked</title>
<!-- head -->
<g id="node1" class="node">
<title>head</title>
<path fill="#aaccff" stroke="black" d="M60,-36C60,-36 12,-36 12,-36 6,-36 0,-30 0,-24 0,-24 0,-12 0,-12 0,-6 6,0 12,0 12,0 60,0 60,0 66,0 72,-6 72,-12 72,-12 72,-24 72,-24 72,-30 66,-36 60,-36"/>
<text xml:space="preserve" text-anchor="middle" x="36" y="-13.72" font-family="monospace bold" font-size="12.00">head</text>
</g>
<!-- n1 -->
<g id="node2" class="node">
<title>n1</title>
<path fill="#ddeeff" stroke="black" d="M168,-36C168,-36 120,-36 120,-36 114,-36 108,-30 108,-24 108,-24 108,-12 108,-12 108,-6 114,0 120,0 120,0 168,0 168,0 174,0 180,-6 180,-12 180,-12 180,-24 180,-24 180,-30 174,-36 168,-36"/>
<text xml:space="preserve" text-anchor="middle" x="144" y="-13.72" font-family="monospace" font-size="12.00">node</text>
</g>
<!-- head&#45;&gt;n1 -->
<g id="edge1" class="edge">
<title>head&#45;&gt;n1</title>
<path fill="none" stroke="#4477aa" stroke-width="1.5" d="M83.31,-18C87.82,-18 92.38,-18 96.88,-18"/>
<polygon fill="#4477aa" stroke="#4477aa" stroke-width="1.5" points="83.57,-14.85 74.57,-18 83.57,-21.15 83.57,-14.85"/>
<polygon fill="#4477aa" stroke="#4477aa" stroke-width="1.5" points="96.59,-21.15 105.59,-18 96.59,-14.85 96.59,-21.15"/>
</g>
<!-- n2 -->
<g id="node3" class="node">
<title>n2</title>
<path fill="#ddeeff" stroke="black" d="M276,-36C276,-36 228,-36 228,-36 222,-36 216,-30 216,-24 216,-24 216,-12 216,-12 216,-6 222,0 228,0 228,0 276,0 276,0 282,0 288,-6 288,-12 288,-12 288,-24 288,-24 288,-30 282,-36 276,-36"/>
<text xml:space="preserve" text-anchor="middle" x="252" y="-13.72" font-family="monospace" font-size="12.00">node</text>
</g>
<!-- n1&#45;&gt;n2 -->
<g id="edge2" class="edge">
<title>n1&#45;&gt;n2</title>
<path fill="none" stroke="#4477aa" stroke-width="1.5" d="M191.31,-18C195.82,-18 200.38,-18 204.88,-18"/>
<polygon fill="#4477aa" stroke="#4477aa" stroke-width="1.5" points="191.57,-14.85 182.57,-18 191.57,-21.15 191.57,-14.85"/>
<polygon fill="#4477aa" stroke="#4477aa" stroke-width="1.5" points="204.59,-21.15 213.59,-18 204.59,-14.85 204.59,-21.15"/>
</g>
<!-- n3 -->
<g id="node4" class="node">
<title>n3</title>
<path fill="#ddeeff" stroke="black" d="M384,-36C384,-36 336,-36 336,-36 330,-36 324,-30 324,-24 324,-24 324,-12 324,-12 324,-6 330,0 336,0 336,0 384,0 384,0 390,0 396,-6 396,-12 396,-12 396,-24 396,-24 396,-30 390,-36 384,-36"/>
<text xml:space="preserve" text-anchor="middle" x="360" y="-13.72" font-family="monospace" font-size="12.00">node</text>
</g>
<!-- n2&#45;&gt;n3 -->
<g id="edge3" class="edge">
<title>n2&#45;&gt;n3</title>
<path fill="none" stroke="#4477aa" stroke-width="1.5" d="M299.31,-18C303.82,-18 308.38,-18 312.88,-18"/>
<polygon fill="#4477aa" stroke="#4477aa" stroke-width="1.5" points="299.57,-14.85 290.57,-18 299.57,-21.15 299.57,-14.85"/>
<polygon fill="#4477aa" stroke="#4477aa" stroke-width="1.5" points="312.59,-21.15 321.59,-18 312.59,-14.85 312.59,-21.15"/>
</g>
<!-- n4 -->
<g id="node5" class="node">
<title>n4</title>
<path fill="#ddeeff" stroke="black" d="M492,-36C492,-36 444,-36 444,-36 438,-36 432,-30 432,-24 432,-24 432,-12 432,-12 432,-6 438,0 444,0 444,0 492,0 492,0 498,0 504,-6 504,-12 504,-12 504,-24 504,-24 504,-30 498,-36 492,-36"/>
<text xml:space="preserve" text-anchor="middle" x="468" y="-13.72" font-family="monospace" font-size="12.00">node</text>
</g>
<!-- n3&#45;&gt;n4 -->
<g id="edge4" class="edge">
<title>n3&#45;&gt;n4</title>
<path fill="none" stroke="#4477aa" stroke-width="1.5" d="M407.31,-18C411.82,-18 416.38,-18 420.88,-18"/>
<polygon fill="#4477aa" stroke="#4477aa" stroke-width="1.5" points="407.57,-14.85 398.57,-18 407.57,-21.15 407.57,-14.85"/>
<polygon fill="#4477aa" stroke="#4477aa" stroke-width="1.5" points="420.59,-21.15 429.59,-18 420.59,-14.85 420.59,-21.15"/>
</g>
<!-- nil -->
<g id="node6" class="node">
<title>nil</title>
<path fill="#ddeeff" stroke="none" d="M600,-36C600,-36 552,-36 552,-36 546,-36 540,-30 540,-24 540,-24 540,-12 540,-12 540,-6 546,0 552,0 552,0 600,0 600,0 606,0 612,-6 612,-12 612,-12 612,-24 612,-24 612,-30 606,-36 600,-36"/>
<text xml:space="preserve" text-anchor="middle" x="576" y="-13.72" font-family="monospace" font-size="12.00" fill="#888888">NULL</text>
</g>
<!-- n4&#45;&gt;nil -->
<g id="edge5" class="edge">
<title>n4&#45;&gt;nil</title>
<path fill="none" stroke="#4477aa" stroke-width="1.5" d="M504.3,-18C512.25,-18 520.8,-18 529.11,-18"/>
<polygon fill="#4477aa" stroke="#4477aa" stroke-width="1.5" points="528.95,-21.15 537.95,-18 528.95,-14.85 528.95,-21.15"/>
</g>
</g>
</svg>
